<svg width="20" height="20" viewBox="0 0 20 20" fill="none" xmlns="http://www.w3.org/2000/svg">
<path d="M3.02271 20H14.756C14.9523 20 15.1412 19.9222 15.2782 19.7815L19.4115 15.6482C19.5523 15.5075 19.6301 15.3222 19.6301 15.126V4.13331C19.6301 2.67035 18.4412 1.48145 16.9782 1.48145H15.9264V0.740727C15.9264 0.333315 15.593 0 15.1856 0C14.7782 0 14.4449 0.333315 14.4449 0.740727V1.48145H5.55606V0.740727C5.55606 0.333315 5.22269 0 4.81527 0C4.40786 0 4.07455 0.333315 4.07455 0.740727V1.48145H3.02271C1.55975 1.48145 0.37085 2.67035 0.37085 4.13331V17.3481C0.37085 18.8111 1.55975 20 3.02271 20ZM14.8153 18.1518V15.7703C14.8153 15.6518 14.9116 15.5555 15.0301 15.5555H17.4116L14.8153 18.1518ZM1.85237 4.13331C1.85237 3.48889 2.37828 2.96297 3.02271 2.96297H4.07455V3.7037C4.07455 4.11111 4.40786 4.44442 4.81527 4.44442C5.22269 4.44442 5.556 4.11111 5.556 3.7037V2.96297H14.4449V3.7037C14.4449 4.11111 14.7782 4.44442 15.1856 4.44442C15.593 4.44442 15.9264 4.11111 15.9264 3.7037V2.96297H16.9782C17.6226 2.96297 18.1485 3.48889 18.1485 4.13331V14.0741H15.03C14.093 14.0741 13.3337 14.8333 13.3337 15.7704V18.5185H3.02271C2.37828 18.5185 1.85237 17.9926 1.85237 17.3482V4.13331Z" fill="#F8FAFC"/>
<path d="M5.74085 8.51844C6.25222 8.51844 6.66676 8.1039 6.66676 7.59253C6.66676 7.08117 6.25222 6.66663 5.74085 6.66663C5.22948 6.66663 4.81494 7.08117 4.81494 7.59253C4.81494 8.1039 5.22948 8.51844 5.74085 8.51844Z" fill="#F8FAFC"/>
<path d="M9.81507 8.51844C10.3264 8.51844 10.741 8.1039 10.741 7.59253C10.741 7.08117 10.3264 6.66663 9.81507 6.66663C9.3037 6.66663 8.88916 7.08117 8.88916 7.59253C8.88916 8.1039 9.3037 8.51844 9.81507 8.51844Z" fill="#F8FAFC"/>
<path d="M13.8895 8.51844C14.4009 8.51844 14.8154 8.1039 14.8154 7.59253C14.8154 7.08117 14.4009 6.66663 13.8895 6.66663C13.3782 6.66663 12.9636 7.08117 12.9636 7.59253C12.9636 8.1039 13.3782 8.51844 13.8895 8.51844Z" fill="#F8FAFC"/>
<path d="M5.74085 12.2222C6.25222 12.2222 6.66676 11.8076 6.66676 11.2963C6.66676 10.7849 6.25222 10.3704 5.74085 10.3704C5.22948 10.3704 4.81494 10.7849 4.81494 11.2963C4.81494 11.8076 5.22948 12.2222 5.74085 12.2222Z" fill="#F8FAFC"/>
<path d="M9.81507 12.2222C10.3264 12.2222 10.741 11.8076 10.741 11.2963C10.741 10.7849 10.3264 10.3704 9.81507 10.3704C9.3037 10.3704 8.88916 10.7849 8.88916 11.2963C8.88916 11.8076 9.3037 12.2222 9.81507 12.2222Z" fill="#F8FAFC"/>
<path d="M13.8895 12.2222C14.4009 12.2222 14.8154 11.8076 14.8154 11.2963C14.8154 10.7849 14.4009 10.3704 13.8895 10.3704C13.3782 10.3704 12.9636 10.7849 12.9636 11.2963C12.9636 11.8076 13.3782 12.2222 13.8895 12.2222Z" fill="#F8FAFC"/>
<path d="M5.74085 15.9259C6.25222 15.9259 6.66676 15.5114 6.66676 15C6.66676 14.4886 6.25222 14.0741 5.74085 14.0741C5.22948 14.0741 4.81494 14.4886 4.81494 15C4.81494 15.5114 5.22948 15.9259 5.74085 15.9259Z" fill="#F8FAFC"/>
<path d="M9.81507 15.9259C10.3264 15.9259 10.741 15.5114 10.741 15C10.741 14.4886 10.3264 14.0741 9.81507 14.0741C9.3037 14.0741 8.88916 14.4886 8.88916 15C8.88916 15.5114 9.3037 15.9259 9.81507 15.9259Z" fill="#F8FAFC"/>
</svg>
