<svg width="20" height="20" viewBox="0 0 20 20" fill="none" xmlns="http://www.w3.org/2000/svg">
<path d="M11.2077 11.5512C11.2353 11.6545 11.25 11.763 11.25 11.875C11.25 12.5654 10.6904 13.125 10 13.125C9.30963 13.125 8.75 12.5654 8.75 11.875C8.75 11.1846 9.30963 10.625 10 10.625C10.112 10.625 10.2205 10.6397 10.3237 10.6673L11.4331 9.55805C11.6771 9.31398 12.0729 9.31398 12.3169 9.55805C12.561 9.80211 12.561 10.1979 12.3169 10.4419L11.2077 11.5512Z" fill="white"/>
<path d="M10 5.625C10.3452 5.625 10.625 5.90482 10.625 6.25V6.875C10.625 7.22019 10.3452 7.5 10 7.5C9.65481 7.5 9.375 7.22019 9.375 6.875V6.25C9.375 5.90482 9.65481 5.625 10 5.625Z" fill="white"/>
<path d="M15.625 12.5C15.9702 12.5 16.25 12.2202 16.25 11.875C16.25 11.5298 15.9702 11.25 15.625 11.25H15C14.6548 11.25 14.375 11.5298 14.375 11.875C14.375 12.2202 14.6548 12.5 15 12.5H15.625Z" fill="white"/>
<path d="M3.75 11.875C3.75 11.5298 4.02983 11.25 4.375 11.25H5C5.34518 11.25 5.625 11.5298 5.625 11.875C5.625 12.2202 5.34518 12.5 5 12.5H4.375C4.02983 12.5 3.75 12.2202 3.75 11.875Z" fill="white"/>
<path d="M13.8794 8.87946L14.3214 8.43753C14.5654 8.19346 14.5654 7.79771 14.3214 7.55365C14.0773 7.30959 13.6815 7.30959 13.4375 7.55365L12.9955 7.99559C12.7515 8.23965 12.7515 8.6354 12.9955 8.87946C13.2396 9.12353 13.6354 9.12353 13.8794 8.87946Z" fill="white"/>
<path d="M6.82139 8.87946C7.06545 8.6354 7.06545 8.23965 6.82139 7.99559L6.37945 7.55365C6.13537 7.30959 5.73964 7.30959 5.49556 7.55365C5.25148 7.79771 5.25148 8.19346 5.49556 8.43753L5.9375 8.87946C6.18158 9.12353 6.57732 9.12353 6.82139 8.87946Z" fill="white"/>
<path fill-rule="evenodd" clip-rule="evenodd" d="M10 3.75C5.51269 3.75 1.875 7.38769 1.875 11.875C1.875 12.9282 2.0757 13.936 2.44151 14.8612C2.63267 15.3447 3.09989 15.625 3.58088 15.625H16.4191C16.9001 15.625 17.3673 15.3447 17.5585 14.8612C17.9243 13.936 18.125 12.9282 18.125 11.875C18.125 7.38769 14.4873 3.75 10 3.75ZM3.125 11.875C3.125 8.07806 6.20304 5 10 5C13.7969 5 16.875 8.07806 16.875 11.875C16.875 12.7581 16.7088 13.601 16.4065 14.375H3.59349C3.29121 13.601 3.125 12.7581 3.125 11.875Z" fill="white"/>
</svg>
