<svg width="24" height="25" viewBox="0 0 24 25" fill="none" xmlns="http://www.w3.org/2000/svg">
<path fill-rule="evenodd" clip-rule="evenodd" d="M12 21.6886L12.7211 20.876C13.5394 19.9389 14.2754 19.0498 14.9303 18.204L15.4708 17.4909C17.728 14.4497 18.8571 12.036 18.8571 10.252C18.8571 6.44403 15.7874 3.35718 12 3.35718C8.21254 3.35718 5.14282 6.44403 5.14282 10.252C5.14282 12.036 6.27197 14.4497 8.52911 17.4909L9.06968 18.204C10.0039 19.4011 10.9813 20.5626 12 21.6886Z" stroke="white" stroke-width="1.14286" stroke-linecap="round" stroke-linejoin="round"/>
<path d="M12 13.0715C13.5779 13.0715 14.8571 11.7923 14.8571 10.2143C14.8571 8.63636 13.5779 7.35718 12 7.35718C10.422 7.35718 9.14282 8.63636 9.14282 10.2143C9.14282 11.7923 10.422 13.0715 12 13.0715Z" stroke="white" stroke-width="1.14286" stroke-linecap="round" stroke-linejoin="round"/>
</svg>
