<svg width="31" height="30" viewBox="0 0 31 30" fill="none" xmlns="http://www.w3.org/2000/svg">
<g clip-path="url(#clip0_1_313)">
<path d="M28.5052 15.3885C28.3844 15.1416 28.3844 14.8583 28.5052 14.6114L29.6241 12.3225C30.247 11.048 29.7534 9.52897 28.5003 8.86412L26.2498 7.66998C26.007 7.54119 25.8405 7.31198 25.793 7.04133L25.3528 4.53184C25.1077 3.13462 23.8153 2.19572 22.411 2.39441L19.8883 2.75124C19.6161 2.78968 19.3468 2.70214 19.1493 2.51107L17.3182 0.739671C16.2986 -0.24669 14.7014 -0.246749 13.6818 0.739671L11.8507 2.51124C11.6531 2.70237 11.3839 2.78974 11.1116 2.75142L8.58902 2.39458C7.18424 2.19578 5.89226 3.13479 5.64716 4.53201L5.20701 7.04139C5.15949 7.31209 4.99302 7.54125 4.75027 7.6701L2.4997 8.86423C1.24662 9.52903 0.75303 11.0482 1.37599 12.3226L2.49484 14.6115C2.61554 14.8585 2.61554 15.1418 2.49484 15.3887L1.37594 17.6776C0.752971 18.952 1.24656 20.4711 2.49964 21.1359L4.75021 22.3301C4.99302 22.4588 5.15949 22.6881 5.20701 22.9587L5.64716 25.4682C5.87029 26.7401 6.96094 27.6322 8.21443 27.6321C8.33789 27.6321 8.46316 27.6234 8.58908 27.6056L11.1117 27.2487C11.3837 27.2101 11.6532 27.2978 11.8507 27.4889L13.6818 29.2603C14.1917 29.7535 14.8457 30.0001 15.5 30C16.1541 30 16.8085 29.7534 17.3181 29.2603L19.1493 27.4889C19.3469 27.2978 19.6162 27.2105 19.8883 27.2487L22.411 27.6056C23.8159 27.8043 25.1077 26.8654 25.3528 25.4681L25.793 22.9588C25.8406 22.6881 26.007 22.4589 26.2498 22.3301L28.5003 21.1359C29.7534 20.4711 30.247 18.952 29.6241 17.6775L28.5052 15.3885ZM27.6894 19.6074L25.4388 20.8015C24.7212 21.1823 24.2291 21.8595 24.0888 22.6597L23.6486 25.1691C23.5657 25.6419 23.1287 25.9594 22.6533 25.8923L20.1307 25.5355C19.3262 25.4215 18.5302 25.6804 17.9463 26.2452L16.1151 28.0165C15.7702 28.3502 15.2298 28.3502 14.8848 28.0165L13.0537 26.2451C12.5602 25.7678 11.9151 25.5091 11.2417 25.5091C11.1183 25.5091 10.9939 25.5178 10.8693 25.5354L8.34668 25.8922C7.87172 25.9594 7.43432 25.6418 7.35135 25.1691L6.91114 22.6596C6.77075 21.8594 6.27868 21.1821 5.56109 20.8015L3.31051 19.6073C2.88653 19.3824 2.71954 18.8685 2.9303 18.4373L4.0492 16.1483C4.40592 15.4185 4.40592 14.5814 4.0492 13.8516L2.9303 11.5626C2.71954 11.1314 2.88653 10.6175 3.31051 10.3926L5.56109 9.19845C6.27862 8.81765 6.77075 8.14043 6.91108 7.34028L7.35123 4.83084C7.4342 4.35811 7.87119 4.04053 8.34656 4.10768L10.8692 4.46451C11.6734 4.57836 12.4697 4.31955 13.0536 3.75477L14.8848 1.98337C15.2296 1.64974 15.7701 1.64974 16.115 1.98337L17.9462 3.75477C18.53 4.31961 19.3263 4.57836 20.1306 4.46451L22.6532 4.10768C23.1282 4.04047 23.5656 4.35811 23.6485 4.83084L24.0887 7.34034C24.2291 8.14049 24.7211 8.81777 25.4387 9.19845L27.6893 10.3926C28.1133 10.6175 28.2803 11.1314 28.0695 11.5626L26.9506 13.8515C26.5939 14.5813 26.5939 15.4185 26.9506 16.1483L28.0695 18.4372C28.2803 18.8685 28.1133 19.3825 27.6894 19.6074Z" fill="#007892"/>
<path d="M21.8214 8.67862C21.4836 8.34077 20.9357 8.34077 20.5979 8.67862L9.17868 20.0979C8.84083 20.4357 8.84083 20.9835 9.17868 21.3214C9.3476 21.4903 9.56903 21.5748 9.7904 21.5748C10.0118 21.5748 10.2332 21.4904 10.4021 21.3214L21.8213 9.90217C22.1593 9.56426 22.1593 9.01653 21.8214 8.67862Z" fill="#007892"/>
<path d="M12.0394 7.21378C10.2902 7.21378 8.86719 8.63683 8.86719 10.386C8.86719 12.1351 10.2902 13.5582 12.0394 13.5582C13.7885 13.5582 15.2116 12.1351 15.2116 10.386C15.2116 8.63683 13.7885 7.21378 12.0394 7.21378ZM12.0394 11.8278C11.2443 11.8278 10.5975 11.181 10.5975 10.3859C10.5975 9.59085 11.2443 8.94404 12.0394 8.94404C12.8344 8.94404 13.4813 9.59085 13.4813 10.3859C13.4812 11.181 12.8344 11.8278 12.0394 11.8278Z" fill="#007892"/>
<path d="M18.9605 16.4419C17.2114 16.4419 15.7883 17.865 15.7883 19.6141C15.7883 21.3632 17.2114 22.7863 18.9605 22.7863C20.7096 22.7863 22.1327 21.3632 22.1327 19.6141C22.1327 17.865 20.7096 16.4419 18.9605 16.4419ZM18.9605 21.0559C18.1655 21.0559 17.5186 20.4091 17.5186 19.6141C17.5186 18.819 18.1654 18.1722 18.9605 18.1722C19.7556 18.1722 20.4024 18.819 20.4024 19.6141C20.4024 20.4091 19.7556 21.0559 18.9605 21.0559Z" fill="#007892"/>
</g>
<defs>
<clipPath id="clip0_1_313">
<rect width="30" height="30" fill="white" transform="translate(0.5)"/>
</clipPath>
</defs>
</svg>
