<svg width="30" height="30" viewBox="0 0 30 30" fill="none" xmlns="http://www.w3.org/2000/svg">
<g clip-path="url(#clip0_1_350)">
<path d="M17.6214 16.565C17.4526 16.6238 17.3281 16.7681 17.2946 16.9436C17.2612 17.1191 17.3239 17.2991 17.4591 17.4158C17.5944 17.5326 17.7816 17.5683 17.9504 17.5095C22.1031 16.0702 24.6097 11.8427 23.8799 7.50861C23.1501 3.17449 19.3975 0.000854492 15.0024 0.000854492C10.6072 0.000854492 6.85457 3.17449 6.12482 7.50861C5.39507 11.8427 7.90157 16.0702 12.0544 17.5095C12.3153 17.6002 12.6004 17.4622 12.6911 17.2012C12.7818 16.9403 12.6438 16.6552 12.3829 16.5645C11.5184 16.2628 10.7123 15.8146 9.99986 15.2395V14.695C9.99782 13.1353 10.9582 11.7359 12.4144 11.177C13.9634 12.2744 16.0364 12.2744 17.5854 11.177C19.0415 11.7359 20.0019 13.1353 19.9999 14.695V15.2415C19.2887 15.8156 18.4841 16.2633 17.6214 16.565ZM11.4999 7.49999C11.4999 5.56699 13.0669 3.99999 14.9999 3.99999C16.9329 3.99999 18.4999 5.56699 18.4999 7.49999C18.4999 9.43299 16.9329 11 14.9999 11C13.0678 10.9978 11.5021 9.43207 11.4999 7.49999ZM18.3999 10.4365C19.9719 8.62088 19.8411 5.89079 18.1028 4.23372C16.3645 2.57665 13.6312 2.57665 11.8929 4.23372C10.1546 5.89079 10.0238 8.62088 11.5959 10.4365C10.1236 11.1892 9.147 12.6516 9.01586 14.3C6.16557 11.0877 6.3601 6.19794 9.45658 3.2222C12.5531 0.246464 17.4467 0.246464 20.5431 3.2222C23.6396 6.19794 23.8341 11.0877 20.9839 14.3C20.8523 12.6507 19.8739 11.1879 18.3999 10.4365Z" fill="#007892"/>
<path d="M10.6999 29.8055C11.0056 30.0311 11.4133 30.0624 11.7499 29.886L15.0034 28.1955L18.2564 29.8865C18.5937 30.0619 19.0014 30.0308 19.3082 29.8062C19.615 29.5817 19.768 29.2026 19.7029 28.828L19.0849 25.262L21.6999 22.7415C21.9746 22.4767 22.0747 22.0786 21.9578 21.7153C21.8409 21.352 21.5275 21.087 21.1499 21.032L17.5199 20.5105L15.8999 17.254C15.7317 16.913 15.3836 16.6979 15.0034 16.7C14.6243 16.6986 14.2774 16.9129 14.1089 17.2525L12.4799 20.5105L8.8579 21.0315C8.48007 21.0863 8.16642 21.3515 8.04952 21.7149C7.93263 22.0784 8.03287 22.4767 8.3079 22.7415L10.9239 25.262L10.3054 28.828C10.2393 29.2024 10.3924 29.5818 10.6999 29.8055ZM8.9999 22.0215L12.8809 21.463C13.0431 21.4397 13.1835 21.3385 13.2569 21.192L15.0029 17.7L16.7414 21.191C16.8146 21.338 16.9553 21.4397 17.1179 21.463L21.0069 22.0215L18.1999 24.726C18.0805 24.8412 18.026 25.0081 18.0544 25.1715L18.7179 29L15.2344 27.1895C15.0899 27.1144 14.9179 27.1144 14.7734 27.1895L11.2894 29L11.9529 25.1725C11.9813 25.0091 11.9268 24.8422 11.8074 24.727L8.9999 22.0215Z" fill="#007892"/>
<path d="M2.34991 22.111L1.86141 24.9355C1.81426 25.1988 1.88603 25.4695 2.05746 25.6749C2.22888 25.8803 2.48239 25.9993 2.74991 26C2.89597 25.9997 3.03984 25.9644 3.16941 25.897L5.74991 24.554L8.32891 25.9C8.48736 25.9825 8.6778 25.9742 8.82849 25.8783C8.97919 25.7823 9.06725 25.6133 9.05949 25.4348C9.05174 25.2563 8.94936 25.0955 8.79091 25.013L5.98091 23.548C5.83614 23.4726 5.66368 23.4726 5.51891 23.548L2.88041 24.9225L3.38041 22.0225C3.40882 21.859 3.35431 21.6921 3.23491 21.577L1.11141 19.527L4.04991 19.105C4.21217 19.0816 4.35267 18.9801 4.42591 18.8335L5.74991 16.1865L7.06891 18.833C7.14223 18.9801 7.28317 19.0818 7.44591 19.105L10.5854 19.555C10.8588 19.5941 11.1121 19.4041 11.1512 19.1307C11.1902 18.8573 11.0003 18.6041 10.7269 18.565L7.84691 18.1525L6.55841 15.5665C6.40577 15.2588 6.09135 15.0648 5.74791 15.0665H5.74491C5.40522 15.0658 5.0948 15.2586 4.94491 15.5635L3.64991 18.1525L0.77841 18.5645C0.434642 18.6103 0.147793 18.8496 0.0410407 19.1796C-0.0657115 19.5095 0.0266294 19.8715 0.27841 20.11L2.34991 22.111Z" fill="#007892"/>
<path d="M29.955 19.178C29.8506 18.8497 29.5663 18.611 29.225 18.565L26.35 18.1525L25.058 15.564C24.9086 15.2583 24.5982 15.0643 24.258 15.064H24.255C23.9114 15.0622 23.5967 15.2562 23.444 15.564L22.156 18.1495L19.2755 18.562C19.0986 18.5873 18.9487 18.705 18.8822 18.8707C18.8156 19.0365 18.8426 19.2252 18.9529 19.3658C19.0632 19.5063 19.2401 19.5773 19.417 19.552L22.557 19.102C22.7197 19.0788 22.8607 18.9771 22.934 18.83L24.25 16.1865L25.5715 18.8335C25.6447 18.9801 25.7852 19.0816 25.9475 19.105L28.8845 19.5265L26.761 21.5765C26.6416 21.6916 26.5871 21.8585 26.6155 22.022L27.118 24.922L24.4795 23.546C24.3347 23.4706 24.1622 23.4706 24.0175 23.546L21.2075 25.011C21.049 25.0935 20.9466 25.2543 20.9389 25.4328C20.9311 25.6113 21.0192 25.7803 21.1699 25.8763C21.3206 25.9722 21.511 25.9805 21.6695 25.898L24.25 24.554L26.83 25.9C27.1354 26.0586 27.5043 26.0302 27.7817 25.8265C28.0591 25.6229 28.1969 25.2794 28.137 24.9405L27.65 22.111L29.723 20.111C29.9739 19.8708 30.0641 19.5077 29.955 19.178Z" fill="#007892"/>
<path d="M12.25 23.5695C12.2741 23.5694 12.2981 23.5675 12.322 23.564L14.2025 23.2935C14.3646 23.2702 14.5051 23.169 14.5785 23.0225L15.4485 21.283C15.5727 21.0358 15.4731 20.7348 15.226 20.6105C14.9788 20.4862 14.6777 20.5858 14.5535 20.833L13.8035 22.3385L12.181 22.572C11.9211 22.609 11.7341 22.8407 11.7528 23.1026C11.7714 23.3644 11.9894 23.5672 12.252 23.567L12.25 23.5695Z" fill="#007892"/>
</g>
<defs>
<clipPath id="clip0_1_350">
<rect width="30" height="30" fill="white"/>
</clipPath>
</defs>
</svg>
