<svg width="30" height="30" viewBox="0 0 30 30" fill="none" xmlns="http://www.w3.org/2000/svg">
<g clip-path="url(#clip0_1_338)">
<path d="M19.6875 19.6875C19.6875 19.1902 19.49 18.7133 19.1383 18.3617C18.7867 18.0101 18.3098 17.8125 17.8125 17.8125H11.7797L12.1875 14.5875C12.1898 14.5688 12.1898 14.5499 12.1875 14.5313C12.1875 11.9344 10.35 11.25 9.375 11.25C9.26979 11.2461 9.16633 11.2778 9.0813 11.3398C8.99627 11.4019 8.9346 11.4908 8.90625 11.5922L7.03125 18.1031C6.71629 18.7242 6.22776 19.2404 5.625 19.5891V19.2188C5.625 19.0944 5.57561 18.9752 5.48771 18.8873C5.3998 18.7994 5.28057 18.75 5.15625 18.75H0.46875C0.34443 18.75 0.225201 18.7994 0.137294 18.8873C0.049386 18.9752 0 19.0944 0 19.2188L0 29.5313C0 29.6556 0.049386 29.7748 0.137294 29.8627C0.225201 29.9506 0.34443 30 0.46875 30H5.15625C5.28057 30 5.3998 29.9506 5.48771 29.8627C5.57561 29.7748 5.625 29.6556 5.625 29.5313V29.2172L8.31094 30C8.35282 30.0072 8.39562 30.0072 8.4375 30H16.4062C16.7614 29.995 17.1078 29.8892 17.4051 29.695C17.7025 29.5008 17.9385 29.2262 18.0859 28.903C18.2332 28.5799 18.2857 28.2215 18.2373 27.8697C18.1889 27.5179 18.0416 27.187 17.8125 26.9156C18.0447 26.7759 18.2438 26.5875 18.3962 26.3633C18.5486 26.1392 18.6505 25.8847 18.6951 25.6174C18.7396 25.3501 18.7257 25.0763 18.6543 24.8149C18.5828 24.5535 18.4556 24.3106 18.2812 24.1031C18.5134 23.9634 18.7126 23.775 18.8649 23.5508C19.0173 23.3267 19.1193 23.0722 19.1638 22.8049C19.2084 22.5376 19.1945 22.2638 19.123 22.0024C19.0516 21.741 18.9243 21.4981 18.75 21.2906C19.032 21.1278 19.2668 20.8944 19.4312 20.6133C19.5956 20.3322 19.6839 20.0131 19.6875 19.6875ZM4.6875 29.0625H0.9375V19.6875H4.6875V29.0625ZM16.4062 29.0625H8.50312L5.625 28.2422V20.5688C7.03125 20.2453 7.87969 18.5719 7.91719 18.4922C7.93014 18.4649 7.94111 18.4367 7.95 18.4078L9.71719 12.2297C10.2656 12.3516 11.2406 12.8063 11.25 14.5031L10.7812 18.225C10.7732 18.2904 10.7791 18.3568 10.7985 18.4198C10.8179 18.4828 10.8503 18.541 10.8938 18.5906C10.9382 18.6412 10.993 18.6817 11.0545 18.7092C11.116 18.7367 11.1827 18.7506 11.25 18.75H17.8125C18.0611 18.75 18.2996 18.8488 18.4754 19.0246C18.6512 19.2004 18.75 19.4389 18.75 19.6875C18.75 19.9362 18.6512 20.1746 18.4754 20.3504C18.2996 20.5262 18.0611 20.625 17.8125 20.625H15.4688C15.3444 20.625 15.2252 20.6744 15.1373 20.7623C15.0494 20.8502 15 20.9694 15 21.0938C15 21.2181 15.0494 21.3373 15.1373 21.4252C15.2252 21.5131 15.3444 21.5625 15.4688 21.5625H17.3438C17.5924 21.5625 17.8308 21.6613 18.0067 21.8371C18.1825 22.0129 18.2812 22.2514 18.2812 22.5C18.2812 22.7487 18.1825 22.9871 18.0067 23.1629C17.8308 23.3387 17.5924 23.4375 17.3438 23.4375H15C14.8757 23.4375 14.7565 23.4869 14.6685 23.5748C14.5806 23.6627 14.5312 23.7819 14.5312 23.9063C14.5312 24.0306 14.5806 24.1498 14.6685 24.2377C14.7565 24.3256 14.8757 24.375 15 24.375H16.875C17.1236 24.375 17.3621 24.4738 17.5379 24.6496C17.7137 24.8254 17.8125 25.0639 17.8125 25.3125C17.8125 25.5612 17.7137 25.7996 17.5379 25.9754C17.3621 26.1512 17.1236 26.25 16.875 26.25H14.5312C14.4069 26.25 14.2877 26.2994 14.1998 26.3873C14.1119 26.4752 14.0625 26.5944 14.0625 26.7188C14.0625 26.8431 14.1119 26.9623 14.1998 27.0502C14.2877 27.1381 14.4069 27.1875 14.5312 27.1875H16.4062C16.6549 27.1875 16.8933 27.2863 17.0692 27.4621C17.245 27.6379 17.3438 27.8764 17.3438 28.125C17.3438 28.3737 17.245 28.6121 17.0692 28.7879C16.8933 28.9637 16.6549 29.0625 16.4062 29.0625Z" fill="#007892"/>
<path d="M6.09375 7.03125H6.5625V7.5C6.5625 7.62432 6.61189 7.74355 6.69979 7.83146C6.7877 7.91936 6.90693 7.96875 7.03125 7.96875C7.15557 7.96875 7.2748 7.91936 7.36271 7.83146C7.45061 7.74355 7.5 7.62432 7.5 7.5V7.03125H7.96875C8.09307 7.03125 8.2123 6.98186 8.30021 6.89396C8.38811 6.80605 8.4375 6.68682 8.4375 6.5625C8.4375 6.43818 8.38811 6.31895 8.30021 6.23104C8.2123 6.14314 8.09307 6.09375 7.96875 6.09375H7.5V5.625C7.5 5.50068 7.45061 5.38145 7.36271 5.29354C7.2748 5.20564 7.15557 5.15625 7.03125 5.15625C6.90693 5.15625 6.7877 5.20564 6.69979 5.29354C6.61189 5.38145 6.5625 5.50068 6.5625 5.625V6.09375H6.09375C5.96943 6.09375 5.8502 6.14314 5.76229 6.23104C5.67439 6.31895 5.625 6.43818 5.625 6.5625C5.625 6.68682 5.67439 6.80605 5.76229 6.89396C5.8502 6.98186 5.96943 7.03125 6.09375 7.03125Z" fill="#007892"/>
<path d="M25.3125 23.4375H24.8438V22.9688C24.8438 22.8444 24.7944 22.7252 24.7065 22.6373C24.6185 22.5494 24.4993 22.5 24.375 22.5C24.2507 22.5 24.1315 22.5494 24.0435 22.6373C23.9556 22.7252 23.9062 22.8444 23.9062 22.9688V23.4375H23.4375C23.3132 23.4375 23.194 23.4869 23.106 23.5748C23.0181 23.6627 22.9688 23.7819 22.9688 23.9062C22.9688 24.0306 23.0181 24.1498 23.106 24.2377C23.194 24.3256 23.3132 24.375 23.4375 24.375H23.9062V24.8438C23.9062 24.9681 23.9556 25.0873 24.0435 25.1752C24.1315 25.2631 24.2507 25.3125 24.375 25.3125C24.4993 25.3125 24.6185 25.2631 24.7065 25.1752C24.7944 25.0873 24.8438 24.9681 24.8438 24.8438V24.375H25.3125C25.4368 24.375 25.556 24.3256 25.644 24.2377C25.7319 24.1498 25.7812 24.0306 25.7812 23.9062C25.7812 23.7819 25.7319 23.6627 25.644 23.5748C25.556 23.4869 25.4368 23.4375 25.3125 23.4375Z" fill="#007892"/>
<path d="M19.6875 -2.6793e-07C16.9525 -2.6793e-07 14.3294 1.08649 12.3955 3.02046C10.4615 4.95443 9.375 7.57745 9.375 10.3125C9.375 10.4368 9.42439 10.556 9.51229 10.644C9.6002 10.7319 9.71943 10.7812 9.84375 10.7812C9.96807 10.7812 10.0873 10.7319 10.1752 10.644C10.2631 10.556 10.3125 10.4368 10.3125 10.3125C10.3131 8.53488 10.819 6.79405 11.7713 5.29303C12.7236 3.79202 14.0831 2.59269 15.6911 1.83491C17.2991 1.07714 19.0894 0.792153 20.8532 1.01319C22.6171 1.23423 24.2817 1.95219 25.653 3.08332C27.0243 4.21446 28.0458 5.71216 28.5982 7.40175C29.1507 9.09134 29.2114 10.9032 28.7733 12.626C28.3352 14.3488 27.4163 15.9115 26.1238 17.1319C24.8313 18.3523 23.2185 19.1801 21.4734 19.5187C21.3491 19.5306 21.2346 19.5913 21.155 19.6875C21.0755 19.7838 21.0374 19.9077 21.0492 20.032C21.061 20.1564 21.1217 20.2709 21.218 20.3504C21.3143 20.43 21.4382 20.4681 21.5625 20.4562H21.6516C24.1927 19.9916 26.4669 18.5902 28.0243 16.5292C29.5818 14.4682 30.309 11.8978 30.0621 9.32632C29.8152 6.75488 28.6122 4.36975 26.6911 2.64274C24.7699 0.915726 22.2706 -0.0273728 19.6875 -2.6793e-07Z" fill="#007892"/>
<path d="M23.9062 12.1875C23.9062 11.1929 23.5112 10.2391 22.8079 9.53585C22.1046 8.83259 21.1508 8.4375 20.1562 8.4375H19.2188C18.9701 8.4375 18.7317 8.33873 18.5558 8.16291C18.38 7.9871 18.2812 7.74864 18.2812 7.5C18.2812 7.25136 18.38 7.0129 18.5558 6.83709C18.7317 6.66127 18.9701 6.5625 19.2188 6.5625H22.5C22.873 6.5625 23.2306 6.41434 23.4944 6.15062C23.7581 5.8869 23.9062 5.52921 23.9062 5.15625C23.9062 4.78329 23.7581 4.4256 23.4944 4.16188C23.2306 3.89816 22.873 3.75 22.5 3.75H21.0938V2.34375C21.0938 2.21943 21.0444 2.1002 20.9565 2.01229C20.8685 1.92439 20.7493 1.875 20.625 1.875H18.75C18.6257 1.875 18.5065 1.92439 18.4185 2.01229C18.3306 2.1002 18.2812 2.21943 18.2812 2.34375V3.87188C17.4 4.10219 16.6327 4.64537 16.1226 5.4C15.6125 6.15464 15.3946 7.06912 15.5094 7.97271C15.6242 8.87629 16.0639 9.7072 16.7465 10.3103C17.4291 10.9134 18.3079 11.2474 19.2188 11.25H20.1562C20.4049 11.25 20.6433 11.3488 20.8192 11.5246C20.995 11.7004 21.0938 11.9389 21.0938 12.1875C21.0938 12.4361 20.995 12.6746 20.8192 12.8504C20.6433 13.0262 20.4049 13.125 20.1562 13.125H16.875C16.502 13.125 16.1444 13.2732 15.8806 13.5369C15.6169 13.8006 15.4688 14.1583 15.4688 14.5312C15.4688 14.9042 15.6169 15.2619 15.8806 15.5256C16.1444 15.7893 16.502 15.9375 16.875 15.9375H18.2812V17.3438C18.2812 17.4681 18.3306 17.5873 18.4185 17.6752C18.5065 17.7631 18.6257 17.8125 18.75 17.8125H20.625C20.7493 17.8125 20.8685 17.7631 20.9565 17.6752C21.0444 17.5873 21.0938 17.4681 21.0938 17.3438V15.8156C21.8982 15.6079 22.611 15.1389 23.12 14.4822C23.6291 13.8255 23.9056 13.0184 23.9062 12.1875ZM20.5594 14.9672C20.4467 14.9831 20.3437 15.0394 20.2696 15.1257C20.1954 15.2119 20.1551 15.3222 20.1562 15.4359V16.875H19.2188V15.4688C19.2188 15.3444 19.1694 15.2252 19.0815 15.1373C18.9935 15.0494 18.8743 15 18.75 15H16.875C16.7507 15 16.6315 14.9506 16.5435 14.8627C16.4556 14.7748 16.4062 14.6556 16.4062 14.5312C16.4062 14.4069 16.4556 14.2877 16.5435 14.1998C16.6315 14.1119 16.7507 14.0625 16.875 14.0625H20.1562C20.6535 14.0625 21.1304 13.865 21.4821 13.5133C21.8337 13.1617 22.0312 12.6848 22.0312 12.1875C22.0312 11.6902 21.8337 11.2133 21.4821 10.8617C21.1304 10.51 20.6535 10.3125 20.1562 10.3125H19.2188C18.5121 10.3063 17.8337 10.0344 17.3184 9.55072C16.8032 9.06707 16.4889 8.40718 16.4381 7.70233C16.3873 6.99748 16.6037 6.29933 17.0442 5.74678C17.4848 5.19423 18.1172 4.82777 18.8156 4.72031C18.9283 4.70439 19.0313 4.64806 19.1054 4.56182C19.1796 4.47558 19.2199 4.36531 19.2188 4.25156V2.8125H20.1562V4.21875C20.1562 4.34307 20.2056 4.4623 20.2935 4.55021C20.3815 4.63811 20.5007 4.6875 20.625 4.6875H22.5C22.6243 4.6875 22.7435 4.73689 22.8315 4.82479C22.9194 4.9127 22.9688 5.03193 22.9688 5.15625C22.9688 5.28057 22.9194 5.3998 22.8315 5.48771C22.7435 5.57561 22.6243 5.625 22.5 5.625H19.2188C18.7215 5.625 18.2446 5.82254 17.8929 6.17417C17.5413 6.52581 17.3438 7.00272 17.3438 7.5C17.3438 7.99728 17.5413 8.47419 17.8929 8.82582C18.2446 9.17746 18.7215 9.375 19.2188 9.375H20.1562C20.8629 9.38117 21.5413 9.65313 22.0566 10.1368C22.5718 10.6204 22.8861 11.2803 22.9369 11.9852C22.9877 12.69 22.7713 13.3882 22.3308 13.9407C21.8902 14.4933 21.2578 14.8597 20.5594 14.9672Z" fill="#007892"/>
</g>
<defs>
<clipPath id="clip0_1_338">
<rect width="30" height="30" fill="white"/>
</clipPath>
</defs>
</svg>
