<svg width="30" height="30" viewBox="0 0 30 30" fill="none" xmlns="http://www.w3.org/2000/svg">
<g clip-path="url(#clip0_1_331)">
<path d="M0.234362 18.6318L3.53776 20.5389C3.59108 20.5697 3.64994 20.5897 3.71097 20.5977C3.77201 20.6057 3.83403 20.6016 3.89349 20.5857C3.95295 20.5697 4.00868 20.5422 4.05751 20.5047C4.10634 20.4673 4.14731 20.4205 4.17807 20.3672L4.29708 20.1611L6.21016 21.2811C6.16493 21.4438 6.14201 21.6118 6.14202 21.7806C6.1411 22.0231 6.18827 22.2633 6.2808 22.4873C6.37333 22.7114 6.50938 22.9149 6.68108 23.0861C6.85239 23.2576 7.0559 23.3936 7.27992 23.4862C7.50395 23.5789 7.74407 23.6264 7.98649 23.6259C8.02206 23.6259 8.05768 23.6245 8.09325 23.6225C8.09126 23.6577 8.08997 23.6929 8.08997 23.7286C8.08944 23.971 8.13679 24.211 8.2293 24.4351C8.32181 24.6591 8.45765 24.8626 8.62903 25.034C8.80041 25.2054 9.00395 25.3412 9.22797 25.4337C9.45199 25.5262 9.69207 25.5736 9.93444 25.5731C9.97018 25.5731 10.0057 25.5718 10.0412 25.5698C10.0392 25.6052 10.0379 25.6408 10.0379 25.6765C10.0373 25.9189 10.0847 26.159 10.1772 26.383C10.2697 26.6071 10.4055 26.8106 10.5769 26.982C10.7483 27.1534 10.9518 27.2892 11.1758 27.3817C11.3999 27.4742 11.64 27.5216 11.8823 27.5211C12.0121 27.521 12.1416 27.5075 12.2686 27.4806C12.3275 27.8423 12.5133 28.1711 12.7927 28.4081C13.0721 28.6451 13.4268 28.7748 13.7932 28.7739C13.9785 28.7741 14.1623 28.7411 14.3359 28.6765L14.429 28.7695C14.6299 28.9708 14.8825 29.1126 15.1588 29.1796C15.4351 29.2465 15.7246 29.2359 15.9953 29.1489C16.266 29.0619 16.5074 28.9019 16.6931 28.6865C16.8787 28.4711 17.0013 28.2087 17.0473 27.9281C17.1742 27.9552 17.3036 27.969 17.4334 27.9691C17.6848 27.9695 17.9336 27.9183 18.1645 27.8189C18.3954 27.7195 18.6035 27.5739 18.776 27.391C18.9485 27.2082 19.0818 26.992 19.1677 26.7557C19.2536 26.5194 19.2902 26.2681 19.2753 26.0171C19.3104 26.0191 19.3456 26.0204 19.3813 26.0204C19.6327 26.0209 19.8815 25.9699 20.1125 25.8706C20.3434 25.7713 20.5516 25.6258 20.7241 25.443C20.8967 25.2602 21.03 25.044 21.1158 24.8077C21.2017 24.5715 21.2383 24.3201 21.2233 24.0692C21.2584 24.0712 21.2936 24.0724 21.3293 24.0724C21.6674 24.0721 21.9988 23.979 22.2875 23.8032C22.5763 23.6274 22.8112 23.3758 22.9667 23.0757C23.1223 22.7755 23.1924 22.4385 23.1696 22.1012C23.1467 21.764 23.0317 21.4395 22.8371 21.1631L25.423 19.6763L25.8219 20.3672C25.8841 20.4748 25.9864 20.5534 26.1065 20.5856C26.2266 20.6178 26.3546 20.6009 26.4622 20.5388L29.7656 18.6318C29.8733 18.5696 29.9518 18.4672 29.984 18.3471C30.0162 18.2271 29.9993 18.0991 29.9372 17.9914L25.6047 10.4874C25.5425 10.3798 25.4402 10.3012 25.3201 10.269C25.2 10.2369 25.0721 10.2537 24.9644 10.3158L21.661 12.2231C21.5534 12.2852 21.4748 12.3876 21.4427 12.5077C21.4105 12.6278 21.4273 12.7557 21.4895 12.8634L21.8726 13.527L21.325 13.7344C21.0738 13.8349 20.7945 13.8406 20.5394 13.7503L16.8881 12.5332C16.6855 12.4639 16.4711 12.4357 16.2574 12.4502C16.0438 12.4648 15.8352 12.5218 15.6439 12.618L14.9173 12.9762C14.9105 12.9721 14.9038 12.9677 14.8966 12.9639L14.0311 12.5068C13.7979 12.3819 13.5378 12.3157 13.2732 12.3141C13.0086 12.3125 12.7477 12.3755 12.513 12.4976L11.3576 13.0894C11.27 13.1384 11.1716 13.1647 11.0712 13.1661L8.31731 13.1976L8.51032 12.8632C8.57248 12.7555 8.58932 12.6276 8.55715 12.5075C8.52497 12.3874 8.44642 12.2851 8.33876 12.2229L5.03553 10.3158C4.92788 10.2537 4.79995 10.2369 4.67988 10.269C4.55981 10.3012 4.45744 10.3798 4.39528 10.4874L0.0627996 17.9914C0.00064227 18.0991 -0.0162021 18.2271 0.0159719 18.3471C0.0481459 18.4672 0.126703 18.5696 0.234362 18.6318ZM7.34395 22.4234C7.17449 22.2524 7.07941 22.0215 7.07941 21.7808C7.07941 21.5401 7.17449 21.3092 7.34395 21.1383L8.99231 19.4899C9.16293 19.3205 9.39376 19.2256 9.63422 19.226C9.87469 19.2264 10.1052 19.3221 10.2752 19.4922C10.4452 19.6622 10.5409 19.8927 10.5413 20.1332C10.5417 20.3737 10.4467 20.6045 10.2773 20.7751L8.62903 22.4234C8.45847 22.5935 8.2274 22.689 7.98649 22.689C7.74559 22.689 7.51451 22.5935 7.34395 22.4234ZM9.29196 24.3713C9.12257 24.2005 9.02749 23.9696 9.02742 23.7291C9.02734 23.4885 9.12227 23.2576 9.29155 23.0866L9.29196 23.0862L10.9403 21.4379C11.1112 21.2696 11.3416 21.1757 11.5814 21.1766C11.8212 21.1775 12.0509 21.2732 12.2205 21.4428C12.3901 21.6123 12.4857 21.8421 12.4866 22.0819C12.4876 22.3217 12.3936 22.5521 12.2253 22.7229L10.577 24.3713C10.4064 24.5415 10.1754 24.637 9.93447 24.637C9.69357 24.637 9.4625 24.5415 9.29196 24.3713ZM11.2399 26.3193C11.0697 26.1487 10.9742 25.9176 10.9742 25.6767C10.9742 25.4358 11.0697 25.2047 11.2399 25.0342L12.8882 23.3859C13.0586 23.2155 13.2898 23.1197 13.5307 23.1197C13.7717 23.1197 14.0029 23.2155 14.1733 23.3859C14.3437 23.5563 14.4394 23.7874 14.4394 24.0284C14.4394 24.2694 14.3437 24.5005 14.1733 24.671C14.1576 24.6869 14.143 24.704 14.1298 24.722C14.0805 24.7604 14.0337 24.8017 13.9895 24.8457L12.6997 26.1354C12.6556 26.1797 12.6142 26.2267 12.5757 26.276C12.5578 26.2892 12.5408 26.3037 12.5249 26.3194C12.3544 26.4895 12.1233 26.5851 11.8824 26.585C11.6415 26.585 11.4104 26.4894 11.2399 26.3193ZM13.3628 27.6596C13.2486 27.5453 13.1845 27.3904 13.1845 27.2289C13.1845 27.0674 13.2486 26.9125 13.3628 26.7983L14.6524 25.5086C14.7666 25.3944 14.9215 25.3302 15.0831 25.3302C15.2446 25.3302 15.3995 25.3944 15.5137 25.5086C15.628 25.6228 15.6921 25.7777 15.6921 25.9393C15.6921 26.1008 15.628 26.2557 15.5137 26.3699L14.2241 27.6596C14.1095 27.7731 13.9547 27.8367 13.7934 27.8367C13.6321 27.8367 13.4774 27.7731 13.3628 27.6596ZM15.9531 28.1068C15.8398 28.2199 15.6865 28.2838 15.5264 28.2847C15.3664 28.2857 15.2123 28.2236 15.0977 28.1119L15.9583 27.2512C16.0701 27.3659 16.1322 27.52 16.1312 27.6801C16.1302 27.8402 16.0662 27.9935 15.9531 28.1068ZM18.0762 26.7666C17.9056 26.9367 17.6746 27.0322 17.4337 27.0322C17.1928 27.0322 16.9617 26.9367 16.7912 26.7666C16.7752 26.7508 16.7582 26.7363 16.7401 26.723C16.7017 26.6738 16.6604 26.627 16.6164 26.5828L16.5266 26.493C16.6091 26.2789 16.6428 26.0491 16.6252 25.8203C16.6077 25.5915 16.5394 25.3695 16.4253 25.1705C16.3112 24.9714 16.1542 24.8003 15.9657 24.6695C15.7771 24.5387 15.5618 24.4516 15.3354 24.4145C15.3866 24.1735 15.3895 23.9246 15.3438 23.6825C15.5163 23.5866 15.7154 23.5494 15.9109 23.5766C16.1065 23.6038 16.2879 23.6938 16.4277 23.8332L18.0762 25.4815C18.2463 25.6521 18.3419 25.8831 18.3419 26.1241C18.3419 26.365 18.2463 26.596 18.0762 26.7666ZM20.0242 24.8186C19.8532 24.988 19.6223 25.083 19.3817 25.083C19.141 25.083 18.9101 24.988 18.7392 24.8186L17.0908 23.1703C16.9254 22.9989 16.8339 22.7695 16.8359 22.5314C16.838 22.2933 16.9334 22.0654 17.1017 21.897C17.27 21.7285 17.4977 21.6328 17.7359 21.6306C17.974 21.6283 18.2035 21.7196 18.375 21.8848V21.8851L20.0233 23.5334C20.1936 23.7039 20.2893 23.935 20.2894 24.1759C20.2895 24.4169 20.194 24.648 20.0239 24.8186H20.0242ZM21.9721 22.8707C21.8015 23.0408 21.5705 23.1364 21.3296 23.1364C21.0887 23.1364 20.8577 23.0408 20.6872 22.8707L19.0387 21.2223C18.8705 21.0515 18.7765 20.821 18.7774 20.5812C18.7783 20.3414 18.874 20.1117 19.0436 19.9421C19.2131 19.7725 19.4429 19.6769 19.6827 19.676C19.9225 19.6751 20.1529 19.769 20.3238 19.9373L21.9719 21.5859C22.1413 21.7569 22.2364 21.9878 22.2364 22.2284C22.2364 22.4691 22.1413 22.7 21.9719 22.871L21.9721 22.8707ZM25.0275 11.3622L28.8912 18.0542L26.3997 19.4927L22.5357 12.8006L25.0275 11.3622ZM16.0584 13.459C16.1399 13.4163 16.2294 13.391 16.3211 13.3848C16.4129 13.3785 16.505 13.3914 16.5916 13.4227L20.2429 14.6398C20.7029 14.7975 21.2039 14.7874 21.6571 14.6112L22.3476 14.3496L24.9544 18.8646L22.1748 20.4628L20.9865 19.2744C20.8606 19.1485 20.7171 19.0415 20.5605 18.9569L16.8237 16.1555C16.5862 15.9777 16.3027 15.872 16.0069 15.8508L15.4578 15.8023C15.1503 15.7728 14.8408 15.8317 14.5657 15.9722C14.2906 16.1126 14.0614 16.3288 13.905 16.5952L13.1771 17.7922C13.1664 17.8124 13.1495 17.8286 13.1289 17.8386C13.1082 17.8485 13.085 17.8517 13.0625 17.8475L11.955 17.708C11.9383 17.7059 11.9222 17.7002 11.9079 17.6913C11.8936 17.6824 11.8814 17.6705 11.8721 17.6565C11.8627 17.6424 11.8566 17.6265 11.854 17.6099C11.8514 17.5932 11.8524 17.5762 11.857 17.56L12.437 15.5033C12.4617 15.4075 12.5073 15.3184 12.5706 15.2423C12.6338 15.1663 12.7132 15.1052 12.8029 15.0635L16.0584 13.459ZM11.082 14.1035C11.3274 14.1008 11.5685 14.0392 11.7851 13.9238L12.9405 13.332C13.041 13.2779 13.1535 13.2499 13.2676 13.2506C13.3817 13.2513 13.4939 13.2806 13.5937 13.3359L13.8803 13.4872L12.3882 14.2227C12.1804 14.3222 11.9966 14.4654 11.8492 14.6425C11.7019 14.8196 11.5945 15.0264 11.5345 15.2488L10.9544 17.3055C10.9132 17.4516 10.904 17.6049 10.9275 17.7548C10.9509 17.9048 11.0065 18.0479 11.0904 18.1745C11.1742 18.301 11.2844 18.4079 11.4134 18.488C11.5423 18.568 11.6871 18.6193 11.8377 18.6383L12.9451 18.7777C13.1471 18.8048 13.3526 18.772 13.5362 18.6835C13.7198 18.595 13.8734 18.4546 13.9779 18.2796L14.7059 17.0827C14.772 16.9664 14.8704 16.8718 14.9892 16.8104C15.108 16.749 15.2421 16.7233 15.3752 16.7365L15.9242 16.7849C16.046 16.7908 16.1634 16.8329 16.2612 16.9059L18.9193 18.8986C18.5959 19.0447 18.3216 19.2812 18.1295 19.5795C17.9373 19.8778 17.8355 20.2254 17.8363 20.5802C17.8363 20.6157 17.8376 20.6511 17.8395 20.6863C17.5886 20.6713 17.3372 20.7079 17.101 20.7937C16.8647 20.8796 16.6485 21.0129 16.4657 21.1854C16.2829 21.358 16.1374 21.5661 16.0381 21.7971C15.9388 22.028 15.8878 22.2768 15.8883 22.5282C15.8883 22.5638 15.8896 22.599 15.8916 22.6342C15.5616 22.615 15.2326 22.6845 14.9386 22.8355C14.906 22.7972 14.8721 22.7593 14.836 22.7234C14.6519 22.5393 14.4309 22.3962 14.1875 22.3038C13.944 22.2113 13.6838 22.1715 13.4239 22.1869C13.4259 22.1518 13.4271 22.1166 13.4271 22.0809C13.4277 21.8295 13.3768 21.5807 13.2776 21.3498C13.1784 21.1188 13.0329 20.9106 12.8502 20.738C12.6675 20.5654 12.4514 20.432 12.2152 20.3461C11.979 20.2601 11.7277 20.2234 11.4768 20.2383C11.4917 19.9874 11.455 19.7362 11.3691 19.5C11.2832 19.2638 11.1499 19.0477 10.9774 18.865C10.8048 18.6823 10.5967 18.5368 10.3658 18.4375C10.135 18.3383 9.88622 18.2873 9.63491 18.2878C9.39248 18.2868 9.15226 18.334 8.92818 18.4265C8.7041 18.5191 8.50059 18.6551 8.32944 18.8268L6.68407 20.4727L4.76583 19.3494L7.77251 14.1415L11.082 14.1035ZM4.97272 11.3622L7.46424 12.8006L3.60051 19.4927L1.10905 18.0542L4.97272 11.3622ZM15 11.765C16.0864 11.765 17.1485 11.4428 18.0519 10.8392C18.9552 10.2356 19.6593 9.37772 20.0751 8.37397C20.4909 7.37021 20.5997 6.26571 20.3877 5.20012C20.1758 4.13454 19.6526 3.15573 18.8844 2.38748C18.1161 1.61924 17.1373 1.09605 16.0717 0.884091C15.0062 0.672129 13.9017 0.78091 12.8979 1.19668C11.8941 1.61244 11.0362 2.31653 10.4326 3.21988C9.829 4.12324 9.50682 5.1853 9.50682 6.27176C9.50848 7.72813 10.0878 9.12438 11.1176 10.1542C12.1474 11.184 13.5436 11.7633 15 11.765ZM15 1.71615C15.901 1.71614 16.7818 1.98332 17.531 2.48391C18.2802 2.98449 18.8642 3.696 19.209 4.52845C19.5538 5.3609 19.644 6.27691 19.4682 7.16064C19.2925 8.04437 18.8586 8.85613 18.2214 9.49326C17.5843 10.1304 16.7725 10.5643 15.8888 10.7401C15.0051 10.9158 14.0891 10.8256 13.2566 10.4808C12.4242 10.136 11.7127 9.55206 11.2121 8.80286C10.7115 8.05367 10.4443 7.17286 10.4443 6.27182C10.4457 5.06399 10.9261 3.90603 11.7802 3.05196C12.6342 2.1979 13.7922 1.71753 15 1.71615ZM12.9148 6.29385C12.8417 6.19328 12.8115 6.0678 12.8309 5.945C12.8504 5.82221 12.9178 5.71216 13.0183 5.63906C13.1189 5.56597 13.2444 5.53582 13.3672 5.55525C13.49 5.57468 13.6 5.64209 13.6731 5.74266L14.3906 6.73008L16.7791 4.77352C16.8753 4.69568 16.9985 4.65909 17.1216 4.67173C17.2448 4.68437 17.3579 4.74522 17.4364 4.84098C17.5148 4.93675 17.5522 5.05967 17.5404 5.1829C17.5285 5.30613 17.4684 5.41967 17.3732 5.49873L14.6004 7.77006C14.5511 7.81052 14.4939 7.84046 14.4326 7.85805C14.3712 7.87564 14.3069 7.88052 14.2436 7.87237C14.1802 7.86422 14.1193 7.84323 14.0643 7.81067C14.0094 7.77812 13.9617 7.73469 13.9242 7.68305L12.9148 6.29385Z" fill="#007892"/>
</g>
<defs>
<clipPath id="clip0_1_331">
<rect width="30" height="30" fill="white"/>
</clipPath>
</defs>
</svg>
