<svg width="24" height="24" viewBox="0 0 24 24" fill="none" xmlns="http://www.w3.org/2000/svg">
    <path fill-rule="evenodd" clip-rule="evenodd"
        d="M13.7522 10.5009C14.3939 10.501 15.0229 10.6838 15.5642 11.0283L18.6448 12.9882C18.8147 13.0962 19.0001 13.1767 19.1956 13.2254L22.2044 13.9784C23.0379 14.1865 23.6257 14.9384 23.6252 15.7977V17.2509C23.6252 18.2822 22.7816 19.1259 21.7502 19.1259H20.6252V18.3759H21.7502C22.3757 18.3759 22.8752 17.8762 22.8752 17.2509V15.7977C22.8755 15.2795 22.5254 14.8318 22.0227 14.7063L19.0139 13.9535C18.7403 13.8852 18.48 13.7739 18.242 13.6225L15.1613 11.6625C14.7404 11.3947 14.2511 11.2524 13.7522 11.2523H7.06667C6.73787 11.2523 6.42497 11.3952 6.21122 11.645L4.86062 13.2211C4.50429 13.6371 3.98447 13.8774 3.43674 13.8774H2.25174C2.04032 13.8774 1.87674 14.0412 1.87674 14.2524V16.5009C1.87674 17.5404 2.71082 18.3762 3.75024 18.3759H4.87674V19.1259H3.75024C2.30462 19.1263 1.12524 17.9449 1.12524 16.4995V14.2509C1.12524 13.6337 1.63322 13.1247 2.25024 13.1245H3.43674C3.76547 13.1245 4.07694 12.9816 4.29077 12.7318L5.64137 11.1557C5.99762 10.7396 6.51894 10.4995 7.06667 10.4995L13.7522 10.5009ZM16.8752 18.3759V19.1259H8.62674V18.3759H16.8752Z"
        fill="white" />
    <path fill-rule="evenodd" clip-rule="evenodd"
        d="M11.0746 3.37592C11.1756 3.37592 11.2711 3.42152 11.3397 3.49607L13.5897 5.93357C13.7229 6.07728 13.7229 6.29958 13.5897 6.44335L11.3397 8.88093C11.1082 9.13435 10.6863 8.96907 10.6879 8.62608V7.68852H8.96381C8.47106 7.68852 7.98866 7.7464 7.52088 7.86007C7.31988 7.90882 7.11738 7.7858 7.06826 7.58454L6.53801 5.39896C6.48926 5.19798 6.61226 4.99548 6.81341 4.94635C7.51038 4.77741 8.23091 4.68865 8.96381 4.68865H10.6879V3.75118C10.6878 3.53943 10.863 3.36931 11.0746 3.37592ZM11.4379 4.71037V5.0634C11.4379 5.27061 11.27 5.4384 11.0629 5.4384H8.96381C8.41938 5.4384 7.88471 5.49401 7.35978 5.59662L7.71573 7.05988C8.12553 6.98391 8.53938 6.93834 8.96381 6.93834H11.0629C11.27 6.93834 11.4379 7.10608 11.4379 7.31326V7.66629L12.8031 6.18833L11.4379 4.71037Z"
        fill="white" />
    <path fill-rule="evenodd" clip-rule="evenodd"
        d="M4.9881 5.64929C5.12512 5.64929 5.24918 5.73095 5.3118 5.85284L6.3372 7.85521C6.43208 8.03975 6.35894 8.2661 6.1746 8.36058C5.43038 8.74113 4.76003 9.28245 4.21905 9.94261L4.73318 10.3572C4.98413 10.5551 4.88828 10.9562 4.575 11.0194L1.575 11.6184C1.3611 11.6618 1.15545 11.5141 1.12822 11.2977L0.753224 8.33567C0.714224 8.03168 1.03672 7.81205 1.30545 7.95928L1.76542 8.20392C2.59305 7.14387 3.63765 6.28858 4.80795 5.69021C4.86345 5.66187 4.92555 5.64759 4.9881 5.64929ZM4.81965 6.53841C3.79125 7.12385 2.8833 7.92707 2.17118 8.91301C2.06025 9.06552 1.85325 9.11203 1.6878 9.02132L1.58963 8.96743L1.82108 10.8044L3.63165 10.4425L3.45735 10.3033C3.30083 10.1786 3.26978 9.9529 3.38685 9.79062C3.9582 8.99967 4.68203 8.34776 5.50215 7.87018L4.81965 6.53841Z"
        fill="white" />
    <path
        d="M6.75024 16.5009C7.98842 16.5009 9.00024 17.5126 9.00024 18.7509C9.00024 19.989 7.98842 21.0009 6.75024 21.0009C5.51207 21.0009 4.50024 19.989 4.50024 18.7509C4.50024 17.5126 5.51207 16.5009 6.75024 16.5009ZM6.75024 17.2509C5.91737 17.2509 5.25024 17.918 5.25024 18.7509C5.25024 19.5837 5.91737 20.2509 6.75024 20.2509C7.58312 20.2509 8.25024 19.5837 8.25024 18.7509C8.25024 17.918 7.58312 17.2509 6.75024 17.2509Z"
        fill="white" />
    <path
        d="M18.7502 16.5009C19.9884 16.5009 21.0002 17.5126 21.0002 18.7509C21.0002 19.989 19.9884 21.0009 18.7502 21.0009C17.5121 21.0009 16.5002 19.989 16.5002 18.7509C16.5002 17.5126 17.5121 16.5009 18.7502 16.5009ZM18.7502 17.2509C17.9174 17.2509 17.2502 17.918 17.2502 18.7509C17.2502 19.5837 17.9174 20.2509 18.7502 20.2509C19.5831 20.2509 20.2502 19.5837 20.2502 18.7509C20.2502 17.918 19.5831 17.2509 18.7502 17.2509Z"
        fill="white" />
    <path
        d="M18.376 18.7511C18.376 18.8506 18.4155 18.9459 18.4858 19.0162C18.5561 19.0866 18.6515 19.1261 18.751 19.1261C18.8504 19.1261 18.9458 19.0866 19.0161 19.0162C19.0865 18.9459 19.126 18.8506 19.126 18.7511C19.126 18.6516 19.0865 18.5563 19.0161 18.486C18.9458 18.4156 18.8504 18.3761 18.751 18.3761C18.6515 18.3761 18.5561 18.4156 18.4858 18.486C18.4155 18.5563 18.376 18.6516 18.376 18.7511Z"
        fill="white" />
    <path
        d="M6.37598 18.7511C6.37598 18.8506 6.41549 18.9459 6.48581 19.0162C6.55614 19.0866 6.65152 19.1261 6.75098 19.1261C6.85043 19.1261 6.94581 19.0866 7.01614 19.0162C7.08647 18.9459 7.12598 18.8506 7.12598 18.7511C7.12598 18.6516 7.08647 18.5563 7.01614 18.486C6.94581 18.4156 6.85043 18.3761 6.75098 18.3761C6.65152 18.3761 6.55614 18.4156 6.48581 18.486C6.41549 18.5563 6.37598 18.6516 6.37598 18.7511Z"
        fill="white" />
</svg>