<svg width="20" height="20" viewBox="0 0 20 20" fill="none" xmlns="http://www.w3.org/2000/svg">
    <g clip-path="url(#clip0_1_1461)">
        <path
            d="M0.65 13.6275C0.660937 13.765 0.760625 13.8791 0.895625 13.9081L1.98469 14.1431C2.02312 14.3287 2.07187 14.5119 2.13094 14.6906L1.30656 15.4375C1.20438 15.53 1.175 15.6787 1.23438 15.8034C1.385 16.1203 1.55281 16.4131 1.73312 16.6737C1.81125 16.7869 1.95438 16.8356 2.08594 16.7934L3.14438 16.4525C3.27094 16.5944 3.40563 16.7291 3.5475 16.8556L3.20656 17.9141C3.16437 18.045 3.21281 18.1884 3.32625 18.2669C3.58687 18.4472 3.87969 18.615 4.19656 18.7656C4.32156 18.825 4.47 18.7953 4.5625 18.6934L5.30937 17.8691C5.48844 17.9278 5.67156 17.9769 5.85719 18.0153L6.09219 19.1044C6.12125 19.2391 6.23531 19.3387 6.3725 19.35C6.53875 19.3631 6.70531 19.375 6.875 19.375C7.04469 19.375 7.21125 19.3631 7.3775 19.35C7.515 19.3391 7.62906 19.2394 7.65812 19.1044L7.89312 18.0153C8.07875 17.9769 8.26219 17.9281 8.44094 17.8691L9.18781 18.6934C9.28062 18.7956 9.42937 18.8253 9.55375 18.7656C9.87063 18.615 10.1634 18.4469 10.4241 18.2669C10.5375 18.1884 10.5859 18.045 10.5438 17.9141L10.2028 16.8556C10.3447 16.7291 10.4794 16.5944 10.6059 16.4528L11.6644 16.7937C11.7953 16.8362 11.9388 16.7875 12.0172 16.6741C12.1975 16.4134 12.3653 16.1206 12.5159 15.8037C12.5753 15.6791 12.5459 15.5303 12.4438 15.4378L11.6194 14.6909C11.6781 14.5119 11.7272 14.3287 11.7656 14.1431L12.8547 13.9081C12.9894 13.8791 13.0891 13.765 13.1003 13.6278C13.1131 13.4612 13.125 13.2947 13.125 13.125C13.125 12.9553 13.1131 12.7887 13.1 12.6225C13.0891 12.485 12.9894 12.3709 12.8544 12.3419L11.7653 12.1069C11.7269 11.9212 11.6781 11.7378 11.6191 11.5591L12.4434 10.8122C12.5456 10.7197 12.575 10.5709 12.5156 10.4462C12.365 10.1294 12.1969 9.83656 12.0169 9.57593C11.9384 9.4625 11.795 9.41375 11.6641 9.45625L10.6056 9.79718C10.4791 9.65531 10.3444 9.52062 10.2025 9.39406L10.5434 8.33562C10.5856 8.20468 10.5372 8.06125 10.4237 7.98281C10.1631 7.8025 9.87031 7.63468 9.55344 7.48406C9.42844 7.42437 9.28 7.45406 9.1875 7.55625L8.44063 8.38062C8.26156 8.32187 8.07844 8.27281 7.89281 8.23437L7.65781 7.14531C7.62875 7.01062 7.51469 6.91093 7.3775 6.89968C7.04469 6.87281 6.705 6.87343 6.37219 6.89968C6.23469 6.91062 6.12063 7.01031 6.09156 7.14531L5.85656 8.23437C5.67094 8.27281 5.48781 8.32156 5.30906 8.38062L4.56219 7.55625C4.46969 7.45406 4.32125 7.42468 4.19625 7.48406C3.87938 7.63468 3.58656 7.8025 3.32594 7.98281C3.2125 8.06125 3.16406 8.20468 3.20625 8.33562L3.54719 9.39406C3.40531 9.52062 3.27062 9.65531 3.14406 9.79718L2.08594 9.45625C1.95469 9.41375 1.81125 9.4625 1.73312 9.57593C1.55281 9.83656 1.385 10.1294 1.23438 10.4462C1.175 10.5709 1.20438 10.7197 1.30656 10.8122L2.13094 11.5591C2.07219 11.7381 2.02312 11.9212 1.98469 12.1069L0.895625 12.3419C0.760937 12.3709 0.66125 12.485 0.65 12.6222C0.636875 12.7887 0.625 12.9553 0.625 13.125C0.625 13.2947 0.636875 13.4612 0.65 13.6275ZM1.25656 12.9034L2.31969 12.6737C2.44531 12.6466 2.54156 12.5453 2.56219 12.4184C2.60906 12.1303 2.68469 11.8475 2.78688 11.5775C2.8325 11.4575 2.79969 11.3216 2.70438 11.2353L1.90156 10.5078C1.97156 10.3737 2.04469 10.2453 2.12031 10.1237L3.15031 10.4556C3.27219 10.4947 3.40656 10.4556 3.48812 10.3562C3.6725 10.1306 3.88063 9.92281 4.10625 9.73812C4.20563 9.65687 4.24531 9.52281 4.20563 9.40031L3.87375 8.37031C3.99531 8.29437 4.12344 8.22125 4.25781 8.15156L4.98531 8.95468C5.07188 9.05 5.20813 9.08281 5.32781 9.03718C5.59719 8.935 5.88 8.85937 6.16844 8.8125C6.29531 8.79187 6.39656 8.69562 6.42375 8.57L6.65313 7.50687C6.80031 7.49906 6.95 7.49875 7.09656 7.50687L7.32625 8.57C7.35344 8.69562 7.45469 8.79187 7.58156 8.8125C7.86969 8.85937 8.1525 8.935 8.4225 9.03718C8.54187 9.08281 8.67813 9.05031 8.76469 8.95468L9.49219 8.15187C9.62625 8.22187 9.75469 8.295 9.87625 8.37062L9.54437 9.40062C9.505 9.52312 9.54438 9.65687 9.64375 9.73843C9.86938 9.92281 10.0772 10.1309 10.2619 10.3566C10.3434 10.4562 10.4775 10.4959 10.5997 10.4559L11.6297 10.1241C11.7056 10.2456 11.7788 10.3737 11.8484 10.5078L11.0453 11.2353C10.95 11.3216 10.9172 11.4575 10.9628 11.5778C11.065 11.8472 11.1406 12.13 11.1875 12.4184C11.2081 12.5453 11.3044 12.6466 11.43 12.6737L12.4931 12.9031C12.4972 12.9766 12.5 13.0506 12.5 13.125C12.5 13.1994 12.4975 13.2734 12.4934 13.3466L11.4303 13.5762C11.3047 13.6034 11.2084 13.7047 11.1878 13.8316C11.1409 14.1197 11.0653 14.4025 10.9631 14.6725C10.9175 14.7925 10.9503 14.9284 11.0456 15.0147L11.8484 15.7422C11.7784 15.8762 11.7053 16.0047 11.6297 16.1262L10.5997 15.7944C10.4769 15.7544 10.3434 15.7941 10.2619 15.8937C10.0778 16.1187 9.86969 16.3269 9.64375 16.5119C9.54438 16.5931 9.505 16.7272 9.54437 16.8494L9.87625 17.8794C9.75469 17.9553 9.62656 18.0284 9.4925 18.0981L8.765 17.295C8.67875 17.1997 8.54281 17.1675 8.4225 17.2125C8.15312 17.3147 7.87031 17.3903 7.58187 17.4372C7.455 17.4578 7.35375 17.5541 7.32656 17.6797L7.09719 18.7428C6.95 18.7506 6.80031 18.7509 6.65375 18.7428L6.42406 17.6797C6.39687 17.5541 6.29562 17.4578 6.16875 17.4372C5.88062 17.3903 5.59781 17.3147 5.32781 17.2125C5.20813 17.1669 5.07188 17.1994 4.98563 17.295L4.25813 18.0978C4.12406 18.0278 3.99563 17.9547 3.87406 17.8791L4.20594 16.8491C4.24531 16.7266 4.20594 16.5928 4.10656 16.5112C3.88094 16.3269 3.67313 16.1187 3.48844 15.8931C3.40688 15.7934 3.2725 15.7541 3.15062 15.7937L2.12062 16.1256C2.04469 16.0041 1.97156 15.8759 1.90188 15.7416L2.705 15.0141C2.80031 14.9278 2.83313 14.7919 2.7875 14.6716C2.68531 14.4022 2.60969 14.1194 2.56281 13.8309C2.54219 13.7041 2.44594 13.6028 2.32031 13.5756L1.25656 13.3469C1.25281 13.2734 1.25 13.1994 1.25 13.125C1.25 13.0506 1.2525 12.9766 1.25656 12.9034Z"
            fill="white" />
        <path
            d="M16.9434 5.07346C17.0609 5.03659 17.1459 4.93378 17.16 4.81128C17.1787 4.65346 17.1875 4.51065 17.1875 4.37503C17.1875 4.2394 17.1787 4.09659 17.1603 3.93878C17.1462 3.81628 17.0613 3.71346 16.9438 3.67659L16.0772 3.4044C16.0512 3.33346 16.0225 3.26378 15.9909 3.19565L16.4109 2.39096C16.4678 2.2819 16.4553 2.1494 16.3791 2.05253C16.1981 1.82378 15.99 1.61565 15.7606 1.43409C15.6637 1.35753 15.5313 1.34534 15.4222 1.4019L14.6169 1.8219C14.5487 1.79065 14.4791 1.7619 14.4081 1.73596L14.1359 0.869402C14.0991 0.751902 13.9963 0.666902 13.8737 0.652839C13.5575 0.615964 13.3172 0.615964 13.0009 0.652839C12.8784 0.666902 12.7756 0.751902 12.7387 0.869402L12.4666 1.73596C12.3956 1.7619 12.3259 1.79065 12.2578 1.82221L11.4531 1.40221C11.3441 1.34565 11.2119 1.35784 11.1147 1.43409C10.8859 1.61503 10.6778 1.82315 10.4963 2.05253C10.4197 2.1494 10.4072 2.28159 10.4641 2.39096L10.8837 3.19565C10.8525 3.26378 10.8238 3.33346 10.7978 3.4044L9.93125 3.67659C9.81375 3.71346 9.72875 3.81628 9.71469 3.93878C9.69625 4.09659 9.6875 4.2394 9.6875 4.37503C9.6875 4.51065 9.69625 4.65346 9.71469 4.81128C9.72875 4.93378 9.81375 5.03659 9.93125 5.07346L10.7978 5.34565C10.8238 5.41659 10.8525 5.48628 10.8841 5.5544L10.4641 6.35909C10.4072 6.46815 10.4197 6.60065 10.4959 6.69753C10.6769 6.92628 10.885 7.1344 11.1144 7.31596C11.2109 7.39253 11.3437 7.40471 11.4528 7.34815L12.2575 6.92846C12.3256 6.95971 12.3953 6.98846 12.4662 7.0144L12.7384 7.88096C12.7753 7.99846 12.8781 8.08346 13.0006 8.09753C13.1591 8.11628 13.3019 8.12503 13.4375 8.12503C13.5731 8.12503 13.7159 8.11628 13.8737 8.09784C13.9963 8.08378 14.0991 7.99878 14.1359 7.88128L14.4081 7.01471C14.4791 6.98878 14.5487 6.96003 14.6169 6.92846L15.4216 7.34846C15.5306 7.40534 15.6631 7.39315 15.76 7.31659C15.9887 7.13565 16.1969 6.92753 16.3784 6.69815C16.455 6.60128 16.4675 6.46909 16.4106 6.35971L15.9906 5.55503C16.0222 5.4869 16.0509 5.41721 16.0769 5.34628L16.9434 5.07346ZM15.7372 4.79721C15.6384 4.82846 15.5616 4.90628 15.5316 5.00565C15.4891 5.1469 15.4328 5.28284 15.3647 5.41003C15.3156 5.50128 15.3147 5.61096 15.3628 5.70253L15.7594 6.46253C15.6853 6.54471 15.6069 6.62315 15.525 6.6969L14.765 6.30034C14.6731 6.25221 14.5634 6.25346 14.4725 6.30221C14.3453 6.37034 14.2094 6.42659 14.0681 6.46909C13.9691 6.49878 13.8909 6.57596 13.8597 6.67471L13.6022 7.49471C13.4881 7.50159 13.3872 7.50159 13.2728 7.49471L13.0153 6.67471C12.9841 6.57596 12.9062 6.49909 12.8069 6.46909C12.6653 6.42659 12.5294 6.37034 12.4028 6.30221C12.3116 6.25315 12.2019 6.25221 12.11 6.30034L11.35 6.6969C11.2678 6.62284 11.1894 6.5444 11.1156 6.46253L11.5122 5.70253C11.56 5.61096 11.5594 5.50096 11.5103 5.41003C11.4422 5.28284 11.3859 5.1469 11.3434 5.00565C11.3137 4.90659 11.2366 4.82846 11.1378 4.79721L10.3178 4.53971C10.3141 4.48253 10.3125 4.42784 10.3125 4.37503C10.3125 4.32221 10.3141 4.26753 10.3178 4.21034L11.1378 3.95284C11.2366 3.92159 11.3134 3.84378 11.3434 3.7444C11.3859 3.60284 11.4422 3.4669 11.5103 3.34034C11.5594 3.24909 11.5603 3.1394 11.5122 3.04753L11.1156 2.28753C11.1897 2.20534 11.2681 2.1269 11.35 2.05315L12.11 2.44971C12.2016 2.49753 12.3116 2.49659 12.4025 2.44784C12.5297 2.37971 12.6656 2.32346 12.8069 2.28096C12.9059 2.25128 12.9841 2.17409 13.0153 2.07534L13.2728 1.25534C13.3869 1.24846 13.4878 1.24846 13.6022 1.25534L13.8597 2.07534C13.8909 2.17409 13.9688 2.25096 14.0681 2.28096C14.2097 2.32346 14.3456 2.37971 14.4722 2.44784C14.5634 2.4969 14.6731 2.49784 14.765 2.44971L15.525 2.05315C15.6072 2.12721 15.6856 2.20565 15.7594 2.28753L15.3628 3.04753C15.315 3.13909 15.3156 3.24909 15.3647 3.34003C15.4328 3.46721 15.4891 3.60315 15.5316 3.7444C15.5613 3.84346 15.6384 3.92159 15.7372 3.95284L16.5572 4.21034C16.5609 4.26753 16.5625 4.32221 16.5625 4.37503C16.5625 4.42784 16.5609 4.48253 16.5572 4.53971L15.7372 4.79721Z"
            fill="white" />
        <path
            d="M19.1444 10.9263L18.6075 10.7356C18.5769 10.6484 18.5419 10.5631 18.5022 10.4803L18.7462 9.96626C18.7972 9.85939 18.7831 9.73313 18.71 9.64001C18.5538 9.44032 18.3731 9.25939 18.1728 9.10251C18.0794 9.02939 17.9525 9.01563 17.8463 9.06626L17.3319 9.31032C17.2494 9.27095 17.1641 9.23564 17.0769 9.20532L16.8859 8.66845C16.8463 8.55689 16.7466 8.4772 16.6291 8.46282C16.3506 8.42938 16.1491 8.42938 15.8706 8.46282C15.7531 8.47688 15.6534 8.55657 15.6138 8.66845L15.4231 9.20532C15.3359 9.23595 15.2506 9.27095 15.1678 9.31064L14.6537 9.06657C14.5475 9.01595 14.4209 9.03001 14.3275 9.10282C14.1278 9.25907 13.9469 9.4397 13.79 9.64001C13.7172 9.73313 13.7031 9.8597 13.7538 9.96657L13.9978 10.4809C13.9584 10.5634 13.9231 10.6488 13.8928 10.7359L13.3559 10.9269C13.2444 10.9666 13.1647 11.0663 13.1503 11.1838C13.1331 11.3222 13.125 11.4463 13.125 11.5625C13.125 11.6788 13.1331 11.8025 13.15 11.9416C13.1641 12.0591 13.2437 12.1588 13.3556 12.1984L13.8925 12.3891C13.9231 12.4763 13.9581 12.5616 13.9978 12.6444L13.7538 13.1584C13.7028 13.2653 13.7169 13.3916 13.79 13.4847C13.9462 13.6844 14.1269 13.8653 14.3272 14.0222C14.4203 14.095 14.5472 14.1091 14.6537 14.0584L15.1681 13.8144C15.2506 13.8538 15.3359 13.8891 15.4231 13.9194L15.6141 14.4563C15.6537 14.5678 15.7534 14.6475 15.8709 14.6619C16.01 14.6794 16.1337 14.6875 16.25 14.6875C16.3663 14.6875 16.49 14.6794 16.6291 14.6625C16.7466 14.6484 16.8463 14.5688 16.8859 14.4569L17.0766 13.92C17.1638 13.8894 17.2491 13.8544 17.3319 13.8147L17.8459 14.0588C17.9525 14.1097 18.0794 14.0959 18.1722 14.0225C18.3719 13.8663 18.5528 13.6856 18.7097 13.4853C18.7825 13.3922 18.7966 13.2656 18.7459 13.1588L18.5019 12.6444C18.5413 12.5619 18.5766 12.4766 18.6069 12.3894L19.1437 12.1984C19.2553 12.1588 19.335 12.0591 19.3494 11.9416C19.3669 11.8025 19.375 11.6788 19.375 11.5625C19.375 11.4463 19.3669 11.3225 19.35 11.1834C19.3359 11.0656 19.2563 10.9663 19.1444 10.9263ZM18.7469 11.6766L18.2516 11.8525C18.1556 11.8866 18.0822 11.9653 18.055 12.0634C18.0141 12.2119 17.9556 12.3534 17.8816 12.4844C17.8316 12.5728 17.8278 12.6803 17.8713 12.7722L18.0956 13.245C18.0437 13.3019 17.9894 13.3563 17.9328 13.4078L17.46 13.1834C17.3688 13.14 17.2609 13.1438 17.1722 13.1938C17.0409 13.2681 16.8994 13.3263 16.7516 13.3672C16.6534 13.3944 16.5747 13.4678 16.5403 13.5638L16.3644 14.0591C16.2888 14.0631 16.2119 14.0631 16.1363 14.0591L15.9603 13.5638C15.9263 13.4678 15.8475 13.3944 15.7494 13.3672C15.6009 13.3263 15.4594 13.2678 15.3284 13.1938C15.24 13.1441 15.1328 13.1403 15.0406 13.1834L14.5678 13.4078C14.5109 13.3559 14.4566 13.3016 14.405 13.245L14.6294 12.7722C14.6731 12.6803 14.6691 12.5728 14.6191 12.4844C14.5447 12.3531 14.4866 12.2116 14.4456 12.0638C14.4184 11.9656 14.345 11.8869 14.2491 11.8525L13.7538 11.6766C13.7513 11.6388 13.75 11.6009 13.75 11.5625C13.75 11.5241 13.7512 11.4859 13.7531 11.4484L14.2484 11.2722C14.3444 11.2381 14.4178 11.1594 14.4447 11.0613C14.4859 10.9125 14.5444 10.7713 14.6184 10.6403C14.6684 10.5519 14.6722 10.4444 14.6288 10.3525L14.4044 9.8797C14.4563 9.82282 14.5106 9.76845 14.5672 9.71688L15.04 9.94126C15.1319 9.98501 15.2394 9.98126 15.3278 9.93095C15.4591 9.85657 15.6006 9.79845 15.7484 9.75751C15.8466 9.73032 15.9253 9.65688 15.9597 9.56095L16.1356 9.06564C16.2112 9.06157 16.2881 9.06157 16.3637 9.06564L16.5397 9.56095C16.5737 9.65688 16.6525 9.73032 16.7506 9.75751C16.8991 9.79845 17.0406 9.85688 17.1716 9.93095C17.2603 9.98126 17.3675 9.98501 17.4594 9.94126L17.9322 9.71688C17.9891 9.76876 18.0434 9.82313 18.095 9.8797L17.8706 10.3525C17.8269 10.4444 17.8309 10.5519 17.8809 10.6403C17.9553 10.7716 18.0134 10.9131 18.0544 11.0609C18.0816 11.1591 18.155 11.2378 18.2509 11.2722L18.7462 11.4481C18.7487 11.4863 18.75 11.5241 18.75 11.5625C18.75 11.6009 18.7488 11.6388 18.7469 11.6766Z"
            fill="white" />
        <path
            d="M6.875 16.5625C8.77031 16.5625 10.3125 15.0203 10.3125 13.125C10.3125 11.2297 8.77031 9.6875 6.875 9.6875C4.97969 9.6875 3.4375 11.2297 3.4375 13.125C3.4375 15.0203 4.97969 16.5625 6.875 16.5625ZM6.875 10.3125C8.42562 10.3125 9.6875 11.5744 9.6875 13.125C9.6875 14.6756 8.42562 15.9375 6.875 15.9375C5.32438 15.9375 4.0625 14.6756 4.0625 13.125C4.0625 11.5744 5.32438 10.3125 6.875 10.3125Z"
            fill="white" />
        <path
            d="M0.631836 7.92468L1.11184 8.32499C2.54277 6.60905 4.64309 5.62499 6.87496 5.62499C7.03402 5.62499 7.19277 5.63405 7.35152 5.64405L6.96652 6.02905L7.4084 6.47093L8.3459 5.53343C8.46809 5.41124 8.46809 5.21374 8.3459 5.09155L7.4084 4.15405L6.96652 4.59593L7.39121 5.02062C7.21934 5.00968 7.04715 4.99999 6.87496 4.99999C4.45746 4.99999 2.18184 6.06593 0.631836 7.92468Z"
            fill="white" />
        <path
            d="M13.4375 2.8125C12.5759 2.8125 11.875 3.51344 11.875 4.375C11.875 5.23656 12.5759 5.9375 13.4375 5.9375C14.2991 5.9375 15 5.23656 15 4.375C15 3.51344 14.2991 2.8125 13.4375 2.8125ZM13.4375 5.3125C12.9206 5.3125 12.5 4.89188 12.5 4.375C12.5 3.85812 12.9206 3.4375 13.4375 3.4375C13.9544 3.4375 14.375 3.85812 14.375 4.375C14.375 4.89188 13.9544 5.3125 13.4375 5.3125Z"
            fill="white" />
        <path
            d="M16.25 10.3125C15.5606 10.3125 15 10.8731 15 11.5625C15 12.2519 15.5606 12.8125 16.25 12.8125C16.9394 12.8125 17.5 12.2519 17.5 11.5625C17.5 10.8731 16.9394 10.3125 16.25 10.3125ZM16.25 12.1875C15.9053 12.1875 15.625 11.9072 15.625 11.5625C15.625 11.2178 15.9053 10.9375 16.25 10.9375C16.5947 10.9375 16.875 11.2178 16.875 11.5625C16.875 11.9072 16.5947 12.1875 16.25 12.1875Z"
            fill="white" />
        <path
            d="M19.1237 1.56878L17.5612 1.25628C17.3912 1.2219 17.2271 1.33221 17.1934 1.50128L16.8809 3.06378L17.4937 3.18659L17.6621 2.34534C17.9649 2.97534 18.1249 3.66971 18.1249 4.37503C18.1249 5.45253 17.7693 6.46565 17.0968 7.30472L17.5846 7.69565C18.3362 6.75784 18.7499 5.57878 18.7499 4.37503C18.7499 3.55659 18.5609 2.74971 18.2012 2.02159L19.0012 2.18159L19.1237 1.56878Z"
            fill="white" />
    </g>
    <defs>
        <clipPath id="clip0_1_1461">
            <rect width="20" height="20" fill="white" />
        </clipPath>
    </defs>
</svg>