<svg width="20" height="20" viewBox="0 0 20 20" fill="none" xmlns="http://www.w3.org/2000/svg">
    <path
        d="M17.5001 16.6667H2.50008C2.04008 16.6667 1.66675 17.04 1.66675 17.5C1.66675 17.96 2.04008 18.3334 2.50008 18.3334H17.5001C17.9601 18.3334 18.3334 17.96 18.3334 17.5C18.3334 17.04 17.9601 16.6667 17.5001 16.6667Z"
        fill="white" />
    <path
        d="M7.64997 15.8325C8.27747 15.8325 8.90497 15.5934 9.38247 15.1159L15.6716 8.82669C15.9975 8.50086 15.9975 7.97419 15.6716 7.64836L8.8108 0.787527C8.48497 0.461694 7.9583 0.461694 7.63247 0.787527L1.34247 7.07586C0.387471 8.03086 0.387471 9.58586 1.34247 10.5409L5.91664 15.115C6.39497 15.5934 7.02247 15.8325 7.64997 15.8325ZM8.22164 2.55419L13.9041 8.23669L13.8075 8.33336H2.46914C2.48914 8.30836 2.4983 8.27753 2.52164 8.25419L8.22164 2.55419Z"
        fill="white" />
    <path
        d="M14.1667 13.6809C14.1667 14.8675 15.1017 15.8334 16.2501 15.8334C17.3984 15.8334 18.3334 14.8675 18.3334 13.6809C18.3334 12.7242 17.1384 10.8367 16.7717 10.2817C16.5409 9.93003 15.9592 9.93003 15.7284 10.2817C15.3617 10.8367 14.1667 12.7242 14.1667 13.6809Z"
        fill="white" />
</svg>