<svg width="20" height="20" viewBox="0 0 20 20" fill="none" xmlns="http://www.w3.org/2000/svg">
    <g clip-path="url(#clip0_1_1476)">
        <path
            d="M11.875 3.75C11.875 3.4048 11.5952 3.125 11.25 3.125H5C4.6548 3.125 4.375 3.4048 4.375 3.75V8.75C4.375 9.0952 4.6548 9.375 5 9.375H11.25C11.5952 9.375 11.875 9.0952 11.875 8.75V3.75ZM10.625 8.125H5.625V4.375H10.625V8.125Z"
            fill="white" />
        <path
            d="M19.0445 4.43176L16.5519 3.18176C16.2425 3.02672 15.8714 3.15277 15.717 3.46129C15.5626 3.77012 15.6896 4.14551 15.9984 4.29992L16.9477 4.7741C16.9223 4.84207 16.8895 4.91395 16.8895 4.99086C16.8895 5.80461 17.5 6.49188 18.125 6.75066V14.3659C18.125 14.7104 17.8445 14.9909 17.5 14.9909C17.1555 14.9909 16.875 14.7104 16.875 14.3659V9.36586C16.875 7.85684 15.625 6.59441 14.375 6.30402V2.49086C14.375 1.11238 13.2833 0 11.9048 0H4.40484C3.02637 0 1.875 1.11238 1.875 2.49086V16.4795L0.970469 16.9318C0.758672 17.0377 0.625 17.254 0.625 17.4909V19.3659C0.625 19.711 0.934687 20 1.27984 20H15.0298C15.375 20 15.625 19.711 15.625 19.3659V17.4909C15.625 17.254 15.4913 17.0377 15.2795 16.9318L14.375 16.4795V7.60605C15 7.86484 15.625 8.55211 15.625 9.36586V14.3659C15.625 15.3998 16.4661 16.2409 17.5 16.2409C18.5339 16.2409 19.375 15.3998 19.375 14.3659V4.99086C19.375 4.75402 19.2563 4.53766 19.0445 4.43176ZM14.375 18.75H1.875V17.8772L2.77953 17.4249C2.99133 17.319 3.125 17.1027 3.125 16.8658V2.49082C3.125 1.80145 3.71543 1.25 4.40484 1.25H11.9048C12.5942 1.25 13.125 1.80145 13.125 2.49086V16.8659C13.125 17.1027 13.2587 17.3191 13.4705 17.425L14.375 17.8772V18.75Z"
            fill="white" />
    </g>
    <defs>
        <clipPath id="clip0_1_1476">
            <rect width="20" height="20" fill="white" />
        </clipPath>
    </defs>
</svg>