<svg width="20" height="21" viewBox="0 0 20 21" fill="none" xmlns="http://www.w3.org/2000/svg">
    <path
        d="M19.235 8.51282L18.7991 8.05128L17.2692 3.92735C17.0085 3.23077 16.3419 2.76923 15.5983 2.76495H4.67094C3.92735 2.76495 3.26068 3.23077 3 3.92735L1.49145 8L0.863248 8.58119C0.316239 9.047 0 9.73077 0 10.4487V16.4573C0.0042735 17.4402 0.803419 18.235 1.78632 18.235H2.91453C3.89744 18.235 4.69658 17.4402 4.70085 16.4573V15.5855H15.2991V16.4573C15.3034 17.4402 16.1026 18.235 17.0855 18.235H18.2137C19.1966 18.235 19.9957 17.4402 20 16.4573V10.2906C19.9957 9.61965 19.7222 8.97863 19.235 8.51282ZM3.80342 4.21794C3.94017 3.8547 4.28632 3.61965 4.67094 3.61965H15.6026C15.9872 3.61965 16.3333 3.85897 16.4701 4.21794L17.8034 7.80769H16.8077C16.5726 6.20512 15.0812 5.09829 13.4786 5.3376C12.2009 5.52564 11.1966 6.52991 11.0085 7.80769H2.47009L3.80342 4.21794ZM15.9359 7.80769H11.8718C12.1068 6.68376 13.2094 5.96581 14.3333 6.20085C15.1368 6.37179 15.765 7 15.9359 7.80769ZM3.84615 16.4573C3.84188 16.9701 3.42735 17.3803 2.91453 17.3803H1.78632C1.2735 17.3803 0.858974 16.9701 0.854701 16.4573V15.3376C1.11111 15.5043 1.44872 15.5855 1.78632 15.5855H3.84615V16.4573ZM19.1453 16.4573C19.141 16.9701 18.7265 17.3803 18.2137 17.3803H17.0855C16.5726 17.3803 16.1581 16.9658 16.1538 16.4573V15.5855H18.2137C18.5513 15.5855 18.8889 15.5043 19.1453 15.3376V16.4573ZM18.2137 14.7308H1.78632C1.27778 14.735 0.858974 14.3291 0.854701 13.8162V10.4487C0.854701 9.97863 1.0641 9.52991 1.42308 9.22649C1.42735 9.22222 1.4359 9.21367 1.44017 9.2094L2.02137 8.66239H18.2051L18.6154 9.10256C18.6197 9.11111 18.6325 9.11538 18.6368 9.12393C18.9573 9.42735 19.141 9.85042 19.141 10.2906V13.8162H19.1453C19.141 14.3248 18.7222 14.735 18.2137 14.7308Z"
        fill="white" />
    <path
        d="M5.64102 10.3718H2.4359C2.20085 10.3718 2.00854 10.5641 2.00854 10.7991V13.0213C2.00854 13.2564 2.20085 13.4487 2.4359 13.4487H5.64102C5.87607 13.4487 6.06837 13.2564 6.06837 13.0213V10.7991C6.06837 10.5641 5.87607 10.3718 5.64102 10.3718ZM5.21367 12.594H2.86325V11.2265H5.21367V12.594Z"
        fill="white" />
    <path
        d="M17.5641 10.3718H14.359C14.1239 10.3718 13.9316 10.5641 13.9316 10.7991V13.0213C13.9316 13.2564 14.1239 13.4487 14.359 13.4487H17.5641C17.7992 13.4487 17.9915 13.2564 17.9915 13.0213V10.7991C17.9915 10.5641 17.7992 10.3718 17.5641 10.3718ZM17.1368 12.594H14.7863V11.2265H17.1368V12.594Z"
        fill="white" />
    <path
        d="M12.0641 12.1667H7.9359C7.70085 12.1667 7.50854 12.359 7.50854 12.594C7.50854 12.8291 7.70085 13.0214 7.9359 13.0214H12.0641C12.2991 13.0214 12.4915 12.8291 12.4915 12.594C12.4915 12.359 12.2991 12.1667 12.0641 12.1667Z"
        fill="white" />
    <path
        d="M12.0641 10.8419H7.9359C7.70085 10.8419 7.50854 11.0342 7.50854 11.2692C7.50854 11.5043 7.70085 11.6966 7.9359 11.6966H12.0641C12.2991 11.6966 12.4915 11.5043 12.4915 11.2692C12.4915 11.0342 12.2991 10.8419 12.0641 10.8419Z"
        fill="white" />
</svg>