<svg width="20" height="20" viewBox="0 0 20 20" fill="none" xmlns="http://www.w3.org/2000/svg">
    <path fill-rule="evenodd" clip-rule="evenodd"
        d="M3.33341 1.875C2.06841 1.875 1.04175 2.90167 1.04175 4.16667C1.04175 5.43167 2.06841 6.45833 3.33341 6.45833C4.59841 6.45833 5.62508 5.43167 5.62508 4.16667C5.62508 2.90167 4.59841 1.875 3.33341 1.875ZM3.33341 3.125C3.90841 3.125 4.37508 3.59167 4.37508 4.16667C4.37508 4.74167 3.90841 5.20833 3.33341 5.20833C2.75841 5.20833 2.29175 4.74167 2.29175 4.16667C2.29175 3.59167 2.75841 3.125 3.33341 3.125Z"
        fill="white" />
    <path fill-rule="evenodd" clip-rule="evenodd"
        d="M3.33341 13.5417C2.06841 13.5417 1.04175 14.5684 1.04175 15.8334C1.04175 17.0984 2.06841 18.125 3.33341 18.125C4.59841 18.125 5.62508 17.0984 5.62508 15.8334C5.62508 14.5684 4.59841 13.5417 3.33341 13.5417ZM3.33341 14.7917C3.90841 14.7917 4.37508 15.2584 4.37508 15.8334C4.37508 16.4084 3.90841 16.875 3.33341 16.875C2.75841 16.875 2.29175 16.4084 2.29175 15.8334C2.29175 15.2584 2.75841 14.7917 3.33341 14.7917Z"
        fill="white" />
    <path fill-rule="evenodd" clip-rule="evenodd"
        d="M10.0002 1.875C8.73516 1.875 7.7085 2.90167 7.7085 4.16667C7.7085 5.43167 8.73516 6.45833 10.0002 6.45833C11.2652 6.45833 12.2918 5.43167 12.2918 4.16667C12.2918 2.90167 11.2652 1.875 10.0002 1.875ZM10.0002 3.125C10.5752 3.125 11.0418 3.59167 11.0418 4.16667C11.0418 4.74167 10.5752 5.20833 10.0002 5.20833C9.42516 5.20833 8.9585 4.74167 8.9585 4.16667C8.9585 3.59167 9.42516 3.125 10.0002 3.125Z"
        fill="white" />
    <path fill-rule="evenodd" clip-rule="evenodd"
        d="M10.0002 13.5417C8.73516 13.5417 7.7085 14.5684 7.7085 15.8334C7.7085 17.0984 8.73516 18.125 10.0002 18.125C11.2652 18.125 12.2918 17.0984 12.2918 15.8334C12.2918 14.5684 11.2652 13.5417 10.0002 13.5417ZM10.0002 14.7917C10.5752 14.7917 11.0418 15.2584 11.0418 15.8334C11.0418 16.4084 10.5752 16.875 10.0002 16.875C9.42516 16.875 8.9585 16.4084 8.9585 15.8334C8.9585 15.2584 9.42516 14.7917 10.0002 14.7917Z"
        fill="white" />
    <path fill-rule="evenodd" clip-rule="evenodd"
        d="M16.6667 1.875C15.4017 1.875 14.375 2.90167 14.375 4.16667C14.375 5.43167 15.4017 6.45833 16.6667 6.45833C17.9317 6.45833 18.9583 5.43167 18.9583 4.16667C18.9583 2.90167 17.9317 1.875 16.6667 1.875ZM16.6667 3.125C17.2417 3.125 17.7083 3.59167 17.7083 4.16667C17.7083 4.74167 17.2417 5.20833 16.6667 5.20833C16.0917 5.20833 15.625 4.74167 15.625 4.16667C15.625 3.59167 16.0917 3.125 16.6667 3.125Z"
        fill="white" />
    <path fill-rule="evenodd" clip-rule="evenodd"
        d="M16.6667 13.5417C15.4017 13.5417 14.375 14.5684 14.375 15.8334C14.375 17.0984 15.4017 18.125 16.6667 18.125C17.9317 18.125 18.9583 17.0984 18.9583 15.8334C18.9583 14.5684 17.9317 13.5417 16.6667 13.5417ZM16.6667 14.7917C17.2417 14.7917 17.7083 15.2584 17.7083 15.8334C17.7083 16.4084 17.2417 16.875 16.6667 16.875C16.0917 16.875 15.625 16.4084 15.625 15.8334C15.625 15.2584 16.0917 14.7917 16.6667 14.7917Z"
        fill="white" />
    <path fill-rule="evenodd" clip-rule="evenodd"
        d="M2.7085 5.83331V14.1666C2.7085 14.5116 2.9885 14.7916 3.3335 14.7916C3.6785 14.7916 3.9585 14.5116 3.9585 14.1666V5.83331C3.9585 5.48831 3.6785 5.20831 3.3335 5.20831C2.9885 5.20831 2.7085 5.48831 2.7085 5.83331Z"
        fill="white" />
    <path fill-rule="evenodd" clip-rule="evenodd"
        d="M9.375 5.83331V14.1666C9.375 14.5116 9.655 14.7916 10 14.7916C10.345 14.7916 10.625 14.5116 10.625 14.1666V5.83331C10.625 5.48831 10.345 5.20831 10 5.20831C9.655 5.20831 9.375 5.48831 9.375 5.83331Z"
        fill="white" />
    <path fill-rule="evenodd" clip-rule="evenodd"
        d="M16.0418 5.83331V9.16665C16.0418 9.28165 15.9485 9.37498 15.8335 9.37498H3.3335C2.9885 9.37498 2.7085 9.65498 2.7085 9.99998C2.7085 10.345 2.9885 10.625 3.3335 10.625H15.8335C16.6393 10.625 17.2918 9.97165 17.2918 9.16665C17.2918 7.95081 17.2918 5.83331 17.2918 5.83331C17.2918 5.48831 17.0118 5.20831 16.6668 5.20831C16.3218 5.20831 16.0418 5.48831 16.0418 5.83331Z"
        fill="white" />
</svg>