<svg width="20" height="20" viewBox="0 0 20 20" fill="none" xmlns="http://www.w3.org/2000/svg">
	<g clip-path="url(#clip0_1_1528)">
		<path
			d="M16.6292 3.37109C15.76 2.49478 14.7262 1.79875 13.5873 1.32294C12.4484 0.847126 11.2267 0.600907 9.99237 0.598408C8.75805 0.595909 7.53539 0.837178 6.39455 1.30837C5.2537 1.77957 4.21714 2.47141 3.34433 3.34419C2.47153 4.21698 1.77966 5.25354 1.30845 6.39437C0.837229 7.5352 0.595934 8.75786 0.598408 9.99218C0.600881 11.2265 0.847075 12.4482 1.32286 13.5871C1.79865 14.7261 2.49466 15.7598 3.37096 16.6291C4.24022 17.5054 5.27398 18.2015 6.4129 18.6773C7.55183 19.1531 8.77351 19.3993 10.0078 19.4018C11.2421 19.4043 12.4648 19.163 13.6056 18.6918C14.7465 18.2206 15.7831 17.5288 16.6559 16.656C17.5287 15.7832 18.2205 14.7467 18.6917 13.6058C19.163 12.465 19.4043 11.2423 19.4018 10.008C19.3993 8.7737 19.1531 7.55202 18.6773 6.41308C18.2015 5.27415 17.5055 4.24038 16.6292 3.37109ZM16.1873 16.1875C15.3748 17 14.4101 17.6445 13.3485 18.0843C12.2869 18.524 11.1491 18.7503 9.99999 18.7503C7.67931 18.7502 5.4537 17.8283 3.81275 16.1873C2.17181 14.5464 1.24995 12.3207 1.24998 10C1.25001 7.67937 2.17192 5.45376 3.81291 3.81281C5.45385 2.17187 7.67945 1.25 10.0001 1.25C12.3207 1.25 14.5463 2.17187 16.1873 3.81281C17.8282 5.45376 18.7501 7.67936 18.7501 10C18.7501 12.3206 17.8282 14.5462 16.1873 16.1872V16.1875Z"
			fill="white" />
		<path
			d="M10 2.5C5.86449 2.5 2.5 5.86449 2.5 10C2.5 14.1355 5.86449 17.5 10 17.5C14.1355 17.5 17.5 14.1355 17.5 10C17.5 5.86449 14.1355 2.5 10 2.5ZM10 3.125C13.168 3.125 15.8415 5.27875 16.6351 8.19867C14.5764 7.33145 12.2962 6.875 10 6.875C7.70383 6.875 5.42359 7.33145 3.36492 8.19867C4.15848 5.27875 6.83223 3.125 10 3.125ZM3.23922 11.25H4.0625C5.30527 11.2514 6.49674 11.7457 7.37551 12.6245C8.25428 13.5033 8.74859 14.6947 8.75 15.9375V16.7608C7.38272 16.5054 6.12468 15.8424 5.14114 14.8589C4.15761 13.8753 3.4946 12.6173 3.23922 11.25ZM9.375 16.8463V15.9375C9.375 13.0082 6.99184 10.625 4.0625 10.625H3.15371C3.13508 10.4191 3.125 10.2107 3.125 10C3.1249 9.64883 3.15161 9.29816 3.20492 8.95105C5.29008 8.00152 7.63562 7.5 10 7.5C12.3644 7.5 14.7099 8.00152 16.7951 8.95105C16.8484 9.29816 16.8751 9.64883 16.875 10C16.875 10.2107 16.8649 10.4191 16.8463 10.625H15.9375C13.0082 10.625 10.625 13.0082 10.625 15.9375V16.8463C10.4191 16.8649 10.2107 16.875 10 16.875C9.7893 16.875 9.58094 16.8649 9.375 16.8463ZM11.25 16.7608V15.9375C11.2514 14.6947 11.7457 13.5033 12.6245 12.6245C13.5033 11.7457 14.6947 11.2514 15.9375 11.25H16.7608C16.5054 12.6173 15.8424 13.8753 14.8589 14.8589C13.8753 15.8424 12.6173 16.5054 11.25 16.7608Z"
			fill="white" />
		<path
			d="M11.875 10C11.875 9.62916 11.765 9.26665 11.559 8.95831C11.353 8.64996 11.0601 8.40964 10.7175 8.26773C10.3749 8.12581 9.99792 8.08868 9.63421 8.16103C9.27049 8.23338 8.9364 8.41195 8.67418 8.67418C8.41195 8.9364 8.23338 9.27049 8.16103 9.63421C8.08868 9.99792 8.12581 10.3749 8.26773 10.7175C8.40964 11.0601 8.64996 11.353 8.95831 11.559C9.26665 11.765 9.62916 11.875 10 11.875C10.4971 11.8744 10.9737 11.6767 11.3252 11.3252C11.6767 10.9737 11.8744 10.4971 11.875 10ZM8.75 10C8.75 9.75277 8.82331 9.5111 8.96066 9.30554C9.09802 9.09998 9.29324 8.93976 9.52165 8.84515C9.75005 8.75054 10.0014 8.72579 10.2439 8.77402C10.4863 8.82225 10.7091 8.9413 10.8839 9.11612C11.0587 9.29093 11.1778 9.51366 11.226 9.75614C11.2742 9.99861 11.2495 10.2499 11.1549 10.4784C11.0602 10.7068 10.9 10.902 10.6945 11.0393C10.4889 11.1767 10.2472 11.25 10 11.25C9.66859 11.2496 9.35087 11.1178 9.11653 10.8835C8.88219 10.6491 8.75037 10.3314 8.75 10Z"
			fill="white" />
		<path d="M6.25 8.75H6.875V9.375H6.25V8.75Z" fill="white" />
		<path d="M5 9.375H5.625V10H5V9.375Z" fill="white" />
		<path d="M6.25 10H6.875V10.625H6.25V10Z" fill="white" />
		<path d="M13.125 10H13.75V10.625H13.125V10Z" fill="white" />
		<path d="M14.375 9.375H15V10H14.375V9.375Z" fill="white" />
		<path d="M13.125 8.75H13.75V9.375H13.125V8.75Z" fill="white" />
	</g>
	<defs>
		<clipPath id="clip0_1_1528">
			<rect width="20" height="20" fill="white" />
		</clipPath>
	</defs>
</svg>