<svg width="520" height="435" viewBox="0 0 520 435" fill="none" xmlns="http://www.w3.org/2000/svg">
<path d="M15.4316 152.587C12.3341 147.54 11.3267 142.745 12.4095 138.202C13.4924 133.659 16.5518 129.85 21.5877 126.775C26.7341 123.643 31.5509 122.564 36.0261 123.624C40.5013 124.683 44.3268 127.668 47.3411 132.674C49.3443 135.671 50.5912 139.109 50.9752 142.694C51.1899 145.703 50.5066 148.708 49.0119 151.328C47.2029 154.328 44.6518 156.811 41.6044 158.538C38.6886 160.47 35.3739 161.717 31.9081 162.187C28.8579 162.465 25.7947 161.819 23.1167 160.333C19.9043 158.49 17.2492 155.814 15.4316 152.587ZM25.0127 146.76C26.9354 149.896 28.8972 151.785 30.8982 152.427C31.9045 152.692 32.9538 152.751 33.9834 152.601C35.013 152.451 36.0017 152.094 36.8906 151.554C37.7795 151.013 38.5503 150.299 39.1569 149.453C39.7636 148.608 40.1937 147.649 40.4214 146.634C40.7317 144.607 39.8237 141.861 37.6973 138.398C35.9057 135.485 34.0123 133.716 32.017 133.09C31.0077 132.79 29.9442 132.717 28.9035 132.879C27.8628 133.04 26.871 133.431 26 134.022C25.1026 134.528 24.3316 135.231 23.7452 136.078C23.1587 136.925 22.772 137.894 22.6143 138.912C22.2807 140.993 23.0871 143.616 25.0127 146.76Z" fill="#007892"/>
<path d="M53.6616 135.048C52.6466 133.506 51.9681 131.768 51.6704 129.947C51.3726 128.126 51.4623 126.262 51.9336 124.478C52.4924 122.56 53.4258 120.772 54.6799 119.216C55.934 117.661 57.4839 116.37 59.2401 115.417C63.7382 112.663 67.9299 111.879 71.8151 113.065C74.9878 114.076 77.668 116.236 79.3295 119.122C80.3486 120.664 81.033 122.402 81.3385 124.225C81.644 126.047 81.5639 127.914 81.1032 129.704C80.1634 133.307 77.7061 136.399 73.6393 138.832C70.5833 140.905 66.893 141.833 63.2196 141.451C61.2402 141.194 59.3473 140.482 57.689 139.371C56.0307 138.26 54.6523 136.78 53.6616 135.048ZM62.2577 129.749C63.0962 131.401 64.4901 132.704 66.1947 133.43C66.8407 133.65 67.5272 133.725 68.2056 133.651C68.884 133.576 69.5377 133.354 70.1206 132.999C70.7035 132.644 71.2013 132.165 71.5787 131.596C71.9561 131.028 72.204 130.383 72.3049 129.708C72.3974 127.822 71.8349 125.961 70.7127 124.442C69.8876 122.826 68.5185 121.553 66.8467 120.847C66.2161 120.616 65.5409 120.531 64.8725 120.599C64.2041 120.667 63.56 120.887 62.9892 121.241C62.3911 121.595 61.8817 122.082 61.5 122.663C61.1183 123.243 60.8742 123.904 60.7864 124.594C60.6588 126.431 61.1795 128.255 62.2577 129.749Z" fill="#007892"/>
<path d="M95.6632 136.351L76.6634 105.378L84.6887 100.439L86.7147 103.757C86.8493 102.118 87.3004 100.52 88.043 99.052C88.914 97.5937 90.1341 96.375 91.5935 95.5058C92.9124 94.6178 94.4338 94.0764 96.0172 93.9317C97.6007 93.7871 99.195 94.0437 100.653 94.6781C103.898 96.1256 106.592 98.5794 108.334 101.676C110.625 105.408 111.484 108.812 110.911 111.889C110.652 113.363 110.073 114.762 109.216 115.989C108.358 117.216 107.243 118.241 105.947 118.991C104.721 119.774 103.349 120.301 101.913 120.539C100.527 120.761 99.1103 120.689 97.7538 120.329L104.321 131.03L95.6632 136.351ZM92.1997 111.389C92.9516 112.866 94.2098 114.023 95.7444 114.649C96.3419 114.854 96.978 114.921 97.605 114.845C98.2321 114.769 98.8338 114.553 99.3651 114.211C99.8533 113.914 100.265 113.506 100.567 113.021C100.87 112.536 101.054 111.987 101.106 111.417C101.134 109.686 100.585 107.996 99.5452 106.611C98.7915 105.126 97.5542 103.943 96.0374 103.256C95.4916 103.044 94.9042 102.962 94.3213 103.016C93.7383 103.069 93.1757 103.257 92.6774 103.564C92.1499 103.878 91.7004 104.307 91.3631 104.82C91.0257 105.333 90.8093 105.916 90.73 106.525C90.6405 108.268 91.1601 109.987 92.1997 111.389Z" fill="#007892"/>
<path d="M113.874 104.856L121.902 98.8207C122.681 99.5351 123.668 99.9822 124.718 100.097C125.765 100.096 126.788 99.7833 127.656 99.1972C128.646 98.6744 129.43 97.8322 129.88 96.8075C130.017 96.5194 130.079 96.2017 130.06 95.8835C130.042 95.5652 129.944 95.2567 129.775 94.9862C129.583 94.6806 129.305 94.438 128.976 94.2886C128.647 94.1391 128.281 94.0893 127.924 94.1451C126.476 94.4799 125.064 94.9586 123.711 95.5741C121.415 96.5674 119.041 97.3723 116.615 97.981C115.164 98.2442 113.669 98.0879 112.304 97.5305C110.879 96.9812 109.68 95.9668 108.903 94.6516C108.02 93.2899 107.644 91.6613 107.841 90.0505C108.089 88.3607 108.81 86.7756 109.921 85.4786C111.519 83.6831 113.399 82.1606 115.488 80.9715C117.436 79.6699 119.558 78.6513 121.792 77.9462C123.21 77.5721 124.697 77.543 126.129 77.8612C127.682 78.2858 129.131 79.0255 130.386 80.0343L122.739 85.843C122.195 85.2981 121.472 84.9674 120.704 84.9116C119.688 84.8894 118.688 85.1753 117.837 85.7318C117.058 86.1268 116.428 86.7635 116.041 87.5465C115.924 87.8128 115.872 88.1034 115.891 88.3937C115.91 88.684 115.999 88.9654 116.149 89.2143C116.314 89.4863 116.558 89.7007 116.85 89.8277C117.141 89.9548 117.465 89.9883 117.776 89.9237C119.219 89.6286 120.613 89.1279 121.914 88.437C124.195 87.2728 126.618 86.4092 129.122 85.8677C130.706 85.5727 132.342 85.7503 133.826 86.3784C135.188 86.9589 136.334 87.9513 137.103 89.2164C137.907 90.5731 138.302 92.1334 138.239 93.7092C138.141 95.5903 137.48 97.3985 136.341 98.8985C134.64 101.053 132.535 102.855 130.143 104.202C126.045 106.719 122.759 107.926 120.285 107.822C117.84 107.72 115.535 106.654 113.874 104.856Z" fill="#007892"/>
<path d="M133.788 63.8308L143.991 60.3701L146.647 68.1998L150.098 84.5872L143.797 86.7243L136.51 71.6935L133.788 63.8308ZM143.09 89.6248L152.623 86.3917L155.477 94.8056L145.957 98.0345L143.09 89.6248Z" fill="#007892"/>
<mask id="path-6-outside-1_1_932" maskUnits="userSpaceOnUse" x="33.2057" y="65.3603" width="349.535" height="227.501" fill="black">
<rect fill="white" x="33.2057" y="65.3603" width="349.535" height="227.501"/>
<path d="M70.0341 268.586L62.6788 246.9L88.2457 159.027L118.261 148.846L141.819 218.305L154.705 213.935L162.593 237.192L149.707 241.563L156.636 261.992L129.764 271.106L122.835 250.677L70.0341 268.586ZM103.295 186.865L90.4322 235.734L116.833 226.78L103.295 186.865ZM162.697 194.227C156.586 176.208 155.228 160.84 158.625 148.123C162.126 135.37 171.63 126.365 187.135 121.106C202.64 115.847 215.608 117.231 226.041 125.257C236.578 133.248 244.902 146.253 251.014 164.273C257.196 182.502 258.537 197.992 255.036 210.745C251.639 223.462 242.188 232.45 226.683 237.709C211.178 242.967 198.157 241.601 187.62 233.61C177.188 225.584 168.88 212.456 162.697 194.227ZM224.613 173.227C221.024 162.646 217.118 154.918 212.894 150.042C208.635 145.062 202.891 143.797 195.663 146.249C188.434 148.701 184.644 153.199 184.294 159.743C183.908 166.182 185.509 174.692 189.098 185.273C191.514 192.397 193.941 198.174 196.378 202.604C198.78 206.929 201.735 210.132 205.244 212.213C208.823 214.153 213.126 214.271 218.155 212.565C223.184 210.859 226.476 208.166 228.03 204.485C229.655 200.663 230.104 196.305 229.379 191.411C228.618 186.412 227.029 180.351 224.613 173.227ZM278.898 197.745L271.543 176.059L297.109 88.1861L327.124 78.0059L350.683 147.465L363.569 143.094L371.457 166.352L358.571 170.722L365.5 191.151L338.628 200.266L331.699 179.837L278.898 197.745ZM312.158 116.024L299.296 164.894L325.697 155.939L312.158 116.024Z"/>
</mask>
<path d="M70.0341 268.586L67.1931 269.549L68.1567 272.39L70.9977 271.427L70.0341 268.586ZM62.6788 246.9L59.7982 246.061L59.5343 246.969L59.8378 247.863L62.6788 246.9ZM88.2457 159.027L87.2821 156.186L85.8018 156.688L85.3651 158.189L88.2457 159.027ZM118.261 148.846L121.102 147.883L120.138 145.042L117.297 146.005L118.261 148.846ZM141.819 218.305L138.978 219.269L139.942 222.11L142.783 221.146L141.819 218.305ZM154.705 213.935L157.546 212.971L156.583 210.13L153.742 211.094L154.705 213.935ZM162.593 237.192L163.557 240.033L166.398 239.07L165.434 236.229L162.593 237.192ZM149.707 241.563L148.744 238.722L145.903 239.685L146.866 242.526L149.707 241.563ZM156.636 261.992L157.6 264.833L160.441 263.869L159.477 261.028L156.636 261.992ZM129.764 271.106L126.923 272.07L127.887 274.911L130.728 273.947L129.764 271.106ZM122.835 250.677L125.676 249.714L124.713 246.872L121.872 247.836L122.835 250.677ZM103.295 186.865L106.136 185.901L102.932 176.456L100.394 186.101L103.295 186.865ZM90.4322 235.734L87.531 234.971L86.1104 240.368L91.3958 238.575L90.4322 235.734ZM116.833 226.78L117.796 229.621L120.637 228.657L119.674 225.816L116.833 226.78ZM72.8752 267.622L65.5198 245.936L59.8378 247.863L67.1931 269.549L72.8752 267.622ZM65.5593 247.738L91.1262 159.865L85.3651 158.189L59.7982 246.061L65.5593 247.738ZM89.2093 161.868L119.224 151.687L117.297 146.005L87.2821 156.186L89.2093 161.868ZM115.42 149.81L138.978 219.269L144.66 217.342L121.102 147.883L115.42 149.81ZM142.783 221.146L155.669 216.776L153.742 211.094L140.856 215.464L142.783 221.146ZM151.864 214.898L159.752 238.156L165.434 236.229L157.546 212.971L151.864 214.898ZM161.63 234.351L148.744 238.722L150.671 244.404L163.557 240.033L161.63 234.351ZM146.866 242.526L153.795 262.956L159.477 261.028L152.548 240.599L146.866 242.526ZM155.673 259.151L128.801 268.265L130.728 273.947L157.6 264.833L155.673 259.151ZM132.605 270.143L125.676 249.714L119.994 251.641L126.923 272.07L132.605 270.143ZM121.872 247.836L69.0705 265.745L70.9977 271.427L123.799 253.518L121.872 247.836ZM100.394 186.101L87.531 234.971L93.3334 236.498L106.196 187.628L100.394 186.101ZM91.3958 238.575L117.796 229.621L115.869 223.939L89.4686 232.893L91.3958 238.575ZM119.674 225.816L106.136 185.901L100.454 187.828L113.992 227.743L119.674 225.816ZM158.625 148.123L155.732 147.328L155.729 147.338L155.726 147.349L158.625 148.123ZM226.041 125.257L224.211 127.635L224.22 127.641L224.228 127.648L226.041 125.257ZM255.036 210.745L252.143 209.951L252.14 209.961L252.137 209.971L255.036 210.745ZM187.62 233.61L185.79 235.988L185.799 235.994L185.807 236.001L187.62 233.61ZM212.894 150.042L210.614 151.992L210.621 151.999L210.627 152.006L212.894 150.042ZM184.294 159.743L187.288 159.922L187.289 159.913L187.289 159.903L184.294 159.743ZM196.378 202.604L193.749 204.05L193.755 204.06L196.378 202.604ZM205.244 212.213L203.714 214.794L203.764 214.823L203.814 214.85L205.244 212.213ZM228.03 204.485L225.269 203.311L225.267 203.317L228.03 204.485ZM229.379 191.411L232.346 190.971L232.345 190.96L229.379 191.411ZM165.538 193.264C159.536 175.567 158.333 160.839 161.523 148.897L155.726 147.349C152.123 160.84 153.635 176.848 159.856 195.191L165.538 193.264ZM161.518 148.917C164.692 137.358 173.281 128.972 188.098 123.947L186.171 118.265C169.978 123.757 159.561 133.383 155.732 147.328L161.518 148.917ZM188.098 123.947C202.916 118.921 214.772 120.372 224.211 127.635L227.87 122.879C216.445 114.089 202.363 112.773 186.171 118.265L188.098 123.947ZM224.228 127.648C234.12 135.15 242.173 147.547 248.173 165.236L253.855 163.309C247.631 144.96 239.035 131.347 227.853 122.867L224.228 127.648ZM248.173 165.236C254.246 183.144 255.428 197.984 252.143 209.951L257.929 211.539C261.646 198.001 260.147 181.86 253.855 163.309L248.173 165.236ZM252.137 209.971C249.064 221.478 240.538 229.842 225.719 234.867L227.647 240.55C243.839 235.058 254.214 225.446 257.934 211.519L252.137 209.971ZM225.719 234.867C210.903 239.893 198.984 238.463 189.433 231.22L185.807 236.001C197.33 244.739 211.453 246.042 227.647 240.55L225.719 234.867ZM189.449 231.233C179.657 223.698 171.614 211.177 165.538 193.264L159.856 195.191C166.146 213.735 174.718 227.469 185.79 235.988L189.449 231.233ZM227.454 172.264C223.818 161.544 219.761 153.386 215.162 148.078L210.627 152.006C214.475 156.449 218.23 163.748 221.772 174.191L227.454 172.264ZM215.174 148.092C212.672 145.166 209.619 143.217 206.037 142.429C202.494 141.649 198.68 142.058 194.699 143.408L196.626 149.09C199.874 147.989 202.546 147.804 204.747 148.288C206.91 148.764 208.858 149.938 210.614 151.992L215.174 148.092ZM194.699 143.408C190.718 144.758 187.442 146.754 185.105 149.528C182.742 152.333 181.504 155.737 181.298 159.582L187.289 159.903C187.434 157.204 188.266 155.088 189.693 153.394C191.145 151.671 193.379 150.192 196.626 149.09L194.699 143.408ZM181.299 159.563C180.879 166.574 182.621 175.517 186.257 186.236L191.939 184.309C188.397 173.866 186.937 165.789 187.288 159.922L181.299 159.563ZM186.257 186.236C188.705 193.455 191.197 199.411 193.749 204.05L199.006 201.158C196.684 196.937 194.323 191.339 191.939 184.309L186.257 186.236ZM193.755 204.06C196.36 208.752 199.659 212.389 203.714 214.794L206.774 209.632C203.811 207.875 201.199 205.107 199.001 201.148L193.755 204.06ZM203.814 214.85C208.334 217.301 213.552 217.294 219.119 215.406L217.191 209.724C212.7 211.247 209.311 211.006 206.674 209.576L203.814 214.85ZM219.119 215.406C224.678 213.521 228.805 210.36 230.794 205.652L225.267 203.317C224.146 205.972 221.69 208.198 217.191 209.724L219.119 215.406ZM230.791 205.658C232.67 201.238 233.137 196.306 232.346 190.971L226.411 191.851C227.071 196.304 226.639 200.088 225.269 203.311L230.791 205.658ZM232.345 190.96C231.548 185.725 229.902 179.482 227.454 172.264L221.772 174.191C224.156 181.22 225.688 187.1 226.413 191.863L232.345 190.96ZM278.898 197.745L276.057 198.709L277.02 201.55L279.861 200.586L278.898 197.745ZM271.543 176.059L268.662 175.221L268.398 176.128L268.701 177.023L271.543 176.059ZM297.109 88.1861L296.146 85.3451L294.666 85.8471L294.229 87.348L297.109 88.1861ZM327.124 78.0059L329.965 77.0423L329.002 74.2012L326.161 75.1648L327.124 78.0059ZM350.683 147.465L347.842 148.428L348.805 151.269L351.646 150.306L350.683 147.465ZM363.569 143.094L366.41 142.13L365.446 139.289L362.605 140.253L363.569 143.094ZM371.457 166.352L372.421 169.193L375.262 168.229L374.298 165.388L371.457 166.352ZM358.571 170.722L357.608 167.881L354.767 168.845L355.73 171.686L358.571 170.722ZM365.5 191.151L366.464 193.992L369.305 193.029L368.341 190.188L365.5 191.151ZM338.628 200.266L335.787 201.229L336.751 204.07L339.592 203.107L338.628 200.266ZM331.699 179.837L334.54 178.873L333.577 176.032L330.736 176.996L331.699 179.837ZM312.158 116.024L314.999 115.06L311.796 105.615L309.257 115.26L312.158 116.024ZM299.296 164.894L296.395 164.13L294.974 169.527L300.26 167.735L299.296 164.894ZM325.697 155.939L326.66 158.78L329.501 157.817L328.538 154.976L325.697 155.939ZM281.739 196.782L274.384 175.095L268.701 177.023L276.057 198.709L281.739 196.782ZM274.423 176.897L299.99 89.0242L294.229 87.348L268.662 175.221L274.423 176.897ZM298.073 91.0271L328.088 80.8469L326.161 75.1648L296.146 85.3451L298.073 91.0271ZM324.283 78.9695L347.842 148.428L353.524 146.501L329.965 77.0423L324.283 78.9695ZM351.646 150.306L364.532 145.935L362.605 140.253L349.719 144.624L351.646 150.306ZM360.728 144.058L368.616 167.315L374.298 165.388L366.41 142.13L360.728 144.058ZM370.494 163.511L357.608 167.881L359.535 173.563L372.421 169.193L370.494 163.511ZM355.73 171.686L362.659 192.115L368.341 190.188L361.412 169.759L355.73 171.686ZM364.537 188.31L337.664 197.425L339.592 203.107L366.464 193.992L364.537 188.31ZM341.469 199.302L334.54 178.873L328.858 180.8L335.787 201.229L341.469 199.302ZM330.736 176.996L277.934 194.904L279.861 200.586L332.663 182.678L330.736 176.996ZM309.257 115.26L296.395 164.13L302.197 165.657L315.06 116.788L309.257 115.26ZM300.26 167.735L326.66 158.78L324.733 153.098L298.332 162.053L300.26 167.735ZM328.538 154.976L314.999 115.06L309.317 116.988L322.855 156.903L328.538 154.976Z" fill="white" mask="url(#path-6-outside-1_1_932)"/>
<g clip-path="url(#clip0_1_932)">
<path d="M383.806 418.256H365.095C361.94 418.256 358.945 416.876 356.191 414.153C355.976 413.941 355.805 413.688 355.687 413.409C355.57 413.131 355.508 412.832 355.506 412.53C355.504 412.227 355.561 411.928 355.675 411.647C355.789 411.367 355.957 411.113 356.169 410.897C356.381 410.682 356.634 410.511 356.912 410.393C357.191 410.276 357.49 410.214 357.792 410.212C358.094 410.21 358.394 410.267 358.674 410.381C358.954 410.495 359.209 410.663 359.425 410.875C361.287 412.714 363.197 413.646 365.086 413.646H383.809C391.577 413.646 400.237 396.634 400.237 372.226C400.237 359.711 397.918 347.937 393.872 339.922C393.595 339.377 393.546 338.744 393.736 338.163C393.926 337.582 394.338 337.101 394.883 336.824C395.428 336.547 396.061 336.499 396.642 336.688C397.223 336.878 397.704 337.291 397.981 337.836C402.337 346.477 404.835 358.993 404.835 372.214C404.835 398.038 395.597 418.256 383.806 418.256ZM384.589 412.058C384.12 412.059 383.662 411.914 383.278 411.644C373.817 405.061 371.821 387.096 371.41 379.676C371.375 379.068 371.582 378.471 371.988 378.016C372.393 377.561 372.962 377.286 373.57 377.25C375.06 377.152 375.93 378.144 375.996 379.417C376.794 393.467 380.495 404.105 385.901 407.871C386.302 408.151 386.603 408.552 386.761 409.014C386.919 409.477 386.925 409.978 386.779 410.445C386.633 410.912 386.342 411.32 385.948 411.61C385.554 411.9 385.079 412.057 384.589 412.058ZM235.343 393.75C204.129 393.75 160.513 391.595 152.62 388.636C151.767 388.317 150.587 387.76 150.075 386.598C147.691 381.166 147.259 368.489 154.991 364.634C160.555 361.862 261.176 365.28 265.768 366.797C269.907 368.174 271.727 374.393 272.01 379.312C272.38 385.57 270.565 390.245 267.159 391.849C264.308 393.175 251.479 393.75 235.343 393.75ZM154.103 384.295C162.274 388.097 257.803 391.071 265.207 387.674C266.721 386.962 267.654 383.553 267.416 379.572C267.118 374.723 265.404 371.526 264.319 371.165C257.743 369.282 163.004 367.196 156.949 368.799C152.816 370.981 152.301 379.581 154.103 384.295ZM470.582 347.446H459.148C457.513 347.446 455.051 346.832 452.593 343.912C452.392 343.681 452.239 343.413 452.143 343.123C452.047 342.833 452.01 342.527 452.034 342.222C452.058 341.917 452.142 341.62 452.282 341.349C452.421 341.077 452.614 340.836 452.848 340.639C453.082 340.443 453.352 340.295 453.644 340.204C453.936 340.113 454.243 340.082 454.547 340.111C454.851 340.14 455.147 340.229 455.416 340.374C455.685 340.518 455.923 340.715 456.115 340.953C456.839 341.817 457.954 342.845 459.145 342.845H470.582C474.396 342.845 479.718 332.46 479.718 315.546C479.718 304.616 477.236 294.374 473.538 290.054C473.325 289.827 473.16 289.559 473.053 289.266C472.947 288.973 472.901 288.662 472.918 288.351C472.935 288.04 473.015 287.735 473.154 287.456C473.292 287.177 473.486 286.929 473.723 286.727C473.96 286.525 474.236 286.373 474.533 286.281C474.831 286.189 475.144 286.158 475.454 286.19C475.764 286.223 476.064 286.318 476.336 286.47C476.608 286.622 476.846 286.827 477.037 287.074C481.527 292.324 484.319 303.237 484.319 315.555C484.313 331.009 479.498 347.446 470.582 347.446ZM469.796 340.094C464.73 340.094 463.669 326.685 463.669 315.424C463.655 311.437 463.847 307.451 464.244 303.484C464.269 303.178 464.354 302.88 464.496 302.608C464.637 302.335 464.832 302.094 465.068 301.898C465.304 301.702 465.577 301.555 465.871 301.467C466.165 301.378 466.473 301.349 466.779 301.381C467.084 301.413 467.379 301.506 467.648 301.654C467.917 301.802 468.153 302.003 468.343 302.244C468.533 302.485 468.673 302.761 468.755 303.057C468.836 303.353 468.858 303.662 468.818 303.967C468.441 307.774 468.258 311.598 468.27 315.424C468.27 327.12 469.76 334.084 470.654 335.657C471.15 335.856 471.562 336.221 471.819 336.69C472.076 337.159 472.161 337.703 472.06 338.228C471.959 338.753 471.679 339.227 471.266 339.567C470.854 339.908 470.336 340.094 469.801 340.094H469.796ZM401.616 282.136C401.531 282.136 401.445 282.13 401.36 282.118C400.754 282.05 400.199 281.744 399.818 281.268C399.437 280.791 399.261 280.183 399.328 279.577C399.45 278.51 402.308 253.354 404.394 243.47C405.41 238.702 407.85 235.126 411.459 233.138C415.887 230.704 421.754 230.734 428.408 233.198C434.183 235.335 451.976 246.756 458.803 258.25C459.114 258.774 459.205 259.4 459.054 259.991C458.904 260.581 458.525 261.088 458.001 261.399C457.477 261.711 456.851 261.801 456.26 261.651C455.67 261.501 455.163 261.122 454.852 260.598C448.495 249.912 431.528 239.259 426.817 237.51C421.51 235.543 416.843 235.424 413.676 237.167C411.238 238.508 409.632 240.952 408.908 244.426C406.843 254.105 403.932 279.836 403.908 280.092C403.843 280.655 403.573 281.175 403.149 281.552C402.725 281.929 402.178 282.137 401.61 282.136H401.616ZM392.429 282.136C392.402 282.139 392.374 282.139 392.346 282.136L235.513 276.317C235.113 276.304 234.723 276.187 234.382 275.976C234.041 275.766 233.761 275.47 233.57 275.118C233.38 274.766 233.284 274.37 233.294 273.97C233.304 273.569 233.419 273.178 233.627 272.836C234.521 271.346 255.827 236.288 282.687 229.44C314.551 221.323 394.012 224.89 399.173 234.676C403.345 242.585 396.148 274.132 394.67 280.372C394.548 280.876 394.26 281.323 393.852 281.643C393.445 281.963 392.942 282.137 392.423 282.136H392.429ZM239.73 271.868L390.615 277.467C393.815 263.485 397.582 241.539 395.085 236.813C390.838 231.276 317.975 225.191 283.808 233.889C263.423 239.092 245.707 262.985 239.724 271.868H239.73Z" fill="#007892"/>
<path d="M310.239 414.653C200.825 414.653 138.641 410.589 125.292 402.561C102.12 388.618 103.881 353.805 103.971 352.33C104.006 351.721 104.281 351.151 104.737 350.746C105.192 350.341 105.789 350.133 106.398 350.168C107.006 350.203 107.576 350.478 107.981 350.934C108.387 351.389 108.595 351.986 108.56 352.595C108.539 352.932 106.888 386.121 127.664 398.622C136.821 404.129 178.977 410.541 327.689 410.02L334.984 409.999C348.215 409.999 356.251 403.413 360.665 397.886C362.751 395.255 363.844 391.732 363.707 387.972C362.259 348.53 378.35 335.121 385.335 331.188C391.658 327.636 398.533 327.18 402.877 330.031C403.365 330.376 403.701 330.897 403.812 331.484C403.923 332.072 403.801 332.679 403.473 333.179C403.145 333.678 402.635 334.03 402.052 334.161C401.468 334.291 400.857 334.19 400.347 333.878C397.963 332.305 393.1 332.09 387.591 335.198C382.716 337.943 366.907 349.853 368.308 387.805C368.481 392.662 367.041 397.26 364.258 400.755C359.216 407.073 350.047 414.6 334.984 414.6L327.707 414.621C321.76 414.642 315.937 414.653 310.239 414.653ZM388.291 398.133C380.412 398.133 380.183 376.201 380.183 373.698C380.183 371.195 380.412 349.263 388.291 349.263C396.17 349.263 396.408 371.195 396.408 373.698C396.408 376.201 396.182 398.133 388.291 398.133ZM388.023 353.811C387.209 354.612 384.784 361.943 384.784 373.701C384.784 385.46 387.209 392.79 388.562 393.589C389.384 392.79 391.807 385.457 391.807 373.701C391.807 361.946 389.384 354.612 388.023 353.811ZM409.805 367.08C409.318 367.081 408.843 366.926 408.449 366.639C408.054 366.352 407.762 365.948 407.612 365.483C407.463 365.019 407.465 364.52 407.618 364.057C407.772 363.594 408.068 363.192 408.464 362.908L454.62 329.868C453.46 299.095 460.436 286.719 466.539 281.767C469.85 279.085 472.916 278.59 474.742 279.058C475.036 279.133 475.312 279.266 475.554 279.448C475.796 279.629 476.001 279.857 476.155 280.118C476.309 280.379 476.41 280.668 476.453 280.968C476.496 281.268 476.479 281.573 476.404 281.866C476.328 282.16 476.196 282.436 476.014 282.678C475.832 282.92 475.604 283.124 475.344 283.279C475.083 283.433 474.794 283.534 474.494 283.577C474.194 283.62 473.889 283.603 473.595 283.528C473.297 283.444 471.509 283.569 469.221 285.527C464.915 289.187 457.897 299.947 459.262 330.925C459.277 331.307 459.198 331.686 459.031 332.03C458.864 332.374 458.615 332.671 458.306 332.895L411.14 366.657C410.747 366.936 410.276 367.084 409.794 367.08H409.805ZM238.717 360.191C170.046 360.191 130.208 356.436 113.348 348.372C109.571 346.581 106.629 343.405 105.131 339.502C103.633 335.6 103.694 331.271 105.303 327.412C108.399 320.01 114.886 308.859 128.188 297.777C148.293 281.028 160.928 279.573 188.623 276.391C197.952 275.318 209.511 273.989 223.687 271.778C226.711 266.537 241.324 242.638 264.213 228.162C291.061 211.177 351.472 211.579 395.046 217.08C432.911 221.863 449.986 235.159 466.682 256.503C466.868 256.741 467.006 257.013 467.087 257.304C467.168 257.594 467.19 257.898 467.154 258.197C467.118 258.497 467.023 258.786 466.874 259.049C466.726 259.312 466.528 259.543 466.29 259.729C466.053 259.915 465.781 260.053 465.49 260.134C465.199 260.215 464.896 260.238 464.596 260.201C464.297 260.165 464.007 260.07 463.744 259.922C463.482 259.773 463.251 259.575 463.064 259.337C446.714 238.445 430.945 226.261 394.474 221.642C351.656 216.231 292.497 215.718 266.668 232.048C242.394 247.4 227.307 274.701 227.158 274.979C226.989 275.287 226.752 275.554 226.464 275.757C226.176 275.96 225.846 276.094 225.498 276.15C210.73 278.48 198.76 279.857 189.144 280.959C161.58 284.127 150.173 285.429 131.126 301.312C118.539 311.795 112.442 322.26 109.537 329.191C108.388 331.963 108.35 335.072 109.432 337.871C110.514 340.671 112.633 342.946 115.348 344.224C131.338 351.871 171.697 355.59 238.714 355.59C331.203 355.59 340.58 346.418 340.923 346.024C341.412 344.853 342.648 344.505 343.822 344.999C344.997 345.494 345.426 347.037 344.934 348.209C343.757 351.016 332.588 360.191 238.717 360.191ZM413.337 353.867C412.76 353.867 412.205 353.651 411.78 353.26C411.356 352.87 411.094 352.335 411.045 351.761L405.851 290.021C405.826 289.711 405.864 289.399 405.963 289.103C406.061 288.808 406.218 288.536 406.425 288.303C406.632 288.071 406.883 287.882 407.165 287.749C407.446 287.616 407.751 287.542 408.062 287.53C414.77 287.291 425.298 286.859 426.803 286.657C432.965 285.831 439.252 283.426 439.354 280.426C439.434 278.131 437.637 276.316 436.559 275.44C433.191 272.696 427.977 271.489 423.879 272.49C422.578 272.804 421.359 273.394 420.307 274.222C419.255 275.049 418.394 276.094 417.783 277.285C417.735 277.368 417.687 277.449 417.634 277.526C415.178 282.592 411.158 284.207 408.941 284.711C408.346 284.846 407.722 284.738 407.206 284.413C406.69 284.087 406.324 283.57 406.189 282.975C406.055 282.38 406.162 281.756 406.487 281.24C406.813 280.723 407.33 280.358 407.925 280.223C409.686 279.824 412.097 278.632 413.638 275.211C413.722 275.021 413.831 274.844 413.962 274.684C414.892 273.023 416.157 271.573 417.676 270.426C419.196 269.279 420.937 268.46 422.789 268.021C428.287 266.68 434.982 268.232 439.455 271.871C442.462 274.317 444.062 277.41 443.955 280.584C443.677 288.427 431.228 290.715 427.419 291.213C425.631 291.454 415.5 291.856 410.637 292.038L415.646 351.367C415.695 351.975 415.502 352.578 415.107 353.043C414.713 353.509 414.15 353.799 413.542 353.849L413.337 353.867ZM210.739 343.849H209.654C186.531 343.709 159.718 339.504 151.923 330.44C136.848 312.891 155.618 290.96 155.796 290.739C156.201 290.292 156.764 290.022 157.366 289.986C157.967 289.95 158.559 290.152 159.013 290.548C159.468 290.944 159.749 291.502 159.796 292.103C159.843 292.704 159.652 293.299 159.265 293.761C158.589 294.535 142.926 312.921 155.391 327.433C161.142 334.123 183.965 339.093 209.663 339.248C236.801 339.421 270.357 334.135 283.838 318.827C309.027 290.221 361.862 279.022 388.657 283.611C389.259 283.714 389.795 284.052 390.147 284.55C390.499 285.049 390.639 285.666 390.536 286.268C390.433 286.869 390.095 287.405 389.597 287.757C389.099 288.11 388.481 288.25 387.88 288.147C362.152 283.724 311.458 294.452 287.321 321.867C269.526 342.067 225.546 343.849 210.739 343.849ZM488.965 308.293C488.577 308.295 488.196 308.198 487.855 308.012C487.515 307.826 487.227 307.557 487.019 307.229C486.811 306.902 486.689 306.527 486.664 306.14C486.64 305.753 486.714 305.366 486.879 305.015C487.773 300.984 485.688 273.864 477.734 270.044C468.279 265.5 462.313 265.994 448.678 272.428C448.124 272.689 447.49 272.719 446.915 272.512C446.339 272.305 445.869 271.878 445.608 271.325C445.348 270.772 445.317 270.138 445.524 269.562C445.731 268.987 446.158 268.517 446.711 268.256C461.572 261.238 468.968 260.705 479.725 265.872C483.748 267.806 486.876 272.973 488.983 281.23C491.415 290.679 492.44 305.048 490.84 307.292C490.632 307.596 490.354 307.846 490.029 308.02C489.704 308.194 489.343 308.288 488.974 308.293H488.965Z" fill="#E2E8F0"/>
<path d="M388.291 396.754C383.871 396.754 381.562 385.159 381.562 373.701C381.562 362.244 383.871 350.649 388.291 350.649C392.71 350.649 395.031 362.244 395.031 373.701C395.031 385.159 392.713 396.754 388.291 396.754ZM388.291 352.488C386.297 352.488 383.407 360.754 383.407 373.701C383.407 386.649 386.297 394.912 388.291 394.912C390.284 394.912 393.187 386.649 393.187 373.701C393.187 360.754 390.287 352.488 388.291 352.488Z" fill="#D3FAFF"/>
<path d="M238.717 358.817C170.258 358.817 130.611 355.107 113.948 347.136C110.488 345.5 107.791 342.595 106.415 339.024C105.039 335.453 105.09 331.489 106.558 327.955C109.6 320.693 115.974 309.748 129.058 298.847C148.848 282.36 161.351 280.918 188.763 277.771C198.257 276.68 210.042 275.327 224.548 273.048C226.535 269.558 241.599 244.098 264.937 229.336C291.481 212.548 351.526 212.983 394.859 218.457C432.25 223.183 449.092 236.297 465.583 257.365C465.657 257.46 465.712 257.569 465.744 257.685C465.776 257.801 465.786 257.923 465.771 258.043C465.756 258.162 465.718 258.278 465.659 258.383C465.599 258.488 465.52 258.581 465.425 258.655C465.33 258.729 465.221 258.784 465.105 258.817C464.988 258.849 464.867 258.858 464.747 258.843C464.627 258.829 464.511 258.79 464.406 258.731C464.301 258.672 464.209 258.592 464.134 258.497C447.563 237.313 431.576 224.95 394.632 220.283C351.588 214.845 292.054 214.359 265.917 230.892C241.342 246.432 226.083 274.049 225.934 274.326C225.866 274.45 225.771 274.556 225.656 274.638C225.541 274.719 225.408 274.772 225.269 274.794C210.525 277.121 198.576 278.495 188.968 279.597C161.122 282.801 149.599 284.124 130.23 300.26C117.416 310.925 111.215 321.593 108.256 328.667C106.968 331.765 106.923 335.239 108.13 338.369C109.337 341.5 111.703 344.045 114.737 345.476C131.147 353.322 170.541 356.978 238.714 356.978C334.347 356.978 341.749 347.3 342.02 346.886C342.068 346.777 342.137 346.679 342.223 346.598C342.309 346.516 342.411 346.453 342.522 346.411C342.633 346.369 342.751 346.35 342.869 346.354C342.988 346.358 343.104 346.386 343.212 346.436C343.437 346.541 343.611 346.731 343.698 346.964C343.785 347.196 343.777 347.454 343.677 347.681C343.194 348.811 336.158 358.817 238.717 358.817Z" fill="#E2E8F0"/>
<path d="M488.974 306.911C488.783 306.913 488.596 306.853 488.441 306.741C488.251 306.607 488.119 306.406 488.073 306.178C488.026 305.951 488.068 305.714 488.191 305.516C489.084 303.105 487.812 273.364 478.336 268.81C468.544 264.099 462.042 264.618 448.1 271.194C447.879 271.299 447.626 271.313 447.396 271.231C447.165 271.149 446.977 270.98 446.872 270.759C446.767 270.539 446.754 270.285 446.835 270.055C446.917 269.825 447.086 269.637 447.307 269.531C461.878 262.654 468.711 262.141 479.141 267.148C482.776 268.897 485.637 273.763 487.657 281.609C490.214 291.541 490.837 304.956 489.722 306.52C489.638 306.641 489.526 306.739 489.396 306.807C489.266 306.875 489.121 306.911 488.974 306.911Z" fill="#D3FAFF"/>
<path d="M409.794 365.7C409.598 365.702 409.407 365.64 409.249 365.525C409.091 365.411 408.973 365.248 408.914 365.062C408.854 364.876 408.856 364.675 408.918 364.49C408.98 364.305 409.1 364.144 409.26 364.032L456.014 330.559C454.673 298.183 462.57 286.755 467.4 282.839C470.323 280.456 473.005 280.053 474.391 280.399C474.627 280.46 474.83 280.612 474.954 280.822C475.079 281.032 475.115 281.283 475.055 281.519C475.027 281.637 474.975 281.748 474.902 281.846C474.83 281.943 474.739 282.025 474.635 282.087C474.53 282.149 474.415 282.189 474.295 282.206C474.174 282.223 474.052 282.215 473.935 282.184C473.062 281.963 470.955 282.339 468.571 284.27C463.97 288.001 456.473 299.029 457.882 330.979C457.892 331.133 457.861 331.286 457.794 331.424C457.727 331.563 457.625 331.681 457.498 331.769L410.336 365.53C410.178 365.645 409.988 365.704 409.794 365.7Z" fill="#D3FAFF"/>
<path d="M413.348 352.488C413.118 352.487 412.897 352.4 412.728 352.245C412.559 352.089 412.453 351.876 412.433 351.647L407.24 289.905C407.229 289.78 407.244 289.654 407.284 289.535C407.324 289.416 407.387 289.307 407.471 289.214C407.555 289.12 407.657 289.045 407.771 288.993C407.885 288.941 408.008 288.912 408.133 288.909C408.3 288.909 424.91 288.313 427.005 288.015C433.263 287.178 440.605 284.696 440.751 280.465C440.828 278.325 439.648 276.153 437.443 274.359C433.76 271.379 428.072 270.047 423.566 271.138C422.076 271.497 420.681 272.174 419.475 273.12C418.27 274.067 417.282 275.261 416.578 276.623C416.55 276.686 416.51 276.744 416.462 276.793C414.376 281.215 411.081 282.804 408.655 283.349C408.417 283.398 408.169 283.352 407.963 283.222C407.758 283.092 407.611 282.888 407.552 282.652C407.526 282.534 407.522 282.412 407.543 282.293C407.563 282.174 407.607 282.06 407.671 281.958C407.736 281.856 407.82 281.767 407.919 281.698C408.017 281.628 408.129 281.579 408.247 281.552C410.315 281.084 413.146 279.696 414.913 275.756C414.959 275.653 415.025 275.559 415.106 275.479C415.94 273.952 417.086 272.617 418.468 271.56C419.85 270.503 421.439 269.748 423.131 269.344C428.227 268.092 434.455 269.537 438.605 272.92C441.269 275.086 442.685 277.783 442.596 280.515C442.348 287.452 429.782 289.49 427.249 289.824C425.345 290.086 412.8 290.557 409.165 290.691L414.272 351.48C414.293 351.723 414.216 351.965 414.059 352.151C413.902 352.338 413.678 352.455 413.435 352.476L413.348 352.488Z" fill="#D3FAFF"/>
<path d="M310.046 413.274C201.016 413.274 139.133 409.278 126.004 401.378C103.539 387.865 105.324 352.765 105.347 352.41C105.351 352.288 105.379 352.169 105.431 352.058C105.482 351.948 105.556 351.85 105.647 351.769C105.738 351.688 105.844 351.626 105.96 351.588C106.075 351.55 106.198 351.535 106.319 351.546C106.439 351.553 106.557 351.583 106.666 351.636C106.774 351.689 106.871 351.762 106.952 351.853C107.032 351.943 107.093 352.048 107.132 352.162C107.171 352.276 107.188 352.397 107.18 352.517C107.162 352.86 105.443 386.863 126.951 399.805C140.48 407.943 207.971 411.84 327.695 411.402C330.809 411.402 333.277 411.381 334.984 411.381C348.766 411.381 357.145 404.51 361.743 398.747C364.05 395.856 365.236 392.012 365.084 387.921C363.665 349.24 379.25 336.2 386.011 332.391C391.878 329.087 398.205 328.622 402.102 331.185C402.306 331.318 402.449 331.527 402.498 331.766C402.548 332.005 402.501 332.253 402.368 332.457C402.301 332.558 402.216 332.645 402.116 332.713C402.017 332.781 401.904 332.829 401.786 332.853C401.548 332.903 401.299 332.856 401.095 332.722C397.749 330.517 392.179 331.018 386.902 333.995C380.43 337.639 365.528 350.181 366.91 387.856C367.08 392.382 365.748 396.661 363.168 399.897C358.316 405.976 349.484 413.22 334.972 413.22C333.271 413.22 330.8 413.22 327.689 413.241C321.684 413.265 315.803 413.276 310.046 413.274Z" fill="#D3FAFF"/>
<path d="M210.894 342.469C210.48 342.469 210.078 342.469 209.669 342.469C182.255 342.302 159.483 337.106 152.972 329.531C138.668 312.879 156.673 291.845 156.845 291.636C157.006 291.452 157.233 291.339 157.477 291.322C157.72 291.305 157.96 291.386 158.145 291.547C158.329 291.707 158.442 291.934 158.458 292.178C158.475 292.421 158.394 292.662 158.234 292.846C158.061 293.042 141.1 312.891 154.36 328.333C160.439 335.413 183.184 340.47 209.666 340.634H210.888C238.005 340.634 271.302 335.166 284.884 319.742C309.763 291.478 361.973 280.447 388.434 284.973C388.553 284.993 388.667 285.037 388.77 285.101C388.872 285.166 388.96 285.25 389.03 285.349C389.099 285.448 389.149 285.56 389.175 285.678C389.201 285.796 389.203 285.918 389.182 286.037C389.165 286.157 389.123 286.273 389.06 286.377C388.997 286.481 388.913 286.571 388.813 286.641C388.714 286.711 388.601 286.76 388.482 286.786C388.363 286.811 388.24 286.812 388.121 286.788C362.074 282.318 310.719 293.174 286.261 320.958C272.291 336.834 238.407 342.469 210.894 342.469Z" fill="#D3FAFF"/>
<path d="M470.583 346.063H459.149C457.197 346.063 455.347 345.041 453.651 343.027C453.493 342.839 453.416 342.597 453.436 342.353C453.457 342.108 453.574 341.882 453.761 341.724C453.949 341.566 454.191 341.489 454.435 341.51C454.679 341.531 454.905 341.647 455.064 341.835C456.393 343.42 457.766 344.219 459.149 344.219H470.583C475.648 344.219 481.099 332.692 481.099 315.537C481.099 304.131 478.548 293.784 474.588 289.148C474.444 288.96 474.378 288.725 474.403 288.491C474.428 288.256 474.542 288.04 474.722 287.887C474.902 287.734 475.133 287.656 475.369 287.669C475.604 287.682 475.826 287.784 475.988 287.956C480.211 292.893 482.943 303.722 482.943 315.543C482.937 332.66 477.505 346.063 470.583 346.063Z" fill="#E2E8F0"/>
<path d="M383.806 416.876H365.095C362.318 416.876 359.648 415.631 357.16 413.175C356.986 413.004 356.887 412.77 356.885 412.526C356.883 412.281 356.978 412.046 357.15 411.872C357.321 411.698 357.555 411.599 357.799 411.597C358.044 411.595 358.279 411.69 358.453 411.861C360.587 413.968 362.819 415.038 365.095 415.038H383.818C393.651 415.038 401.623 395.83 401.623 372.223C401.623 359.496 399.239 347.49 395.115 339.293C395.012 339.076 394.998 338.828 395.076 338.602C395.154 338.375 395.317 338.188 395.531 338.081C395.745 337.973 395.993 337.953 396.221 338.025C396.449 338.098 396.641 338.256 396.753 338.467C401.018 346.918 403.467 359.222 403.467 372.223C403.455 397.257 394.826 416.876 383.806 416.876Z" fill="#E2E8F0"/>
<path d="M392.424 280.745H392.388L235.555 274.925C235.396 274.918 235.241 274.869 235.105 274.785C234.969 274.7 234.858 274.582 234.781 274.442C234.704 274.302 234.666 274.144 234.669 273.985C234.673 273.825 234.719 273.67 234.801 273.533C235.695 272.061 256.703 237.477 283.024 230.76C316.101 222.333 393.509 226.887 397.946 235.305C402.031 243.067 393.676 278.533 393.318 280.038C393.271 280.24 393.157 280.42 392.995 280.548C392.832 280.677 392.631 280.746 392.424 280.745ZM237.221 273.146L391.7 278.879C394.173 268.271 399.373 241.962 396.319 236.16C392.767 229.422 316.616 224.097 283.477 232.545C260.75 238.35 241.411 266.647 237.221 273.155V273.146Z" fill="#E2E8F0"/>
<path d="M401.611 280.745C401.577 280.748 401.543 280.748 401.51 280.745C401.268 280.718 401.046 280.596 400.894 280.406C400.741 280.216 400.67 279.974 400.696 279.731C400.726 279.469 403.655 253.586 405.762 243.756C406.692 239.384 408.894 236.133 412.142 234.345C416.182 232.11 421.656 232.158 427.935 234.488C433.579 236.574 450.957 247.734 457.623 258.95C457.693 259.054 457.741 259.171 457.765 259.294C457.788 259.417 457.786 259.543 457.758 259.666C457.731 259.788 457.679 259.903 457.606 260.004C457.532 260.106 457.439 260.191 457.331 260.255C457.224 260.319 457.104 260.361 456.98 260.377C456.856 260.394 456.73 260.385 456.609 260.351C456.489 260.317 456.377 260.258 456.279 260.179C456.182 260.1 456.102 260.002 456.044 259.892C449.864 249.495 433.045 238.344 427.3 236.214C421.555 234.083 416.6 233.991 413.018 235.957C410.214 237.498 408.378 240.251 407.55 244.137C405.464 253.881 402.562 279.675 402.532 279.934C402.504 280.158 402.395 280.365 402.225 280.514C402.056 280.664 401.837 280.746 401.611 280.745Z" fill="#E2E8F0"/>
<path d="M469.79 338.712C465.094 338.712 465.04 316.363 465.04 315.424C465.028 311.485 465.219 307.549 465.612 303.63C465.645 303.391 465.767 303.173 465.955 303.02C466.143 302.868 466.381 302.793 466.622 302.81C466.742 302.823 466.859 302.859 466.965 302.916C467.072 302.974 467.166 303.051 467.242 303.145C467.318 303.239 467.375 303.347 467.409 303.463C467.443 303.579 467.454 303.7 467.442 303.821C467.058 307.676 466.872 311.549 466.884 315.424C466.884 328.705 468.795 336.343 469.864 336.879C469.983 336.879 470.101 336.903 470.211 336.949C470.32 336.995 470.42 337.062 470.503 337.147C470.586 337.232 470.652 337.333 470.695 337.443C470.739 337.554 470.761 337.672 470.758 337.791C470.755 337.915 470.728 338.037 470.677 338.151C470.627 338.264 470.555 338.367 470.465 338.452C470.375 338.538 470.269 338.604 470.153 338.649C470.037 338.694 469.914 338.715 469.79 338.712Z" fill="#E2E8F0"/>
<path d="M384.59 410.666C384.402 410.664 384.218 410.606 384.063 410.499C377.757 406.107 373.633 394.837 372.787 379.583C372.774 379.341 372.857 379.103 373.018 378.922C373.179 378.741 373.406 378.63 373.648 378.615C373.889 378.61 374.124 378.697 374.304 378.858C374.484 379.019 374.597 379.242 374.619 379.482C375.439 393.952 379.363 404.984 385.117 408.983C385.318 409.122 385.454 409.336 385.497 409.576C385.54 409.816 385.486 410.064 385.347 410.264C385.262 410.386 385.149 410.487 385.017 410.557C384.886 410.627 384.739 410.664 384.59 410.666Z" fill="#E2E8F0"/>
<path d="M236.682 392.316C205.539 392.316 160.645 390.174 153.103 387.343C152.117 386.973 151.571 386.571 151.339 386.044C149.05 380.823 148.925 369.202 155.603 365.867C160.603 363.388 261.182 366.731 265.333 368.108C268.611 369.193 270.345 374.55 270.631 379.384C270.891 383.755 269.961 388.994 266.573 390.585C263.989 391.801 251.995 392.316 236.682 392.316ZM156.422 367.515C151.02 370.215 150.99 380.665 153.025 385.302C156.706 389.301 257.898 392.62 265.795 388.922C267.881 387.93 269.073 384.229 268.793 379.491C268.495 374.67 266.77 370.525 264.758 369.857C258.673 367.837 160.532 365.73 156.422 367.515Z" fill="#E2E8F0"/>
<path d="M314.029 343.369C308.159 343.369 302.548 342.124 299.464 339.57C297.378 337.842 295.414 334.743 297.923 329.799C304.825 316.211 321.035 307.087 334.176 309.476C338.679 310.296 341.691 312.921 342.657 316.869C344.266 323.47 339.763 332.43 331.703 338.655C327.677 341.766 320.695 343.369 314.029 343.369ZM329.823 310.934C318.338 310.934 305.432 319.089 299.568 330.63C297.974 333.774 298.323 336.233 300.641 338.155C306.601 343.083 323.669 342.541 330.579 337.201C338.083 331.402 342.317 323.222 340.875 317.304C340.085 314.059 337.651 311.979 333.848 311.288C332.519 311.049 331.17 310.931 329.82 310.934H329.823Z" fill="white"/>
<path d="M126.987 338.381C126.522 338.381 126.059 338.322 125.607 338.208C122.422 337.392 120.327 334.007 120.735 330.332C121.525 323.181 125.56 314.837 129.723 311.679C131.04 310.677 132.318 310.281 133.471 310.487C134.809 310.713 135.909 311.544 136.654 312.871C138.695 316.548 137.971 323.684 134.768 331.495C132.667 336.596 129.58 338.378 126.987 338.381ZM132.896 312.266C132.166 312.266 131.382 312.73 130.831 313.16C127.488 315.681 123.382 323.27 122.565 330.547C122.267 333.315 123.757 335.848 126.063 336.438C128.698 337.109 131.335 335.017 133.066 330.803C136.642 322.063 136.377 316.166 135.048 313.773C134.574 312.927 133.939 312.429 133.161 312.283C133.074 312.27 132.985 312.264 132.896 312.266Z" fill="white"/>
<path d="M408.158 407.546C407.962 407.547 407.771 407.485 407.612 407.369C407.454 407.253 407.338 407.089 407.279 406.902C407.221 406.714 407.224 406.513 407.288 406.328C407.353 406.143 407.475 405.983 407.636 405.872C414.961 400.857 422.461 396.038 429.717 391.399C478.512 360.137 520.65 333.133 502.598 255.517C502.544 255.279 502.586 255.03 502.715 254.822C502.844 254.615 503.049 254.468 503.287 254.412C503.405 254.38 503.528 254.373 503.649 254.39C503.77 254.408 503.886 254.45 503.989 254.514C504.093 254.579 504.183 254.663 504.253 254.764C504.322 254.864 504.371 254.977 504.395 255.097C522.739 333.995 478.039 362.637 430.706 392.963C423.465 397.6 415.98 402.4 408.679 407.397C408.524 407.498 408.343 407.55 408.158 407.546Z" fill="white"/>
<path d="M408.157 392.304C407.963 392.303 407.775 392.241 407.619 392.127C407.463 392.012 407.347 391.852 407.287 391.668C407.227 391.484 407.227 391.285 407.286 391.101C407.346 390.917 407.462 390.756 407.618 390.642L459.765 352.798C459.963 352.668 460.203 352.62 460.436 352.663C460.669 352.706 460.876 352.837 461.014 353.028C461.153 353.22 461.213 353.458 461.181 353.692C461.149 353.926 461.029 354.14 460.844 354.287L408.696 392.132C408.539 392.244 408.35 392.305 408.157 392.304Z" fill="white"/>
<path d="M370.942 434.562C364.488 434.562 357.628 433.763 349.854 432.262C349.615 432.214 349.404 432.074 349.267 431.872C349.131 431.67 349.079 431.422 349.124 431.183C349.146 431.064 349.192 430.95 349.258 430.849C349.325 430.748 349.411 430.661 349.511 430.593C349.611 430.525 349.724 430.478 349.843 430.454C349.961 430.43 350.084 430.429 350.202 430.453C388.276 437.825 402.946 428.733 458.988 389.051C512.029 351.475 518.019 317.051 518.073 316.706C518.088 316.585 518.129 316.468 518.191 316.363C518.253 316.259 518.337 316.168 518.435 316.096C518.534 316.025 518.647 315.974 518.766 315.948C518.885 315.922 519.008 315.92 519.128 315.943C519.369 315.981 519.585 316.113 519.729 316.31C519.873 316.507 519.933 316.753 519.896 316.995C519.834 317.343 513.734 352.535 460.052 390.552C415.777 421.906 396.605 434.562 370.942 434.562Z" fill="white"/>
<path d="M470.583 346.063H459.149C457.197 346.063 455.347 345.041 453.651 343.027C453.493 342.839 453.416 342.597 453.436 342.353C453.457 342.108 453.574 341.882 453.761 341.724C453.949 341.566 454.191 341.489 454.435 341.51C454.679 341.531 454.905 341.647 455.064 341.835C456.393 343.42 457.766 344.219 459.149 344.219H470.583C475.648 344.219 481.099 332.692 481.099 315.537C481.099 304.131 478.548 293.784 474.588 289.148C474.444 288.96 474.378 288.725 474.403 288.491C474.428 288.256 474.542 288.04 474.722 287.887C474.902 287.734 475.133 287.656 475.369 287.669C475.604 287.682 475.826 287.784 475.988 287.956C480.211 292.893 482.943 303.722 482.943 315.543C482.937 332.66 477.505 346.063 470.583 346.063Z" fill="#007892"/>
<path d="M383.806 416.876H365.095C362.318 416.876 359.648 415.631 357.16 413.175C356.986 413.004 356.887 412.77 356.885 412.526C356.883 412.281 356.978 412.046 357.15 411.872C357.321 411.698 357.555 411.599 357.799 411.597C358.044 411.595 358.279 411.69 358.453 411.861C360.587 413.968 362.819 415.038 365.095 415.038H383.818C393.651 415.038 401.623 395.83 401.623 372.223C401.623 359.496 399.239 347.49 395.115 339.293C395.012 339.076 394.998 338.828 395.076 338.602C395.154 338.375 395.317 338.188 395.531 338.081C395.745 337.973 395.993 337.953 396.221 338.025C396.449 338.098 396.641 338.256 396.753 338.467C401.018 346.918 403.467 359.222 403.467 372.223C403.455 397.257 394.826 416.876 383.806 416.876Z" fill="#007892"/>
<path d="M392.424 280.745H392.388L235.555 274.925C235.396 274.918 235.241 274.869 235.105 274.785C234.969 274.7 234.858 274.582 234.781 274.442C234.704 274.302 234.666 274.144 234.669 273.985C234.673 273.825 234.719 273.67 234.801 273.533C235.695 272.061 256.703 237.477 283.024 230.76C316.101 222.333 393.509 226.887 397.946 235.305C402.031 243.067 393.676 278.533 393.318 280.038C393.271 280.24 393.157 280.42 392.995 280.548C392.832 280.677 392.631 280.746 392.424 280.745ZM237.221 273.146L391.7 278.879C394.173 268.271 399.373 241.962 396.319 236.16C392.767 229.422 316.616 224.097 283.477 232.545C260.75 238.35 241.411 266.647 237.221 273.155V273.146Z" fill="#007892"/>
<path d="M401.611 280.745C401.577 280.748 401.543 280.748 401.51 280.745C401.268 280.718 401.046 280.596 400.894 280.406C400.741 280.216 400.67 279.974 400.696 279.731C400.726 279.469 403.655 253.586 405.762 243.756C406.692 239.384 408.894 236.133 412.142 234.345C416.182 232.11 421.656 232.158 427.935 234.488C433.579 236.574 450.957 247.734 457.623 258.95C457.693 259.054 457.741 259.171 457.765 259.294C457.788 259.417 457.786 259.543 457.758 259.666C457.731 259.788 457.679 259.903 457.606 260.004C457.532 260.106 457.439 260.191 457.331 260.255C457.224 260.319 457.104 260.361 456.98 260.377C456.856 260.394 456.73 260.385 456.609 260.351C456.489 260.317 456.377 260.258 456.279 260.179C456.182 260.1 456.102 260.002 456.044 259.892C449.864 249.495 433.045 238.344 427.3 236.214C421.555 234.083 416.6 233.991 413.018 235.957C410.214 237.498 408.378 240.251 407.55 244.137C405.464 253.881 402.562 279.675 402.532 279.934C402.504 280.158 402.395 280.365 402.225 280.514C402.056 280.664 401.837 280.746 401.611 280.745Z" fill="#007892"/>
<path d="M469.79 338.712C465.094 338.712 465.04 316.363 465.04 315.424C465.028 311.485 465.219 307.549 465.612 303.63C465.645 303.391 465.767 303.173 465.955 303.02C466.143 302.868 466.381 302.793 466.622 302.81C466.742 302.823 466.859 302.859 466.965 302.916C467.072 302.974 467.166 303.051 467.242 303.145C467.318 303.239 467.375 303.347 467.409 303.463C467.443 303.579 467.454 303.7 467.442 303.821C467.058 307.676 466.872 311.549 466.884 315.424C466.884 328.705 468.795 336.343 469.864 336.879C469.983 336.879 470.101 336.903 470.211 336.949C470.32 336.995 470.42 337.062 470.503 337.147C470.586 337.232 470.652 337.333 470.695 337.443C470.739 337.554 470.761 337.672 470.758 337.791C470.755 337.915 470.728 338.037 470.677 338.151C470.627 338.264 470.555 338.367 470.465 338.452C470.375 338.538 470.269 338.604 470.153 338.649C470.037 338.694 469.914 338.715 469.79 338.712Z" fill="#007892"/>
<path d="M384.59 410.666C384.402 410.664 384.218 410.606 384.063 410.499C377.757 406.107 373.633 394.837 372.787 379.583C372.774 379.341 372.857 379.103 373.018 378.922C373.179 378.741 373.406 378.63 373.648 378.615C373.889 378.61 374.124 378.697 374.304 378.858C374.484 379.019 374.597 379.242 374.619 379.482C375.439 393.952 379.363 404.984 385.117 408.983C385.318 409.122 385.454 409.336 385.497 409.576C385.54 409.816 385.486 410.064 385.347 410.264C385.262 410.386 385.149 410.487 385.017 410.557C384.886 410.627 384.739 410.664 384.59 410.666Z" fill="#007892"/>
<path d="M236.682 392.316C205.539 392.316 160.645 390.174 153.103 387.343C152.117 386.973 151.571 386.571 151.339 386.044C149.05 380.823 148.925 369.202 155.603 365.867C160.603 363.388 261.182 366.731 265.333 368.108C268.611 369.193 270.345 374.55 270.631 379.384C270.891 383.755 269.961 388.994 266.573 390.585C263.989 391.801 251.995 392.316 236.682 392.316ZM156.422 367.515C151.02 370.215 150.99 380.665 153.025 385.302C156.706 389.301 257.898 392.62 265.795 388.922C267.881 387.93 269.073 384.229 268.793 379.491C268.495 374.67 266.77 370.525 264.758 369.857C258.673 367.837 160.532 365.73 156.422 367.515Z" fill="#007892"/>
</g>
<defs>
<clipPath id="clip0_1_932">
<rect width="416" height="220.87" fill="white" transform="translate(103.908 213.689)"/>
</clipPath>
</defs>
</svg>
