<?xml version="1.0" encoding="utf-8"?>
<!-- Generator: Adobe Illustrator 27.6.1, SVG Export Plug-In . SVG Version: 6.00 Build 0)  -->
<svg version="1.1" id="Capa_1" xmlns="http://www.w3.org/2000/svg" xmlns:xlink="http://www.w3.org/1999/xlink" x="0px" y="0px"
	 viewBox="0 0 792 103.95" style="enable-background:new 0 0 792 103.95;" xml:space="preserve">
<style type="text/css">
	.st0{fill:white;}
	.st1{fill: white;}
</style>
<g>
	<g>
		<path class="st0" d="M271.52,9.31c-1.3,3.76-2.51,8.49-3.65,14.17h-2.8c-0.14-1.65-0.2-3.28-0.2-4.9c0-1.78-0.12-3-0.36-3.67
			c-0.24-0.66-0.71-1.08-1.42-1.23s-2.05-0.24-4.02-0.24h-4.54c-2.09,6.85-4.37,14.83-6.84,23.92c-2.47,9.1-3.7,13.89-3.7,14.39
			c0,0.45,0.19,0.77,0.56,0.96c0.38,0.19,2.17,0.58,5.37,1.17c0.04,0,0.2,0.03,0.48,0.1c0.39,0.09,0.62,0.14,0.72,0.14l-0.72,2.33
			c-6.02-0.23-10.29-0.34-12.79-0.34c-3.91,0-8.14,0.11-12.69,0.34l0.68-2.33c0.45-0.11,1.01-0.21,1.67-0.3
			c2.55-0.45,4.14-0.81,4.79-1.06c0.65-0.26,1.14-0.8,1.47-1.62c0.33-0.82,1.11-3.24,2.34-7.25l4.67-15.35
			c1.86-6.24,3.31-11.27,4.33-15.08h-4.33c-1.91,0-3.29,0.1-4.13,0.29c-0.84,0.19-1.63,0.7-2.37,1.52c-0.74,0.82-1.67,2.36-2.78,4.6
			c-1.11,2.24-1.69,3.45-1.74,3.63h-3.07c1.73-5.27,3.05-10,3.96-14.17c5,0.27,11.71,0.41,20.12,0.41
			C259.6,9.71,266.59,9.58,271.52,9.31z"/>
		<path class="st0" d="M297.61,25.06c-2.39,6.69-4.22,12.25-5.49,16.65c-1.27,4.41-1.91,6.8-1.91,7.19c0,0.56,0.22,0.85,0.65,0.85
			c0.48,0,1.92-0.95,4.33-2.84l1.47,1.59c-2.46,2.5-4.97,4.56-7.54,6.17c-2.57,1.61-4.58,2.42-6.04,2.42
			c-1.48,0-2.22-0.53-2.22-1.59c0-1.06,0.51-3.04,1.53-5.95c1.02-2.91,1.72-4.76,2.08-5.54l-0.14-0.14
			c-6.71,8.81-12.46,13.22-17.26,13.22c-2.05,0-3.07-0.92-3.07-2.77c0-0.97,0.22-2.14,0.65-3.52l2.83-8.66
			c1.45-4.4,2.23-6.71,2.32-6.93c0.23-0.7,0.34-1.22,0.34-1.56c0-0.41-0.18-0.61-0.55-0.61c-0.41,0-1.63,0.83-3.65,2.5l-1.47-1.66
			c6.46-6.15,11.03-9.23,13.71-9.23c1.3,0,1.94,0.68,1.94,2.03c0,1.71-1.11,5.44-3.34,11.19c-0.68,1.74-1.42,3.8-2.22,6.2
			c-0.8,2.4-1.19,3.87-1.19,4.41c0,0.72,0.3,1.08,0.89,1.08c0.66,0,1.79-0.72,3.39-2.15c1.6-1.43,3.15-3.15,4.64-5.16
			c1.49-2.01,2.61-4.01,3.38-6c0.76-2,1.82-5.4,3.19-10.23C291.99,25.93,294.9,25.6,297.61,25.06z"/>
	</g>
	<g>
		<path class="st1" d="M343.72,54.11l-0.65,2.33c-3.96-0.23-7.76-0.34-11.42-0.34c-4.02,0-8.38,0.11-13.06,0.34l0.68-2.33
			c0.02-0.02,0.17-0.07,0.44-0.14c3.43-0.88,5.45-1.64,6.05-2.28c0.6-0.64,1.14-3.14,1.62-7.49c0.09-1.1,0.18-1.83,0.27-2.16h-12.17
			c-2.5,3.29-4.3,5.71-5.39,7.27c-1.09,1.56-1.64,2.57-1.64,3.04c0,0.45,0.18,0.75,0.53,0.9c0.35,0.15,1.34,0.35,2.95,0.63
			c0.11,0.02,0.27,0.07,0.48,0.14c0.23,0.07,0.38,0.1,0.44,0.1l-0.72,2.33c-2.96-0.23-5.69-0.34-8.22-0.34
			c-2.36,0-5.27,0.11-8.73,0.34l0.68-2.33l2.35-0.61c1.25-0.32,2.19-0.71,2.83-1.18c0.64-0.47,2.64-2.72,6.02-6.75
			c3.38-4.02,8.76-10.75,16.16-20.17c7.4-9.42,11.8-15.16,13.21-17.21h3.07c-0.66,6.29-1.28,14.35-1.86,24.19
			c-0.58,9.84-0.87,15.81-0.87,17.9c0,0.7,0.11,1.21,0.32,1.52c0.22,0.32,0.78,0.63,1.69,0.95
			C339.71,53.07,341.35,53.52,343.72,54.11z M329.6,23.34l-0.14-0.14c-6.91,9.47-10.69,14.6-11.32,15.38h9.86l0.92-9.06
			C329.21,26.26,329.44,24.2,329.6,23.34z"/>
		<path class="st1" d="M381.98,25.06c-2.39,6.69-4.22,12.25-5.49,16.65c-1.27,4.41-1.91,6.8-1.91,7.19c0,0.56,0.22,0.85,0.65,0.85
			c0.48,0,1.92-0.95,4.33-2.84l1.47,1.59c-2.46,2.5-4.97,4.56-7.54,6.17c-2.57,1.61-4.58,2.42-6.04,2.42
			c-1.48,0-2.22-0.53-2.22-1.59c0-1.06,0.51-3.04,1.53-5.95c1.02-2.91,1.72-4.76,2.08-5.54l-0.14-0.14
			c-6.71,8.81-12.46,13.22-17.26,13.22c-2.05,0-3.07-0.92-3.07-2.77c0-0.97,0.22-2.14,0.65-3.52l2.83-8.66
			c1.45-4.4,2.23-6.71,2.32-6.93c0.23-0.7,0.34-1.22,0.34-1.56c0-0.41-0.18-0.61-0.55-0.61c-0.41,0-1.63,0.83-3.65,2.5l-1.47-1.66
			c6.46-6.15,11.03-9.23,13.71-9.23c1.3,0,1.94,0.68,1.94,2.03c0,1.71-1.11,5.44-3.34,11.19c-0.68,1.74-1.42,3.8-2.22,6.2
			c-0.8,2.4-1.19,3.87-1.19,4.41c0,0.72,0.3,1.08,0.89,1.08c0.66,0,1.79-0.72,3.39-2.15c1.6-1.43,3.15-3.15,4.64-5.16
			c1.49-2.01,2.61-4.01,3.38-6c0.76-2,1.82-5.4,3.19-10.23C376.36,25.93,379.27,25.6,381.98,25.06z"/>
		<path class="st1" d="M407.9,26.11c-0.73,1.01-1.4,2.18-2.01,3.48c-1.86-0.18-4.17-0.3-6.92-0.37c-0.96,2.73-2.1,6.46-3.44,11.19
			c-1.34,4.73-2.01,7.52-2.01,8.35c0,0.7,0.28,1.05,0.85,1.05c1.14,0,3.07-1.21,5.8-3.62l1.6,1.79c-3.41,3.18-6.41,5.49-8.99,6.93
			c-2.58,1.44-4.62,2.16-6.12,2.16c-0.8,0-1.46-0.24-2-0.71s-0.8-1.16-0.8-2.06c0-0.81,0.35-2.37,1.06-4.67l6.21-20.49
			c-1.68,0-3.15,0.02-4.4,0.07l0.65-2.33c5.27-1.71,9.63-5.34,13.06-10.89h3c-1.75,4.76-2.89,8.01-3.41,9.77
			c4.14,0,6.65-0.14,7.54-0.41L407.9,26.11z"/>
		<path class="st1" d="M425.7,24.66c2.82,0,5,0.85,6.55,2.55c1.54,1.7,2.32,4.18,2.32,7.42c0,3.9-0.96,7.59-2.88,11.06
			s-4.47,6.24-7.66,8.3c-3.18,2.06-6.45,3.09-9.79,3.09c-2.75,0-4.95-0.95-6.6-2.84c-1.65-1.89-2.47-4.38-2.47-7.47
			c0-3.65,0.96-7.21,2.88-10.68c1.92-3.47,4.48-6.24,7.67-8.32S422.24,24.66,425.7,24.66z M417.1,53.97c2.21,0,4.28-2.29,6.22-6.86
			c1.94-4.58,2.92-9.06,2.92-13.46c0-3.88-1.21-5.82-3.62-5.82c-2.41,0-4.52,2.45-6.33,7.35c-1.81,4.9-2.71,9.06-2.71,12.46
			c0,1.94,0.31,3.48,0.94,4.62S416.01,53.97,417.1,53.97z"/>
	</g>
	<g>
		<path class="st0" d="M476.61,11.3c-1.07,3.13-1.98,6.75-2.73,10.85c-0.11,0.61-0.18,0.94-0.2,0.98l-3.31-0.2
			c-0.05-3.85-0.26-6.42-0.63-7.71c-0.38-1.29-1.23-2.2-2.56-2.76c-1.33-0.55-2.63-0.83-3.9-0.83c-2.11,0-3.84,0.63-5.18,1.88
			c-1.34,1.25-2.01,2.78-2.01,4.58c0,1.31,0.45,2.64,1.35,3.99c0.9,1.35,2.77,3.46,5.61,6.32c2.82,2.77,4.76,5.12,5.83,7.05
			c1.07,1.93,1.6,4.01,1.6,6.24c0,4.12-1.71,7.79-5.12,10.99c-3.41,3.2-8.21,4.8-14.39,4.8c-4.75,0-9.33-0.97-13.74-2.91
			c1.5-4.03,2.77-8.72,3.82-14.07h3.44c-0.04,2.19-0.07,3.7-0.07,4.53c0,1.8,0.2,3.2,0.6,4.18c0.4,0.98,1.02,1.83,1.86,2.54
			c0.84,0.71,1.73,1.18,2.66,1.42c0.93,0.24,1.83,0.35,2.69,0.35c2.43,0,4.38-0.81,5.85-2.43c1.47-1.62,2.2-3.65,2.2-6.09
			c0-1.62-0.35-3.21-1.06-4.75s-2.55-3.84-5.52-6.88c-2.77-2.82-4.67-5.04-5.68-6.66c-1.01-1.62-1.52-3.39-1.52-5.31
			c0-3.47,1.59-6.54,4.76-9.21c3.17-2.67,7.36-4.01,12.57-4.01C468.33,8.19,472.59,9.23,476.61,11.3z"/>
		<path class="st0" d="M497.48,50.15c-5.82,4.62-10.89,6.93-15.21,6.93c-2.32,0-4.11-0.85-5.37-2.54c-1.26-1.69-1.89-4.01-1.89-6.97
			c0-5.63,2.14-10.86,6.43-15.69c4.29-4.82,9.43-7.24,15.43-7.24c3.66,0,5.49,1.39,5.49,4.16c0,3.11-1.52,5.89-4.57,8.33
			c-3.05,2.45-7.75,4.31-14.12,5.6c-0.07,0.86-0.1,1.6-0.1,2.23c0,4.28,1.38,6.42,4.13,6.42c0.96,0,1.99-0.25,3.1-0.74
			c1.11-0.5,2.76-1.39,4.94-2.67L497.48,50.15z M484.15,39.7c3.62-0.92,6.26-2.28,7.95-4.06c1.68-1.78,2.52-3.64,2.52-5.58
			c0-1.44-0.6-2.16-1.81-2.16c-1.43,0-2.93,0.92-4.5,2.76C486.74,32.5,485.35,35.51,484.15,39.7z"/>
		<path class="st0" d="M552.46,48.56c-2.66,2.64-5.25,4.72-7.78,6.24s-4.59,2.28-6.21,2.28c-1.52,0-2.28-0.68-2.28-2.03
			c0-0.68,0.39-2.27,1.18-4.78c0.79-2.51,1.57-4.84,2.37-6.98c0.57-1.53,1.22-3.46,1.96-5.78c0.74-2.32,1.11-3.74,1.11-4.26
			c0-0.74-0.3-1.12-0.89-1.12c-0.91,0-2.54,1.24-4.89,3.72c-2.35,2.48-4.08,4.84-5.18,7.08c-1.1,2.24-2.59,6.63-4.45,13.17
			c-4.05,0-6.91,0.11-8.59,0.34c4.71-13.68,7.06-21.35,7.06-22.99c0-0.72-0.31-1.08-0.92-1.08c-0.77,0-2.27,1.22-4.48,3.65
			c-2.22,2.43-3.93,4.73-5.15,6.9c-1.22,2.16-2.63,6.2-4.25,12.1c-0.16,0.63-0.26,0.99-0.31,1.08c-3.87,0-6.71,0.11-8.53,0.34
			c1.59-4.21,3.18-8.94,4.76-14.18s2.37-8.01,2.37-8.3c0-0.61-0.25-0.91-0.75-0.91c-0.27,0-0.61,0.17-1.02,0.51l-2.49,2.06
			l-1.54-1.72c3.14-3.09,5.87-5.4,8.2-6.93c2.33-1.53,4.14-2.3,5.44-2.3c1.16,0,1.74,0.57,1.74,1.72c0,2.16-1.26,6.07-3.79,11.73
			l0.14,0.14c7.14-9.06,12.78-13.59,16.92-13.59c1.77,0,2.66,0.95,2.66,2.84c0,1.92-1.07,5.46-3.21,10.62l0.14,0.14
			c6.98-9.06,12.75-13.59,17.32-13.59c2.14,0,3.21,0.97,3.21,2.91c0,0.95-0.1,1.81-0.31,2.6l-5.76,17.14
			c-0.25,0.59-0.38,1.09-0.38,1.52c0,0.61,0.24,0.91,0.72,0.91c0.66,0,2.08-0.99,4.26-2.98L552.46,48.56z"/>
		<path class="st0" d="M557.47,33.38c6.64-5.82,11.17-8.72,13.61-8.72c1.16,0,1.74,0.63,1.74,1.89c0,0.61-0.41,2.14-1.23,4.6
			l-5.56,16.36c-0.16,0.63-0.24,1.12-0.24,1.45c0,0.47,0.21,0.71,0.61,0.71c0.64,0,2.08-0.95,4.33-2.84l1.6,1.59
			c-2.82,2.73-5.51,4.85-8.07,6.37s-4.53,2.28-5.92,2.28s-2.08-0.59-2.08-1.76c0-1.06,1.01-4.42,3.04-10.08l2.46-6.8
			c0.91-2.55,1.36-4.09,1.36-4.63c0-0.56-0.22-0.85-0.65-0.85c-0.43,0-1.59,0.74-3.48,2.23L557.47,33.38z M573.12,9.31
			c1.05,0,1.91,0.37,2.59,1.1c0.68,0.73,1.02,1.63,1.02,2.69c0,1.51-0.49,2.96-1.47,4.36c-0.98,1.4-2.18,2.1-3.62,2.1
			c-0.98,0-1.84-0.34-2.59-1.01c-0.75-0.68-1.12-1.68-1.12-3.01c0-1.53,0.49-2.95,1.48-4.26C570.41,9.96,571.64,9.31,573.12,9.31z"
			/>
		<path class="st0" d="M609.27,48.49c-6.25,5.73-10.88,8.59-13.88,8.59c-1.5,0-2.25-0.7-2.25-2.1c0-0.34,0.07-0.85,0.22-1.52
			c0.15-0.68,0.64-2.25,1.48-4.73l4.6-13.9c0.23-0.54,0.34-1.07,0.34-1.59c0-0.65-0.28-0.98-0.85-0.98c-0.84,0-2.02,0.69-3.55,2.06
			c-1.52,1.38-2.98,3-4.37,4.87c-1.39,1.87-2.48,3.82-3.29,5.85c-0.81,2.03-1.98,5.71-3.53,11.06c-4.09,0-6.91,0.11-8.46,0.34
			c3.43-10.57,5.65-17.54,6.65-20.9c0.23-0.47,0.34-0.98,0.34-1.52c0-0.61-0.2-0.91-0.61-0.91c-0.32,0-0.97,0.35-1.94,1.07
			c-0.98,0.71-1.55,1.14-1.71,1.3l-1.53-1.59c6.37-6.15,10.93-9.23,13.71-9.23c1.11,0,1.67,0.6,1.67,1.79
			c0,1.42-1.26,5.27-3.79,11.56l0.14,0.17c6.96-9.02,12.73-13.52,17.32-13.52c2.09,0,3.14,0.97,3.14,2.91
			c0,0.63-0.09,1.32-0.27,2.06l-5.8,18.09c-0.14,0.43-0.21,0.78-0.21,1.05c0,0.45,0.23,0.68,0.68,0.68c0.77,0,2.17-0.87,4.19-2.6
			L609.27,48.49z"/>
		<path class="st0" d="M646.78,25.06c-2.39,6.69-4.22,12.25-5.49,16.65c-1.27,4.41-1.91,6.8-1.91,7.19c0,0.56,0.22,0.85,0.65,0.85
			c0.48,0,1.92-0.95,4.33-2.84l1.47,1.59c-2.46,2.5-4.97,4.56-7.54,6.17c-2.57,1.61-4.58,2.42-6.04,2.42
			c-1.48,0-2.22-0.53-2.22-1.59c0-1.06,0.51-3.04,1.53-5.95c1.02-2.91,1.72-4.76,2.08-5.54l-0.14-0.14
			c-6.71,8.81-12.46,13.22-17.26,13.22c-2.05,0-3.07-0.92-3.07-2.77c0-0.97,0.22-2.14,0.65-3.52l2.83-8.66
			c1.45-4.4,2.23-6.71,2.32-6.93c0.23-0.7,0.34-1.22,0.34-1.56c0-0.41-0.18-0.61-0.55-0.61c-0.41,0-1.63,0.83-3.65,2.5l-1.47-1.66
			c6.46-6.15,11.03-9.23,13.71-9.23c1.3,0,1.94,0.68,1.94,2.03c0,1.71-1.11,5.44-3.34,11.19c-0.68,1.74-1.42,3.8-2.22,6.2
			c-0.8,2.4-1.19,3.87-1.19,4.41c0,0.72,0.29,1.08,0.89,1.08c0.66,0,1.79-0.72,3.39-2.15c1.6-1.43,3.15-3.15,4.64-5.16
			c1.49-2.01,2.61-4.01,3.38-6c0.76-2,1.82-5.4,3.19-10.23C641.17,25.93,644.08,25.6,646.78,25.06z"/>
		<path class="st0" d="M671.37,50.15c-5.82,4.62-10.89,6.93-15.21,6.93c-2.32,0-4.11-0.85-5.37-2.54c-1.26-1.69-1.89-4.01-1.89-6.97
			c0-5.63,2.14-10.86,6.43-15.69c4.29-4.82,9.43-7.24,15.43-7.24c3.66,0,5.49,1.39,5.49,4.16c0,3.11-1.52,5.89-4.57,8.33
			c-3.05,2.45-7.75,4.31-14.12,5.6c-0.07,0.86-0.1,1.6-0.1,2.23c0,4.28,1.38,6.42,4.13,6.42c0.96,0,1.99-0.25,3.1-0.74
			c1.11-0.5,2.76-1.39,4.94-2.67L671.37,50.15z M658.04,39.7c3.62-0.92,6.26-2.28,7.95-4.06c1.68-1.78,2.52-3.64,2.52-5.58
			c0-1.44-0.6-2.16-1.81-2.16c-1.43,0-2.93,0.92-4.5,2.76C660.63,32.5,659.24,35.51,658.04,39.7z"/>
		<path class="st0" d="M704.55,24.32c2.46,1.13,3.68,3,3.68,5.61c0,1.96-0.69,4.04-2.06,6.24c-1.38,2.2-3.9,5.34-7.57,9.43
			c-3.67,4.09-7.35,7.92-11.03,11.48h-2.8c0.04-3.65,0.07-6.68,0.07-9.1c0-5.41-0.11-9.15-0.34-11.21
			c-0.23-2.06-0.41-3.29-0.55-3.69c-0.14-0.39-0.42-0.59-0.85-0.59c-0.34,0-1.51,0.82-3.51,2.47l-1.4-1.59
			c5.71-5.82,9.59-8.72,11.66-8.72c0.57,0,1.09,0.18,1.55,0.54c0.47,0.36,0.86,1.36,1.18,3.01c0.32,1.65,0.49,4.84,0.53,9.59
			c0.03,4.75,0.07,7.57,0.12,8.47c2.55-2.77,4.62-5.42,6.21-7.95c1.59-2.52,2.39-4.44,2.39-5.75c0-1.22-0.68-1.83-2.05-1.83
			l-0.48-1.15C701.05,28.2,702.8,26.44,704.55,24.32z"/>
		<path class="st0" d="M728.83,24.66c2.82,0,5,0.85,6.55,2.55c1.54,1.7,2.32,4.18,2.32,7.42c0,3.9-0.96,7.59-2.88,11.06
			s-4.47,6.24-7.66,8.3c-3.18,2.06-6.45,3.09-9.79,3.09c-2.75,0-4.95-0.95-6.6-2.84c-1.65-1.89-2.47-4.38-2.47-7.47
			c0-3.65,0.96-7.21,2.88-10.68c1.92-3.47,4.48-6.24,7.67-8.32S725.38,24.66,728.83,24.66z M720.24,53.97
			c2.21,0,4.28-2.29,6.22-6.86c1.94-4.58,2.92-9.06,2.92-13.46c0-3.88-1.21-5.82-3.62-5.82c-2.41,0-4.52,2.45-6.33,7.35
			c-1.81,4.9-2.71,9.06-2.71,12.46c0,1.94,0.31,3.48,0.94,4.62S719.15,53.97,720.24,53.97z"/>
		<g>
			<path class="st0" d="M741.17,52.43c0.45,0,0.83,0.16,1.14,0.48c0.32,0.32,0.47,0.76,0.47,1.31c0,0.62-0.2,1.16-0.59,1.61
				c-0.39,0.46-0.87,0.69-1.42,0.69c-0.42,0-0.79-0.15-1.09-0.45s-0.46-0.72-0.46-1.25c0-0.62,0.19-1.17,0.56-1.66
				C740.16,52.68,740.62,52.43,741.17,52.43z"/>
			<path class="st0" d="M754.3,46.21c-0.35,0.82-0.65,1.74-0.92,2.76l-0.91-0.07c0-1.46-0.45-2.19-1.35-2.19
				c-0.83,0-1.57,0.64-2.24,1.91c-0.67,1.27-1,2.56-1,3.87c0,0.51,0.08,0.99,0.26,1.42c0.17,0.43,0.49,0.65,0.96,0.65
				c0.63,0,1.56-0.53,2.79-1.59l0.59,0.7c-1.86,1.89-3.52,2.83-4.98,2.83c-0.8,0-1.4-0.29-1.81-0.87c-0.41-0.58-0.61-1.38-0.61-2.41
				c0-1.19,0.31-2.39,0.94-3.6c0.63-1.21,1.47-2.18,2.52-2.91s2.17-1.09,3.37-1.09C752.71,45.66,753.51,45.84,754.3,46.21z"/>
			<path class="st0" d="M760.39,45.66c0.92,0,1.64,0.29,2.14,0.86s0.76,1.4,0.76,2.49c0,1.31-0.31,2.54-0.94,3.71
				c-0.63,1.16-1.46,2.09-2.5,2.78c-1.04,0.69-2.11,1.04-3.2,1.04c-0.9,0-1.62-0.32-2.16-0.95c-0.54-0.63-0.81-1.47-0.81-2.5
				c0-1.22,0.31-2.42,0.94-3.58c0.63-1.16,1.47-2.09,2.51-2.79S759.26,45.66,760.39,45.66z M757.57,55.48c0.72,0,1.4-0.77,2.04-2.3
				c0.64-1.53,0.95-3.04,0.95-4.51c0-1.3-0.39-1.95-1.18-1.95s-1.48,0.82-2.07,2.46c-0.59,1.64-0.89,3.03-0.89,4.18
				c0,0.65,0.1,1.17,0.31,1.55C756.94,55.29,757.22,55.48,757.57,55.48z"/>
			<path class="st0" d="M780.42,53.67c-0.87,0.88-1.72,1.58-2.54,2.09c-0.83,0.51-1.5,0.76-2.03,0.76c-0.5,0-0.75-0.23-0.75-0.68
				c0-0.23,0.13-0.76,0.39-1.6c0.26-0.84,0.51-1.62,0.78-2.34c0.19-0.51,0.4-1.16,0.64-1.94c0.24-0.78,0.36-1.25,0.36-1.43
				c0-0.25-0.1-0.37-0.29-0.37c-0.3,0-0.83,0.42-1.6,1.25c-0.77,0.83-1.33,1.62-1.7,2.37c-0.36,0.75-0.85,2.22-1.46,4.41
				c-1.32,0-2.26,0.04-2.81,0.11c1.54-4.58,2.31-7.15,2.31-7.71c0-0.24-0.1-0.36-0.3-0.36c-0.25,0-0.74,0.41-1.47,1.22
				c-0.73,0.82-1.29,1.59-1.68,2.31c-0.4,0.73-0.86,2.08-1.39,4.06c-0.05,0.21-0.08,0.33-0.1,0.36c-1.26,0-2.19,0.04-2.79,0.11
				c0.52-1.41,1.04-3,1.56-4.75c0.52-1.76,0.78-2.68,0.78-2.78c0-0.2-0.08-0.31-0.25-0.31c-0.09,0-0.2,0.06-0.33,0.17l-0.81,0.69
				l-0.5-0.58c1.03-1.03,1.92-1.81,2.68-2.32c0.76-0.51,1.36-0.77,1.78-0.77c0.38,0,0.57,0.19,0.57,0.58c0,0.73-0.41,2.04-1.24,3.93
				l0.04,0.05c2.33-3.04,4.18-4.56,5.53-4.56c0.58,0,0.87,0.32,0.87,0.95c0,0.64-0.35,1.83-1.05,3.56l0.04,0.05
				c2.28-3.04,4.17-4.56,5.67-4.56c0.7,0,1.05,0.32,1.05,0.97c0,0.32-0.03,0.61-0.1,0.87l-1.88,5.74c-0.08,0.2-0.12,0.37-0.12,0.51
				c0,0.2,0.08,0.31,0.23,0.31c0.22,0,0.68-0.33,1.39-1L780.42,53.67z"/>
		</g>
	</g>
	<g>
		<path class="st0" d="M550.43,89.93c0,0.48-0.12,1-0.35,1.55c-0.23,0.56-0.6,1.1-1.11,1.64c-0.5,0.54-1.14,0.97-1.93,1.31
			c-0.78,0.33-1.69,0.5-2.73,0.5c-0.79,0-1.51-0.08-2.15-0.23s-1.23-0.38-1.76-0.7c-0.53-0.32-1.01-0.74-1.45-1.26
			c-0.39-0.47-0.73-1-1.01-1.58c-0.28-0.58-0.49-1.21-0.63-1.87c-0.14-0.66-0.21-1.37-0.21-2.11c0-1.21,0.17-2.29,0.52-3.25
			c0.35-0.96,0.85-1.78,1.5-2.46c0.65-0.68,1.42-1.2,2.29-1.55c0.88-0.36,1.81-0.53,2.8-0.53c1.21,0,2.29,0.24,3.23,0.73
			c0.95,0.49,1.67,1.09,2.17,1.8s0.75,1.39,0.75,2.02c0,0.35-0.12,0.66-0.37,0.92c-0.24,0.27-0.54,0.4-0.89,0.4
			c-0.39,0-0.68-0.09-0.87-0.28c-0.19-0.18-0.41-0.5-0.65-0.95c-0.39-0.75-0.86-1.3-1.39-1.67s-1.19-0.55-1.97-0.55
			c-1.24,0-2.23,0.48-2.97,1.43s-1.11,2.3-1.11,4.05c0,1.17,0.16,2.14,0.49,2.92s0.79,1.35,1.39,1.74c0.6,0.38,1.3,0.57,2.1,0.57
			c0.87,0,1.61-0.22,2.21-0.65s1.05-1.07,1.36-1.91c0.13-0.4,0.29-0.72,0.48-0.97c0.19-0.25,0.5-0.37,0.92-0.37
			c0.36,0,0.67,0.13,0.93,0.38C550.3,89.24,550.43,89.56,550.43,89.93z"/>
		<path class="st0" d="M563.37,89.25c0,0.83-0.13,1.6-0.39,2.31c-0.26,0.7-0.63,1.31-1.12,1.81s-1.07,0.89-1.75,1.16
			c-0.68,0.27-1.44,0.4-2.29,0.4c-0.84,0-1.6-0.14-2.27-0.41s-1.25-0.66-1.75-1.17c-0.49-0.51-0.87-1.11-1.12-1.8
			c-0.25-0.69-0.38-1.46-0.38-2.3c0-0.85,0.13-1.62,0.39-2.33c0.26-0.7,0.63-1.31,1.11-1.8s1.07-0.88,1.75-1.15
			c0.69-0.27,1.44-0.4,2.27-0.4c0.84,0,1.61,0.14,2.29,0.41s1.27,0.66,1.76,1.17s0.86,1.11,1.12,1.8S563.37,88.41,563.37,89.25z
			 M560.58,89.25c0-1.14-0.25-2.03-0.75-2.67c-0.5-0.64-1.17-0.95-2.01-0.95c-0.54,0-1.02,0.14-1.44,0.43
			c-0.41,0.28-0.73,0.7-0.96,1.26s-0.34,1.2-0.34,1.94c0,0.73,0.11,1.37,0.33,1.92s0.54,0.97,0.95,1.26
			c0.41,0.29,0.89,0.44,1.45,0.44c0.84,0,1.51-0.32,2.01-0.96C560.33,91.26,560.58,90.38,560.58,89.25z"/>
		<path class="st0" d="M574.82,89.45v3.72c0,0.59-0.13,1.03-0.4,1.32s-0.62,0.44-1.05,0.44c-0.42,0-0.76-0.15-1.02-0.44
			s-0.39-0.73-0.39-1.32v-4.46c0-0.7-0.02-1.25-0.07-1.64c-0.05-0.39-0.18-0.71-0.39-0.96c-0.21-0.25-0.54-0.37-1-0.37
			c-0.91,0-1.51,0.31-1.8,0.94c-0.29,0.63-0.43,1.53-0.43,2.71v3.78c0,0.58-0.13,1.02-0.39,1.32c-0.26,0.3-0.61,0.45-1.03,0.45
			c-0.42,0-0.77-0.15-1.04-0.45c-0.27-0.3-0.4-0.74-0.4-1.32v-8.01c0-0.53,0.12-0.93,0.36-1.2s0.56-0.41,0.95-0.41
			c0.38,0,0.7,0.13,0.95,0.38c0.25,0.26,0.38,0.61,0.38,1.06v0.27c0.48-0.58,1-1.01,1.55-1.28c0.55-0.27,1.16-0.41,1.83-0.41
			c0.7,0,1.3,0.14,1.8,0.42s0.92,0.7,1.24,1.27c0.47-0.57,0.97-1,1.51-1.28c0.54-0.28,1.13-0.42,1.78-0.42
			c0.76,0,1.42,0.15,1.97,0.45s0.96,0.73,1.23,1.29c0.24,0.51,0.36,1.3,0.36,2.39v5.47c0,0.59-0.13,1.03-0.4,1.32
			c-0.26,0.29-0.62,0.44-1.05,0.44c-0.42,0-0.77-0.15-1.03-0.45c-0.27-0.3-0.4-0.74-0.4-1.32v-4.71c0-0.6-0.03-1.08-0.08-1.45
			s-0.19-0.67-0.41-0.91c-0.22-0.25-0.56-0.37-1.02-0.37c-0.37,0-0.71,0.11-1.04,0.33c-0.33,0.22-0.59,0.51-0.77,0.88
			C574.92,87.42,574.82,88.26,574.82,89.45z"/>
		<path class="st0" d="M586.61,85.13v0.34c0.52-0.65,1.07-1.13,1.63-1.43c0.56-0.3,1.2-0.46,1.92-0.46c0.86,0,1.64,0.22,2.37,0.67
			c0.72,0.44,1.29,1.09,1.71,1.95s0.63,1.87,0.63,3.04c0,0.86-0.12,1.65-0.36,2.37s-0.57,1.33-0.99,1.81
			c-0.42,0.49-0.92,0.87-1.49,1.13c-0.58,0.26-1.19,0.4-1.85,0.4c-0.79,0-1.46-0.16-2-0.48s-1.06-0.79-1.54-1.42v4.2
			c0,1.23-0.45,1.85-1.33,1.85c-0.52,0-0.87-0.16-1.04-0.48c-0.17-0.32-0.25-0.78-0.25-1.39V85.15c0-0.53,0.12-0.93,0.35-1.19
			s0.55-0.4,0.95-0.4c0.39,0,0.71,0.14,0.96,0.4C586.48,84.23,586.61,84.62,586.61,85.13z M592.06,89.2c0-0.74-0.11-1.37-0.34-1.9
			c-0.22-0.53-0.54-0.94-0.93-1.22c-0.4-0.28-0.84-0.43-1.32-0.43c-0.77,0-1.42,0.3-1.94,0.91s-0.79,1.5-0.79,2.69
			c0,1.11,0.26,1.98,0.79,2.6s1.17,0.93,1.95,0.93c0.46,0,0.89-0.13,1.28-0.41c0.39-0.27,0.71-0.67,0.95-1.21
			C591.94,90.61,592.06,89.96,592.06,89.2z"/>
		<path class="st0" d="M599.85,90.9v2.34c0,0.57-0.13,0.99-0.4,1.28c-0.27,0.28-0.6,0.43-1.01,0.43c-0.4,0-0.73-0.14-0.99-0.43
			c-0.26-0.29-0.39-0.71-0.39-1.27v-7.79c0-1.26,0.45-1.89,1.36-1.89c0.46,0,0.8,0.15,1,0.44c0.2,0.29,0.32,0.73,0.34,1.3
			c0.33-0.57,0.67-1.01,1.02-1.3c0.35-0.29,0.82-0.44,1.4-0.44c0.58,0,1.15,0.15,1.7,0.44c0.55,0.29,0.83,0.68,0.83,1.17
			c0,0.34-0.12,0.62-0.35,0.85c-0.23,0.22-0.49,0.33-0.76,0.33c-0.1,0-0.35-0.06-0.74-0.19c-0.39-0.13-0.74-0.19-1.03-0.19
			c-0.41,0-0.74,0.11-1,0.32c-0.26,0.21-0.46,0.53-0.6,0.96s-0.24,0.93-0.3,1.51C599.87,89.35,599.85,90.06,599.85,90.9z"/>
		<path class="st0" d="M612.74,93.36c-0.67,0.53-1.32,0.92-1.95,1.18c-0.63,0.26-1.33,0.4-2.12,0.4c-0.71,0-1.34-0.14-1.88-0.43
			c-0.54-0.28-0.96-0.67-1.25-1.15s-0.44-1.01-0.44-1.58c0-0.77,0.24-1.42,0.72-1.96s1.15-0.9,1.99-1.09
			c0.18-0.04,0.61-0.13,1.31-0.28s1.3-0.27,1.8-0.4c0.5-0.12,1.04-0.26,1.63-0.44c-0.03-0.74-0.18-1.28-0.44-1.62
			c-0.26-0.35-0.8-0.52-1.62-0.52c-0.71,0-1.24,0.1-1.6,0.3s-0.66,0.5-0.92,0.89s-0.43,0.66-0.54,0.78s-0.33,0.19-0.68,0.19
			c-0.31,0-0.58-0.1-0.81-0.3c-0.23-0.2-0.34-0.46-0.34-0.77c0-0.49,0.17-0.97,0.52-1.44s0.89-0.85,1.62-1.15
			c0.73-0.3,1.65-0.45,2.74-0.45c1.22,0,2.18,0.15,2.88,0.44c0.7,0.29,1.19,0.75,1.48,1.38c0.29,0.63,0.43,1.46,0.43,2.5
			c0,0.66,0,1.21,0,1.67c0,0.46-0.01,0.97-0.02,1.53c0,0.53,0.09,1.08,0.26,1.65c0.17,0.57,0.26,0.94,0.26,1.1
			c0,0.29-0.13,0.55-0.4,0.78c-0.27,0.24-0.57,0.35-0.91,0.35c-0.29,0-0.57-0.14-0.85-0.4C613.35,94.26,613.06,93.87,612.74,93.36z
			 M612.56,89.31c-0.41,0.15-1,0.31-1.78,0.48c-0.78,0.17-1.32,0.29-1.62,0.37c-0.3,0.08-0.58,0.23-0.86,0.46
			c-0.27,0.23-0.41,0.55-0.41,0.96c0,0.42,0.16,0.78,0.48,1.08c0.32,0.3,0.74,0.45,1.25,0.45c0.55,0,1.06-0.12,1.52-0.36
			c0.47-0.24,0.81-0.56,1.02-0.94c0.25-0.42,0.38-1.12,0.38-2.09V89.31z"/>
		<path class="st0" d="M619.96,94.94c-0.42,0-0.79-0.14-1.09-0.41s-0.46-0.66-0.46-1.15c0-0.42,0.15-0.78,0.44-1.08
			c0.29-0.3,0.65-0.45,1.08-0.45c0.43,0,0.79,0.15,1.1,0.45c0.3,0.3,0.45,0.66,0.45,1.08c0,0.49-0.15,0.87-0.45,1.14
			C620.72,94.8,620.37,94.94,619.96,94.94z"/>
		<path class="st0" d="M627.05,81.39l3.38,10.08l3.39-10.15c0.18-0.53,0.31-0.9,0.4-1.11c0.09-0.21,0.23-0.4,0.44-0.56
			s0.48-0.25,0.84-0.25c0.26,0,0.5,0.06,0.72,0.19s0.39,0.3,0.52,0.52c0.13,0.22,0.19,0.43,0.19,0.65c0,0.15-0.02,0.31-0.06,0.49
			c-0.04,0.17-0.09,0.35-0.15,0.51s-0.12,0.34-0.18,0.52l-3.62,9.82c-0.13,0.38-0.26,0.73-0.39,1.07c-0.13,0.34-0.28,0.64-0.45,0.89
			c-0.17,0.26-0.4,0.47-0.68,0.63c-0.28,0.16-0.63,0.25-1.03,0.25c-0.41,0-0.75-0.08-1.04-0.24c-0.28-0.16-0.51-0.37-0.68-0.64
			s-0.32-0.56-0.45-0.9c-0.13-0.33-0.26-0.69-0.39-1.07l-3.56-9.74c-0.06-0.18-0.12-0.35-0.19-0.52c-0.07-0.17-0.12-0.36-0.16-0.55
			c-0.04-0.2-0.07-0.37-0.07-0.5c0-0.35,0.14-0.67,0.42-0.95c0.28-0.29,0.63-0.43,1.05-0.43c0.52,0,0.88,0.16,1.1,0.48
			C626.61,80.19,626.83,80.7,627.05,81.39z"/>
		<path class="st0" d="M645.74,89.93h-5.44c0.01,0.64,0.13,1.2,0.38,1.68s0.58,0.85,0.99,1.1s0.86,0.37,1.36,0.37
			c0.33,0,0.64-0.04,0.91-0.12c0.27-0.08,0.54-0.2,0.8-0.37c0.26-0.17,0.5-0.35,0.71-0.54c0.22-0.19,0.5-0.45,0.85-0.78
			c0.14-0.12,0.35-0.18,0.61-0.18c0.29,0,0.52,0.08,0.69,0.24s0.27,0.38,0.27,0.67c0,0.25-0.1,0.55-0.3,0.89
			c-0.2,0.34-0.49,0.66-0.89,0.97s-0.9,0.57-1.5,0.77s-1.29,0.31-2.07,0.31c-1.79,0-3.18-0.51-4.17-1.54
			c-0.99-1.03-1.49-2.42-1.49-4.17c0-0.83,0.12-1.59,0.37-2.3c0.25-0.71,0.6-1.31,1.07-1.82s1.05-0.89,1.73-1.16
			c0.69-0.27,1.45-0.4,2.28-0.4c1.09,0,2.02,0.23,2.8,0.69c0.78,0.46,1.36,1.06,1.75,1.79c0.39,0.73,0.58,1.48,0.58,2.24
			c0,0.7-0.2,1.16-0.6,1.37C647.03,89.83,646.47,89.93,645.74,89.93z M640.3,88.35h5.05c-0.07-0.96-0.32-1.67-0.77-2.15
			c-0.45-0.47-1.03-0.71-1.76-0.71c-0.69,0-1.26,0.24-1.71,0.72C640.66,86.69,640.39,87.4,640.3,88.35z"/>
		<path class="st0" d="M652.91,85.11v0.34c0.49-0.65,1.02-1.13,1.61-1.43s1.25-0.46,2-0.46c0.73,0,1.39,0.16,1.97,0.48
			c0.58,0.32,1.01,0.78,1.29,1.36c0.18,0.34,0.3,0.71,0.36,1.11c0.05,0.4,0.08,0.9,0.08,1.52v5.21c0,0.56-0.13,0.98-0.38,1.27
			s-0.59,0.43-0.99,0.43c-0.42,0-0.75-0.15-1.01-0.44c-0.26-0.29-0.39-0.71-0.39-1.26v-4.67c0-0.92-0.13-1.63-0.38-2.12
			s-0.76-0.73-1.52-0.73c-0.5,0-0.95,0.15-1.36,0.45c-0.41,0.3-0.71,0.71-0.9,1.23c-0.14,0.42-0.2,1.2-0.2,2.34v3.51
			c0,0.57-0.13,0.99-0.39,1.28c-0.26,0.28-0.6,0.43-1.01,0.43c-0.4,0-0.73-0.15-0.99-0.44c-0.26-0.29-0.39-0.71-0.39-1.26v-8.09
			c0-0.53,0.12-0.93,0.35-1.19c0.23-0.26,0.55-0.4,0.95-0.4c0.25,0,0.47,0.06,0.66,0.17c0.2,0.12,0.35,0.29,0.47,0.52
			S652.91,84.77,652.91,85.11z"/>
		<path class="st0" d="M663.14,83.8h0.31v-1.68c0-0.45,0.01-0.81,0.04-1.06c0.02-0.26,0.09-0.48,0.2-0.66
			c0.11-0.19,0.26-0.35,0.47-0.47s0.43-0.18,0.68-0.18c0.35,0,0.67,0.13,0.96,0.4c0.19,0.18,0.31,0.4,0.36,0.65
			c0.05,0.26,0.08,0.62,0.08,1.09v1.91h1.02c0.39,0,0.7,0.09,0.9,0.28c0.21,0.19,0.31,0.43,0.31,0.72c0,0.38-0.15,0.64-0.44,0.79
			c-0.29,0.15-0.72,0.23-1.27,0.23h-0.52v5.15c0,0.44,0.02,0.77,0.05,1.01c0.03,0.24,0.11,0.43,0.25,0.57
			c0.13,0.15,0.35,0.22,0.65,0.22c0.16,0,0.38-0.03,0.66-0.09s0.5-0.09,0.65-0.09c0.22,0,0.43,0.09,0.61,0.27
			c0.18,0.18,0.27,0.4,0.27,0.67c0,0.45-0.25,0.8-0.73,1.04s-1.19,0.36-2.11,0.36c-0.87,0-1.53-0.15-1.98-0.44
			c-0.45-0.29-0.74-0.7-0.88-1.22c-0.14-0.52-0.21-1.21-0.21-2.08v-5.37h-0.37c-0.4,0-0.71-0.1-0.92-0.29
			c-0.21-0.19-0.32-0.43-0.32-0.73s0.11-0.53,0.33-0.72C662.4,83.9,662.72,83.8,663.14,83.8z"/>
		<path class="st0" d="M677.41,93.36c-0.67,0.53-1.32,0.92-1.95,1.18c-0.63,0.26-1.33,0.4-2.12,0.4c-0.71,0-1.34-0.14-1.88-0.43
			c-0.54-0.28-0.96-0.67-1.25-1.15s-0.44-1.01-0.44-1.58c0-0.77,0.24-1.42,0.72-1.96s1.15-0.9,1.99-1.09
			c0.18-0.04,0.61-0.13,1.31-0.28s1.3-0.27,1.8-0.4c0.5-0.12,1.04-0.26,1.63-0.44c-0.03-0.74-0.18-1.28-0.44-1.62
			c-0.26-0.35-0.8-0.52-1.62-0.52c-0.71,0-1.24,0.1-1.6,0.3s-0.66,0.5-0.92,0.89s-0.43,0.66-0.54,0.78s-0.33,0.19-0.68,0.19
			c-0.31,0-0.58-0.1-0.81-0.3c-0.23-0.2-0.34-0.46-0.34-0.77c0-0.49,0.17-0.97,0.52-1.44s0.89-0.85,1.62-1.15
			c0.73-0.3,1.65-0.45,2.74-0.45c1.22,0,2.18,0.15,2.88,0.44c0.7,0.29,1.19,0.75,1.48,1.38c0.29,0.63,0.43,1.46,0.43,2.5
			c0,0.66,0,1.21,0,1.67c0,0.46-0.01,0.97-0.02,1.53c0,0.53,0.09,1.08,0.26,1.65c0.17,0.57,0.26,0.94,0.26,1.1
			c0,0.29-0.13,0.55-0.4,0.78c-0.27,0.24-0.57,0.35-0.91,0.35c-0.29,0-0.57-0.14-0.85-0.4C678.02,94.26,677.73,93.87,677.41,93.36z
			 M677.23,89.31c-0.41,0.15-1,0.31-1.78,0.48c-0.78,0.17-1.32,0.29-1.62,0.37c-0.3,0.08-0.58,0.23-0.86,0.46
			c-0.27,0.23-0.41,0.55-0.41,0.96c0,0.42,0.16,0.78,0.48,1.08c0.32,0.3,0.74,0.45,1.25,0.45c0.55,0,1.06-0.12,1.52-0.36
			c0.47-0.24,0.81-0.56,1.02-0.94c0.25-0.42,0.38-1.12,0.38-2.09V89.31z"/>
		<path class="st0" d="M684.63,94.94c-0.42,0-0.79-0.14-1.09-0.41s-0.46-0.66-0.46-1.15c0-0.42,0.15-0.78,0.44-1.08
			c0.29-0.3,0.65-0.45,1.08-0.45c0.43,0,0.79,0.15,1.1,0.45c0.3,0.3,0.45,0.66,0.45,1.08c0,0.49-0.15,0.87-0.45,1.14
			C685.39,94.8,685.04,94.94,684.63,94.94z"/>
		<path class="st0" d="M702.25,89.93c0,0.48-0.12,1-0.35,1.55c-0.23,0.56-0.6,1.1-1.11,1.64c-0.5,0.54-1.14,0.97-1.93,1.31
			c-0.78,0.33-1.69,0.5-2.73,0.5c-0.79,0-1.51-0.08-2.15-0.23s-1.23-0.38-1.76-0.7c-0.53-0.32-1.01-0.74-1.45-1.26
			c-0.39-0.47-0.73-1-1.01-1.58c-0.28-0.58-0.49-1.21-0.63-1.87c-0.14-0.66-0.21-1.37-0.21-2.11c0-1.21,0.17-2.29,0.52-3.25
			c0.35-0.96,0.85-1.78,1.5-2.46c0.65-0.68,1.42-1.2,2.29-1.55c0.88-0.36,1.81-0.53,2.8-0.53c1.21,0,2.29,0.24,3.23,0.73
			c0.95,0.49,1.67,1.09,2.17,1.8s0.75,1.39,0.75,2.02c0,0.35-0.12,0.66-0.37,0.92c-0.24,0.27-0.54,0.4-0.89,0.4
			c-0.39,0-0.68-0.09-0.87-0.28c-0.19-0.18-0.41-0.5-0.65-0.95c-0.39-0.75-0.86-1.3-1.39-1.67s-1.19-0.55-1.97-0.55
			c-1.24,0-2.23,0.48-2.97,1.43s-1.11,2.3-1.11,4.05c0,1.17,0.16,2.14,0.49,2.92s0.79,1.35,1.39,1.74c0.6,0.38,1.3,0.57,2.1,0.57
			c0.87,0,1.61-0.22,2.21-0.65s1.05-1.07,1.36-1.91c0.13-0.4,0.29-0.72,0.48-0.97c0.19-0.25,0.5-0.37,0.92-0.37
			c0.36,0,0.67,0.13,0.93,0.38C702.12,89.24,702.25,89.56,702.25,89.93z"/>
		<path class="st0" d="M711.81,93.36c-0.67,0.53-1.32,0.92-1.95,1.18c-0.63,0.26-1.33,0.4-2.12,0.4c-0.71,0-1.34-0.14-1.88-0.43
			c-0.54-0.28-0.96-0.67-1.25-1.15s-0.44-1.01-0.44-1.58c0-0.77,0.24-1.42,0.72-1.96s1.15-0.9,1.99-1.09
			c0.18-0.04,0.61-0.13,1.31-0.28s1.3-0.27,1.8-0.4c0.5-0.12,1.04-0.26,1.63-0.44c-0.03-0.74-0.18-1.28-0.44-1.62
			c-0.26-0.35-0.8-0.52-1.62-0.52c-0.71,0-1.24,0.1-1.6,0.3s-0.66,0.5-0.92,0.89s-0.43,0.66-0.54,0.78s-0.33,0.19-0.68,0.19
			c-0.31,0-0.58-0.1-0.81-0.3c-0.23-0.2-0.34-0.46-0.34-0.77c0-0.49,0.17-0.97,0.52-1.44s0.89-0.85,1.62-1.15
			c0.73-0.3,1.65-0.45,2.74-0.45c1.22,0,2.18,0.15,2.88,0.44c0.7,0.29,1.19,0.75,1.48,1.38c0.29,0.63,0.43,1.46,0.43,2.5
			c0,0.66,0,1.21,0,1.67c0,0.46-0.01,0.97-0.02,1.53c0,0.53,0.09,1.08,0.26,1.65c0.17,0.57,0.26,0.94,0.26,1.1
			c0,0.29-0.13,0.55-0.4,0.78c-0.27,0.24-0.57,0.35-0.91,0.35c-0.29,0-0.57-0.14-0.85-0.4C712.42,94.26,712.12,93.87,711.81,93.36z
			 M711.62,89.31c-0.41,0.15-1,0.31-1.78,0.48c-0.78,0.17-1.32,0.29-1.62,0.37c-0.3,0.08-0.58,0.23-0.86,0.46
			c-0.27,0.23-0.41,0.55-0.41,0.96c0,0.42,0.16,0.78,0.48,1.08c0.32,0.3,0.74,0.45,1.25,0.45c0.55,0,1.06-0.12,1.52-0.36
			c0.47-0.24,0.81-0.56,1.02-0.94c0.25-0.42,0.38-1.12,0.38-2.09V89.31z"/>
		<path class="st0" d="M726.44,89.45v3.72c0,0.59-0.13,1.03-0.4,1.32s-0.62,0.44-1.05,0.44c-0.42,0-0.76-0.15-1.02-0.44
			s-0.39-0.73-0.39-1.32v-4.46c0-0.7-0.02-1.25-0.07-1.64c-0.05-0.39-0.18-0.71-0.39-0.96c-0.21-0.25-0.54-0.37-1-0.37
			c-0.91,0-1.51,0.31-1.8,0.94c-0.29,0.63-0.43,1.53-0.43,2.71v3.78c0,0.58-0.13,1.02-0.39,1.32c-0.26,0.3-0.61,0.45-1.03,0.45
			c-0.42,0-0.77-0.15-1.04-0.45c-0.27-0.3-0.4-0.74-0.4-1.32v-8.01c0-0.53,0.12-0.93,0.36-1.2s0.56-0.41,0.95-0.41
			c0.38,0,0.7,0.13,0.95,0.38c0.25,0.26,0.38,0.61,0.38,1.06v0.27c0.48-0.58,1-1.01,1.55-1.28c0.55-0.27,1.16-0.41,1.83-0.41
			c0.7,0,1.3,0.14,1.8,0.42s0.92,0.7,1.24,1.27c0.47-0.57,0.97-1,1.51-1.28c0.54-0.28,1.13-0.42,1.78-0.42
			c0.76,0,1.42,0.15,1.97,0.45s0.96,0.73,1.23,1.29c0.24,0.51,0.36,1.3,0.36,2.39v5.47c0,0.59-0.13,1.03-0.4,1.32
			c-0.26,0.29-0.62,0.44-1.05,0.44c-0.42,0-0.77-0.15-1.03-0.45c-0.27-0.3-0.4-0.74-0.4-1.32v-4.71c0-0.6-0.03-1.08-0.08-1.45
			s-0.19-0.67-0.41-0.91c-0.22-0.25-0.56-0.37-1.02-0.37c-0.37,0-0.71,0.11-1.04,0.33c-0.33,0.22-0.59,0.51-0.77,0.88
			C726.54,87.42,726.44,88.26,726.44,89.45z"/>
		<path class="st0" d="M738.22,80.99v4.28c0.52-0.55,1.06-0.97,1.6-1.26s1.22-0.44,2.02-0.44c0.92,0,1.73,0.22,2.43,0.66
			c0.7,0.44,1.24,1.08,1.62,1.92c0.38,0.84,0.58,1.83,0.58,2.98c0,0.85-0.11,1.63-0.32,2.33c-0.21,0.71-0.52,1.32-0.93,1.84
			c-0.41,0.52-0.9,0.92-1.48,1.21c-0.58,0.28-1.22,0.43-1.92,0.43c-0.43,0-0.83-0.05-1.21-0.15s-0.7-0.24-0.96-0.41
			c-0.26-0.17-0.49-0.34-0.68-0.52s-0.43-0.44-0.74-0.8v0.28c0,0.53-0.12,0.92-0.38,1.19c-0.25,0.27-0.57,0.4-0.96,0.4
			c-0.39,0-0.71-0.14-0.94-0.4c-0.23-0.27-0.35-0.67-0.35-1.19V81.12c0-0.57,0.11-1,0.34-1.29s0.54-0.44,0.95-0.44
			c0.43,0,0.76,0.14,0.99,0.42C738.1,80.09,738.22,80.48,738.22,80.99z M738.35,89.31c0,1.11,0.25,1.97,0.76,2.57
			c0.51,0.6,1.17,0.9,1.99,0.9c0.7,0,1.3-0.31,1.81-0.92c0.51-0.61,0.76-1.49,0.76-2.63c0-0.74-0.11-1.37-0.32-1.91
			c-0.21-0.53-0.51-0.94-0.9-1.24c-0.39-0.29-0.84-0.44-1.36-0.44c-0.53,0-1,0.15-1.42,0.44c-0.42,0.29-0.74,0.71-0.98,1.26
			C738.47,87.9,738.35,88.55,738.35,89.31z"/>
		<path class="st0" d="M750.11,82.25c-0.39,0-0.72-0.12-0.99-0.36c-0.28-0.24-0.41-0.58-0.41-1.02c0-0.4,0.14-0.72,0.42-0.98
			c0.28-0.26,0.61-0.38,0.98-0.38c0.36,0,0.68,0.12,0.96,0.35c0.28,0.23,0.42,0.57,0.42,1.02c0,0.43-0.14,0.77-0.41,1.01
			C750.8,82.13,750.48,82.25,750.11,82.25z M751.48,85.15v8.09c0,0.56-0.13,0.98-0.4,1.27c-0.26,0.29-0.6,0.43-1.01,0.43
			c-0.41,0-0.74-0.15-0.99-0.44s-0.38-0.71-0.38-1.26v-8.01c0-0.55,0.13-0.97,0.38-1.25s0.59-0.42,0.99-0.42
			c0.41,0,0.74,0.14,1.01,0.42C751.35,84.26,751.48,84.65,751.48,85.15z"/>
		<path class="st0" d="M764.78,89.25c0,0.83-0.13,1.6-0.39,2.31c-0.26,0.7-0.63,1.31-1.12,1.81s-1.07,0.89-1.75,1.16
			c-0.68,0.27-1.44,0.4-2.29,0.4c-0.84,0-1.6-0.14-2.27-0.41s-1.25-0.66-1.75-1.17c-0.49-0.51-0.87-1.11-1.12-1.8
			c-0.25-0.69-0.38-1.46-0.38-2.3c0-0.85,0.13-1.62,0.39-2.33c0.26-0.7,0.63-1.31,1.11-1.8s1.07-0.88,1.75-1.15
			c0.69-0.27,1.44-0.4,2.27-0.4c0.84,0,1.61,0.14,2.29,0.41s1.27,0.66,1.76,1.17s0.86,1.11,1.12,1.8S764.78,88.41,764.78,89.25z
			 M761.98,89.25c0-1.14-0.25-2.03-0.75-2.67c-0.5-0.64-1.17-0.95-2.01-0.95c-0.54,0-1.02,0.14-1.44,0.43
			c-0.41,0.28-0.73,0.7-0.96,1.26s-0.34,1.2-0.34,1.94c0,0.73,0.11,1.37,0.33,1.92s0.54,0.97,0.95,1.26
			c0.41,0.29,0.89,0.44,1.45,0.44c0.84,0,1.51-0.32,2.01-0.96C761.73,91.26,761.98,90.38,761.98,89.25z"/>
		<path class="st0" d="M767.77,94.94c-0.42,0-0.79-0.14-1.09-0.41s-0.46-0.66-0.46-1.15c0-0.42,0.15-0.78,0.44-1.08
			c0.29-0.3,0.65-0.45,1.08-0.45c0.43,0,0.79,0.15,1.1,0.45c0.3,0.3,0.45,0.66,0.45,1.08c0,0.49-0.15,0.87-0.45,1.14
			C768.53,94.8,768.18,94.94,767.77,94.94z"/>
	</g>
	<g>
		<path class="st0" d="M49.7,56.36c-0.55-0.02-1.02,0.39-1.05,0.95s0.39,1.02,0.95,1.05c0.27,0.01,27.27,1.45,33.52,2.68
			c0.07,0.01,0.13,0.02,0.19,0.02c0.47,0,0.89-0.33,0.98-0.81c0.11-0.54-0.25-1.07-0.79-1.17C77.11,57.82,50.81,56.42,49.7,56.36z"
			/>
		<path class="st0" d="M90.43,44.72c-0.17,0.44,0.04,0.93,0.47,1.1c0.1,0.04,0.21,0.06,0.32,0.06c0.34,0,0.66-0.2,0.79-0.53
			c0.03-0.08,3.08-7.86,10.43-9.2c7.32-1.33,10.73-0.12,14.56,2.09c0.41,0.23,0.93,0.09,1.16-0.31c0.23-0.41,0.09-0.93-0.31-1.16
			c-4.02-2.31-7.85-3.68-15.53-2.31c-4.69-1.05-14.11-1.45-33.41-1.45c-19.29,0-29,4.57-29.41,4.76c-0.42,0.2-0.6,0.71-0.4,1.13
			c0.15,0.3,0.45,0.48,0.77,0.48c0.12,0,0.25-0.03,0.37-0.08c0.1-0.05,9.81-4.6,28.67-4.6c15.28,0,24.48,0.27,29.83,0.9
			C92.95,38.34,90.56,44.4,90.43,44.72z"/>
		<path class="st0" d="M157.64,49.84c0.21,0,0.42-0.08,0.59-0.23c0.34-0.32,0.35-0.86,0.03-1.2c-6.05-6.35-14.42-10.96-18.87-13.14
			c-2.27-1.11-9.55-3.58-11.96-3.96c-6.71-1.05-13.69-0.39-13.99-0.36c-0.47,0.04-0.81,0.46-0.77,0.93
			c0.04,0.47,0.47,0.81,0.93,0.77c0.07-0.01,7.07-0.67,13.56,0.35c2.19,0.34,9.39,2.79,11.47,3.8c4.35,2.13,12.52,6.62,18.39,12.78
			C157.2,49.75,157.42,49.84,157.64,49.84z"/>
		<path class="st0" d="M155.28,52.19c-19.68,0.87-29.97-15.13-30.08-15.3c-0.26-0.39-0.78-0.51-1.18-0.25
			c-0.39,0.26-0.5,0.78-0.25,1.18c0.11,0.17,10.32,16.1,29.97,16.1c0.53,0,1.06-0.01,1.6-0.04c0.47-0.02,0.83-0.42,0.81-0.89
			C156.15,52.54,155.75,52.16,155.28,52.19z"/>
		<path class="st0" d="M161.69,43.36c1.15,0,28.1-0.01,31.2-0.55c0.46-0.08,0.77-0.52,0.69-0.98c-0.08-0.46-0.52-0.77-0.98-0.69
			c-2.36,0.42-21.25,0.53-30.9,0.53c-0.47,0-0.85,0.38-0.85,0.85S161.23,43.36,161.69,43.36z"/>
		<path class="st0" d="M201.89,51.12c-0.64,6.94-11.93,7.28-12.04,7.28c-19.49,0.28-28.79-3.84-28.89-3.88
			c-0.43-0.19-0.93,0-1.13,0.42c-0.19,0.43-0.01,0.93,0.42,1.12c0.37,0.17,9.09,4.05,27.76,4.05c0.61,0,1.23,0,1.86-0.01
			c0.53-0.01,12.92-0.39,13.7-8.83c0.04-0.47-0.3-0.88-0.77-0.92C202.35,50.3,201.93,50.65,201.89,51.12z"/>
		<path class="st0" d="M205.89,49.87c-0.31-0.35-0.85-0.39-1.2-0.08c-0.35,0.31-0.39,0.85-0.08,1.2c0.03,0.03,2.9,3.38,2.37,7.09
			c-0.31,2.17-1.74,4.08-4.24,5.69c-0.05-0.1-0.1-0.19-0.16-0.29c-1.56-2.36-5.97-2.15-6.47-2.11c-0.47,0.03-0.82,0.43-0.79,0.9
			c0.03,0.47,0.43,0.83,0.9,0.79c1.01-0.07,4.08,0.05,4.95,1.36c0.4,0.6,0.3,1.48-0.27,2.63c-0.21,0.42-0.04,0.93,0.38,1.14
			c0.12,0.06,0.25,0.09,0.38,0.09c0.31,0,0.61-0.17,0.76-0.47c0.44-0.88,0.67-1.68,0.69-2.41c0.15,0,0.31-0.04,0.44-0.13
			c3.01-1.91,4.73-4.25,5.12-6.97C209.31,53.82,206.03,50.03,205.89,49.87z"/>
		<path class="st0" d="M159.66,72.67c0.08,0.02,0.15,0.03,0.23,0.03c0.37,0,0.71-0.24,0.82-0.62c0.02-0.09,2.53-8.65,8.87-8.65
			c0.07-0.01,7.54-0.52,10.95,0.51c0.45,0.13,0.92-0.12,1.06-0.57c0.14-0.45-0.12-0.92-0.57-1.06c-3.71-1.11-11.23-0.6-11.49-0.58
			c-7.58,0-10.33,9.49-10.45,9.89C158.95,72.07,159.21,72.54,159.66,72.67z"/>
		<path class="st0" d="M130.54,63.05c0.11,0.01,10.88,1.37,28.9,1.55c0,0,0.01,0,0.01,0c0.47,0,0.85-0.38,0.85-0.84
			c0-0.47-0.37-0.85-0.84-0.86c-17.91-0.18-28.59-1.52-28.7-1.54c-0.47-0.06-0.89,0.27-0.95,0.73
			C129.74,62.57,130.07,62.99,130.54,63.05z"/>
		<path class="st0" d="M138.76,57.03c0.05,0.01,0.11,0.02,0.16,0.02c0.4,0,0.75-0.28,0.83-0.69c0.09-0.46-0.21-0.91-0.67-1
			c-16.94-3.28-21.58-12.67-21.62-12.76c-0.2-0.42-0.7-0.6-1.13-0.41c-0.43,0.2-0.61,0.7-0.41,1.13
			C116.12,43.74,120.9,53.57,138.76,57.03z"/>
		<path class="st0" d="M105.35,43.56c1.04-0.3,4.25-0.23,5.37,0.56c3.38,2.36,9.05,9.46,9.05,30.4c0,0.07,0.03,0.14,0.06,0.21
			c0.12,0.31,0.49,0.55,1,0.61c0.09,0.02,0.18,0.03,0.26,0.03c0.09,0,0.18-0.02,0.28-0.06c0.38-0.1,0.68-0.37,0.79-0.67
			c0.04-0.08,0.06-0.17,0.06-0.25c0-21.71-6.88-29.11-10.54-31.66c-1.74-1.22-5.59-1.15-6.81-0.8
			c-7.74,2.23-10.71,10.51-10.84,10.86c-0.16,0.44,0.07,0.93,0.51,1.09c0.44,0.16,0.93-0.06,1.09-0.51
			C95.66,53.29,98.45,45.55,105.35,43.56z"/>
		<path class="st0" d="M124.71,80.87c-4.67,4.56-10.19,4.09-10.33,4.08c-9.2,0-13.8-6.71-16.04-12.34
			c-1.1-2.75-1.29-8.52-1.02-10.02c1.72-9.82,8-14.2,8.07-14.25c0.39-0.26,0.49-0.79,0.23-1.18c-0.26-0.39-0.79-0.49-1.18-0.23
			c-0.28,0.19-6.94,4.79-8.79,15.36c-0.33,1.88-0.08,7.94,1.12,10.94c2,5.01,6.94,13.41,17.53,13.41c0,0,0.01,0,0.01,0
			c0.05,0,0.31,0.03,0.74,0.03c1.82,0,6.6-0.43,10.86-4.59c0.34-0.33,0.34-0.87,0.01-1.2C125.58,80.55,125.05,80.55,124.71,80.87z"
			/>
		<path class="st0" d="M202.43,70.25c-2.88,1.12-20.85,4.73-36.16,6.07c-14.89,1.3-39.12,0.01-39.36,0
			c-0.48-0.04-0.87,0.33-0.89,0.8c-0.03,0.47,0.33,0.87,0.8,0.89c0.16,0.01,10.97,0.58,22.61,0.58c5.63,0,11.44-0.14,16.35-0.54
			c0.67,1.4,2.95,4.37,10.43,5.23c0.34,0.04,1.07,0.08,1.99,0.08c2.24,0,5.66-0.21,7.77-1.07c2.78-1.14,6.52-3.53,8.74-8.44
			c4.1-0.82,7.16-1.56,8.33-2.01c0.44-0.17,0.65-0.66,0.48-1.1C203.36,70.3,202.86,70.08,202.43,70.25z M185.33,80.72
			c-2.5,1.02-7.69,1.02-8.92,0.88c-5.7-0.66-7.91-2.56-8.75-3.7c8.37-0.79,17.84-2.28,24.95-3.64
			C190.59,77.92,187.6,79.79,185.33,80.72z"/>
		<path class="st0" d="M93.38,73.68c-9.5-1.27-40.09-4.42-50.78-5.5c0,0,0,0,0,0c-2.27-0.23-3.65-0.37-3.72-0.38
			c-0.48-0.05-0.88,0.29-0.93,0.76c-0.05,0.47,0.29,0.88,0.76,0.93c0.06,0.01,0.92,0.09,2.39,0.24c-4.9,7.33-14.11,5.83-14.52,5.76
			c-0.46-0.08-0.9,0.23-0.98,0.69c-0.08,0.46,0.23,0.9,0.69,0.98c0.03,0.01,1.02,0.17,2.53,0.17c3.65,0,10.35-0.97,14.16-7.41
			c11.14,1.14,40.87,4.19,50.19,5.44c0.04,0.01,0.08,0.01,0.11,0.01c0.42,0,0.78-0.31,0.84-0.74
			C94.17,74.17,93.84,73.74,93.38,73.68z"/>
		<path class="st0" d="M25.66,30.75c-0.46-0.1-0.91,0.18-1.02,0.63c-0.11,0.46,0.18,0.91,0.63,1.02
			c0.47,0.11,11.41,2.88,12.67,18.86c0.03,0.45,0.41,0.78,0.85,0.78c0.02,0,0.04,0,0.07,0c0.47-0.04,0.82-0.45,0.78-0.91
			C38.28,33.86,25.78,30.78,25.66,30.75z"/>
		<path class="st0" d="M25.46,41.13c5.67,0,10.07,12.4,10.07,23.07c0,0.47,0.38,0.85,0.85,0.85s0.85-0.38,0.85-0.85
			c0-10.12-4.19-24.77-11.77-24.77c-7.09,0-9.61,11.85-9.71,12.36c-0.09,0.46,0.2,0.91,0.66,1c0.46,0.09,0.91-0.2,1-0.66
			C17.44,52.02,19.75,41.13,25.46,41.13z"/>
		<path class="st0" d="M28.89,71.91c3.55-4.38,4.5-13.45,2.44-23.09c-0.1-0.46-0.55-0.76-1.01-0.65c-0.46,0.1-0.75,0.55-0.65,1.01
			c2.23,10.42,0.55,18.39-2.1,21.67c-1.01,1.25-2.16,1.88-3.43,1.88c-0.89,0-1.63-0.33-2.25-1c-2.82-3.05-2.19-11.49-2.18-11.56
			c1.33-12.65,5.82-13.99,5.94-14.02c0.45-0.1,0.74-0.54,0.65-1c-0.09-0.46-0.54-0.76-1-0.67c-0.24,0.05-5.79,1.31-7.28,15.53
			c-0.03,0.38-0.7,9.27,2.62,12.87c0.95,1.03,2.13,1.55,3.5,1.55C25.92,74.41,27.57,73.55,28.89,71.91z"/>
		<path class="st0" d="M40.48,26.27c-0.47,0-0.85,0.38-0.85,0.85s0.38,0.85,0.85,0.85h42.6c0.47,0,0.85-0.38,0.85-0.85
			s-0.38-0.85-0.85-0.85H40.48z"/>
		<path class="st0" d="M33.11,25.71c-0.31,0.35-0.29,0.89,0.06,1.2c0.35,0.31,0.89,0.28,1.2-0.06c0.14-0.15,13.86-15.2,30.93-15.2
			c16.89,0,24.81,15.69,24.89,15.84c0.15,0.3,0.45,0.48,0.76,0.47c0.13,0,0.25-0.03,0.37-0.09c0.42-0.21,0.59-0.72,0.39-1.14
			c-0.08-0.17-8.45-16.8-26.41-16.8C47.49,9.95,33.69,25.07,33.11,25.71z"/>
		<path class="st0" d="M99.02,27.24c0.23,0,0.61,0.11,1.07-0.29c0.35-0.31,0.49-1.3,0.14-1.62L82.2,8.98
			c-0.34-0.32-0.88-0.3-1.2,0.04c-0.32,0.34-0.3,0.88,0.04,1.2l17.4,16.78C98.61,27.16,98.82,27.24,99.02,27.24z"/>
		<path class="st0" d="M41.43,14.69c17.34-8.17,37-8.85,51.62-7.71c-3.77,0.2-6.11,0.48-6.16,0.49c-0.47,0.06-0.8,0.48-0.74,0.95
			c0.05,0.43,0.42,0.74,0.84,0.74c0.04,0,0.07,0,0.11-0.01c0.08-0.01,8.49-1.04,19.38-0.5c5.15,0.89,8.29,1.73,8.4,1.76
			c0.24,0.07,23.15,6.51,30.82,15.85h-38.03c-0.47,0-0.85,0.38-0.85,0.85s0.38,0.85,0.85,0.85l52.97,0c0.28,0,28.15-0.57,40.9,19.53
			c0.16,0.26,0.44,0.4,0.72,0.4c0.16,0,0.31-0.04,0.45-0.13c0.4-0.25,0.51-0.78,0.26-1.17c-13.27-20.93-42.1-20.32-42.36-20.31
			h-12.79c-7.17-10.37-31.45-17.2-32.49-17.49c-0.11-0.03-3.21-0.86-8.32-1.75c-0.07-0.03-0.15-0.05-0.23-0.06
			c-0.05,0-0.1,0-0.15-0.01C92.73,4.58,64.58,1.91,40.7,13.15C7.38,28.85,11.74,55.21,11.79,55.47c0.07,0.41,0.43,0.7,0.83,0.7
			c0.05,0,0.1,0,0.15-0.01c0.46-0.08,0.77-0.52,0.69-0.99C13.42,54.92,9.33,29.81,41.43,14.69z"/>
	</g>
</g>
</svg>
