<svg width="183" height="6" viewBox="0 0 183 6" fill="none" xmlns="http://www.w3.org/2000/svg">
<g clip-path="url(#clip0_1_181)">
<path d="M120.469 5.79558H0.5L3.46258 0H123.432L120.469 5.79558Z" fill="#E2E8F0"/>
<path d="M131.457 5.79558H122.565L125.527 0H134.424L131.457 5.79558Z" fill="#E2E8F0"/>
<path d="M141.073 5.79558H133.119L136.086 0H144.04L141.073 5.79558Z" fill="#E2E8F0"/>
<path d="M150.689 5.79558H143.678L146.641 0H153.652L150.689 5.79558Z" fill="#E2E8F0"/>
<path d="M160.305 5.79558H154.237L157.2 0H163.268L160.305 5.79558Z" fill="#E2E8F0"/>
<path d="M169.917 5.79558H164.792L167.759 0H172.884L169.917 5.79558Z" fill="#E2E8F0"/>
<path d="M179.533 5.79558H175.351L178.313 0H182.5L179.533 5.79558Z" fill="#E2E8F0"/>
</g>
<defs>
<clipPath id="clip0_1_181">
<rect width="182" height="5.79558" fill="white" transform="translate(0.5)"/>
</clipPath>
</defs>
</svg>
