<svg width="20" height="20" viewBox="0 0 20 20" fill="none" xmlns="http://www.w3.org/2000/svg">
<path d="M14.9996 0H4.99988C2.25019 0 0 2.25019 0 4.99988V15.0001C0 17.7491 2.25019 20 4.99988 20H14.9996C17.7493 20 19.9995 17.7491 19.9995 15.0001V4.99988C19.9995 2.25019 17.7493 0 14.9996 0ZM18.3328 15.0001C18.3328 16.8376 16.8381 18.3333 14.9996 18.3333H4.99988C3.16218 18.3333 1.66671 16.8376 1.66671 15.0001V4.99988C1.66671 3.16193 3.16218 1.66671 4.99988 1.66671H14.9996C16.8381 1.66671 18.3328 3.16193 18.3328 4.99988V15.0001Z" fill="white"/>
<path d="M15.4172 5.83319C16.1075 5.83319 16.6672 5.27356 16.6672 4.58322C16.6672 3.89288 16.1075 3.33325 15.4172 3.33325C14.7269 3.33325 14.1672 3.89288 14.1672 4.58322C14.1672 5.27356 14.7269 5.83319 15.4172 5.83319Z" fill="white"/>
<path d="M9.99963 5C7.23769 5 4.99976 7.23818 4.99976 9.99988C4.99976 12.7606 7.23769 15.0002 9.99963 15.0002C12.7608 15.0002 14.9995 12.7606 14.9995 9.99988C14.9995 7.23818 12.7608 5 9.99963 5ZM9.99963 13.3335C8.15891 13.3335 6.66646 11.8411 6.66646 9.99988C6.66646 8.15866 8.15891 6.66671 9.99963 6.66671C11.8404 6.66671 13.3328 8.15866 13.3328 9.99988C13.3328 11.8411 11.8404 13.3335 9.99963 13.3335Z" fill="white"/>
</svg>
