<svg width="20" height="18" viewBox="0 0 20 18" fill="none" xmlns="http://www.w3.org/2000/svg">
<path d="M20 2.78755C19.25 3.11255 18.475 3.33755 17.65 3.43755C18.5 2.93755 19.15 2.13755 19.45 1.16255C18.65 1.63755 17.775 1.96255 16.85 2.16255C16.1 1.36255 15.025 0.862549 13.85 0.862549C11.575 0.862549 9.75 2.71255 9.75 4.96255C9.75 5.28755 9.775 5.58755 9.85 5.88755C6.45 5.73755 3.45 4.08755 1.425 1.61255C-0.0249999 4.21255 1.6 6.36255 2.675 7.08755C2.025 7.08755 1.375 6.88755 0.825 6.58755C0.825 8.61255 2.25 10.2875 4.1 10.6625C3.7 10.7875 2.8 10.8625 2.25 10.7375C2.775 12.3625 4.3 13.5625 6.075 13.5875C4.675 14.6875 2.625 15.5625 0 15.2875C1.825 16.4625 3.975 17.1375 6.3 17.1375C13.85 17.1375 17.95 10.8875 17.95 5.48755C17.95 5.31255 17.95 5.13755 17.925 4.96255C18.775 4.33755 19.475 3.61255 20 2.78755Z" fill="white"/>
</svg>
